{
.appVersion = "1192";
DisplayStrings = (
"lo/dcaron ká /dcaron as, das l/lcaron ka la /lcaron a\012lo/dcaron ká /dcaron os, dos l/lcaron ko la /lcaron o\012lo/dcaron ká /dcaron vs, dvs l/lcaron ka lv /lcaron v\012lo/dcaron ká /dcaron fs, dfs l/lcaron ka lf /lcaron f\012lo/dcaron ká /dcaron s, ds l/lcaron ka ls /lcaron s\012lo/dcaron ká /dcaron g, dg l/lcaron ka lg /lcaron g",
"Horacio\012HONOR\012AHUEAVADO\012AHOGO\012HORROR\012HOMBRE\012NOMBRE\012BHIO BHIO\012HHBHH\012\012",
"HUHIMOHIMEU\012inuheladnumjalehcnim \012{H} {A} {O}. 8. 4. 1. 9. 6. 3. 2. 5. 7. 0.\012nnxVxnn fUnebre fVino fino f/quoteright  araf/quotedblright  d/quotedblright  H/quoteright  H/quotedblright  el/quotedblright  el/quoteright  araf? ¿H? ¿id? ¿el? ¿foco? ¿huin? ¿HUIN? ¿FUNCO? ¿MAL? ¿VINO? ¿WONDER? ¿ADIOS? ¿P?\012¡VINO! ¡HENO! ¡ADIOA! ¡TEDU!  ¡WIN!\012abcdefghijklmnopqrstuvwxyz \012no 44 nn 2 nn 3 nn 6 nn 7 nn 8 nn 9 nn nn 0 nn 1 nn",
"nnnannnaoooaoooanndapnn\012nnnbnnnbooobooobnndbpnnnnnmnnnmooomooomnndmpnn\012nnnfnnnfooofooofnndfpnn\012nnnnnnnnooonooonnndnpnn\012nnnvnnnvooovooovnndvpnn\012nnnwnnnwooowooownndwpnn\012nnnxnnnxoooxoooxnndxpnn\012nnnynnnyoooyoooynndypnn\012nnnznnnzooozoooznndzpnn ",
"AFORO FACA Nanifta\012OFOE OTRO FOCO FOCA\012AFANAR COFIA COFO Todo\012Farol Foto Feto FoTonema Topo\012Filiforme afuera afogato aforo\012caf. fuerza n. afXia afpa efex nfxn",

glyphs = (
{
color = 4;
glyphname = A;
lastChange = "2017-03-02 15:54:42 +0000";
layers = (
{
anchors = (
{
name = bottom;
position = "{332, 0}";
},
{
name = ogonek;
position = "{674, 10}";
},
{
name = top;
position = "{342, 680}";
}
);
background = {
anchors = (
{
name = bottom;
position = "{332, 0}";
},
{
name = ogonek;
position = "{674, 10}";
},
{
name = top;
position = "{342, 680}";
}
);
paths = (
{
closed = 1;
nodes = (
"225 0 LINE",
"225 57 LINE",
"171 66 LINE SMOOTH",
"153 69 OFFCURVE",
"144 77 OFFCURVE",
"144 92 CURVE SMOOTH",
"144 99 OFFCURVE",
"145 106 OFFCURVE",
"148 113 CURVE SMOOTH",
"311 589 LINE",
"329 663 LINE",
"315 663 LINE",
"333 589 LINE",
"499 110 LINE SMOOTH",
"501 104 OFFCURVE",
"503 96 OFFCURVE",
"503 90 CURVE SMOOTH",
"503 77 OFFCURVE",
"494 69 OFFCURVE",
"477 66 CURVE SMOOTH",
"422 57 LINE",
"422 0 LINE",
"679 0 LINE",
"679 59 LINE",
"640 66 LINE SMOOTH",
"613 71 OFFCURVE",
"604 79 OFFCURVE",
"592 112 CURVE SMOOTH",
"378 720 LINE",
"285 720 LINE",
"70 112 LINE SMOOTH",
"58 79 OFFCURVE",
"50 71 OFFCURVE",
"23 66 CURVE SMOOTH",
"-15 59 LINE",
"-15 0 LINE"
);
},
{
closed = 1;
nodes = (
"471 237 LINE",
"446 307 LINE",
"198 307 LINE",
"174 237 LINE"
);
}
);
};
layerId = "93B1D13A-641C-48C6-9569-DADD26056F4A";
paths = (
{
closed = 1;
nodes = (
"227 0 LINE",
"227 54 LINE",
"176 63 LINE SMOOTH",
"158 66 OFFCURVE",
"149 74 OFFCURVE",
"149 89 CURVE SMOOTH",
"149 96 OFFCURVE",
"151 104 OFFCURVE",
"153 111 CURVE SMOOTH",
"322 590 LINE",
"341 663 LINE",
"329 663 LINE",
"348 590 LINE",
"512 108 LINE SMOOTH",
"514 102 OFFCURVE",
"516 93 OFFCURVE",
"516 87 CURVE SMOOTH",
"516 74 OFFCURVE",
"507 66 OFFCURVE",
"490 63 CURVE SMOOTH",
"438 54 LINE",
"438 0 LINE",
"684 0 LINE",
"684 56 LINE",
"648 63 LINE SMOOTH",
"621 68 OFFCURVE",
"611 76 OFFCURVE",
"600 109 CURVE SMOOTH",
"389 720 LINE",
"296 720 LINE",
"78 109 LINE SMOOTH",
"66 76 OFFCURVE",
"58 68 OFFCURVE",
"31 63 CURVE SMOOTH",
"-4 56 LINE",
"-4 0 LINE"
);
},
{
closed = 1;
nodes = (
"489 239 LINE",
"464 306 LINE",
"199 306 LINE",
"175 239 LINE"
);
}
);
width = 685;
},
{
anchors = (
{
name = bottom;
position = "{331, 0}";
},
{
name = ogonek;
position = "{676, 10}";
},
{
name = top;
position = "{340, 680}";
}
);
background = {
paths = (
{
closed = 1;
nodes = (
"273 0 LINE",
"273 77 LINE",
"224 86 LINE SMOOTH",
"205 89 OFFCURVE",
"196 97 OFFCURVE",
"196 110 CURVE SMOOTH",
"196 115 OFFCURVE",
"198 123 OFFCURVE",
"201 133 CURVE SMOOTH",
"328 510 LINE",
"347 603 LINE",
"329 603 LINE",
"353 508 LINE",
"486 130 LINE SMOOTH",
"489 121 OFFCURVE",
"491 113 OFFCURVE",
"491 107 CURVE SMOOTH",
"491 96 OFFCURVE",
"482 89 OFFCURVE",
"464 86 CURVE SMOOTH",
"414 77 LINE",
"414 0 LINE",
"706 0 LINE",
"706 79 LINE",
"669 86 LINE SMOOTH",
"641 91 OFFCURVE",
"633 97 OFFCURVE",
"621 132 CURVE SMOOTH",
"409 720 LINE",
"296 720 LINE",
"88 132 LINE SMOOTH",
"76 97 OFFCURVE",
"68 91 OFFCURVE",
"41 86 CURVE SMOOTH",
"5 79 LINE",
"5 0 LINE"
);
},
{
closed = 1;
nodes = (
"471 220 LINE",
"436 315 LINE",
"248 315 LINE",
"215 220 LINE"
);
}
);
};
layerId = "D04D9183-DC56-493B-9946-C87D971E5D7D";
paths = (
{
closed = 1;
nodes = (
"245 0 LINE",
"245 80 LINE",
"206 88 LINE SMOOTH",
"187 92 OFFCURVE",
"178 99 OFFCURVE",
"178 112 CURVE SMOOTH",
"178 117 OFFCURVE",
"180 125 OFFCURVE",
"183 135 CURVE SMOOTH",
"322 556 LINE",
"339 623 LINE",
"323 623 LINE",
"339 556 LINE",
"478 132 LINE SMOOTH",
"481 123 OFFCURVE",
"483 115 OFFCURVE",
"483 109 CURVE SMOOTH",
"483 98 OFFCURVE",
"474 92 OFFCURVE",
"456 88 CURVE SMOOTH",
"416 80 LINE",
"416 0 LINE",
"686 0 LINE",
"686 82 LINE",
"662 88 LINE SMOOTH",
"634 95 OFFCURVE",
"626 99 OFFCURVE",
"614 134 CURVE SMOOTH",
"410 720 LINE",
"277 720 LINE",
"70 134 LINE SMOOTH",
"58 99 OFFCURVE",
"50 94 OFFCURVE",
"23 88 CURVE SMOOTH",
"-2 82 LINE",
"-2 0 LINE"
);
},
{
closed = 1;
nodes = (
"465 220 LINE",
"433 315 LINE",
"230 315 LINE",
"197 220 LINE"
);
}
);
width = 689;
}
);
leftKerningGroup = A.left;
rightKerningGroup = A.right;
unicode = 0041;
},
{
glyphname = AE;
lastChange = "2017-02-21 22:44:59 +0000";
layers = (
{
anchors = (
{
name = top;
position = "{495, 690}";
}
);
background = {
paths = (
{
closed = 1;
nodes = (
"873 0 LINE",
"867 174 LINE",
"805 174 LINE",
"799 98 LINE SMOOTH",
"797 74 OFFCURVE",
"786 69 OFFCURVE",
"761 69 CURVE SMOOTH",
"495 69 LINE",
"520 44 LINE",
"520 676 LINE",
"495 651 LINE",
"757 651 LINE SMOOTH",
"782 651 OFFCURVE",
"794 646 OFFCURVE",
"795 622 CURVE",
"801 550 LINE",
"863 550 LINE",
"869 720 LINE",
"359 720 LINE",
"359 663 LINE",
"409 657 LINE SMOOTH",
"433 654 OFFCURVE",
"438 644 OFFCURVE",
"438 617 CURVE SMOOTH",
"438 104 LINE SMOOTH",
"438 77 OFFCURVE",
"433 70 OFFCURVE",
"409 66 CURVE SMOOTH",
"359 57 LINE",
"359 0 LINE"
);
},
{
closed = 1;
nodes = (
"759 343 LINE",
"759 409 LINE",
"504 409 LINE",
"504 343 LINE"
);
}
);
};
layerId = "93B1D13A-641C-48C6-9569-DADD26056F4A";
paths = (
{
closed = 1;
nodes = (
"222 0 LINE",
"222 54 LINE",
"168 63 LINE SMOOTH",
"150 66 OFFCURVE",
"140 74 OFFCURVE",
"140 89 CURVE SMOOTH",
"140 97 OFFCURVE",
"142 103 OFFCURVE",
"145 110 CURVE SMOOTH",
"398 720 LINE",
"325 720 LINE",
"68 109 LINE SMOOTH",
"54 76 OFFCURVE",
"48 69 OFFCURVE",
"21 63 CURVE SMOOTH",
"-12 56 LINE",
"-12 0 LINE"
);
},
{
closed = 1;
nodes = (
"857 0 LINE",
"851 174 LINE",
"789 174 LINE",
"783 98 LINE SMOOTH",
"781 74 OFFCURVE",
"770 69 OFFCURVE",
"745 69 CURVE SMOOTH",
"495 69 LINE",
"520 44 LINE",
"520 676 LINE",
"495 651 LINE",
"741 651 LINE SMOOTH",
"766 651 OFFCURVE",
"778 646 OFFCURVE",
"779 622 CURVE",
"785 550 LINE",
"847 550 LINE",
"853 720 LINE",
"356 720 LINE",
"356 653 LINE",
"409 650 LINE SMOOTH",
"433 649 OFFCURVE",
"438 637 OFFCURVE",
"438 610 CURVE SMOOTH",
"438 104 LINE SMOOTH",
"438 77 OFFCURVE",
"433 70 OFFCURVE",
"409 66 CURVE SMOOTH",
"359 57 LINE",
"359 0 LINE"
);
},
{
closed = 1;
nodes = (
"479 312 LINE",
"479 378 LINE",
"233 378 LINE",
"206 312 LINE"
);
},
{
closed = 1;
nodes = (
"741 312 LINE",
"741 378 LINE",
"504 378 LINE",
"504 312 LINE"
);
},
{
closed = 1;
nodes = (
"313 659 LINE",
"339 720 LINE",
"237 720 LINE",
"237 664 LINE"
);
}
);
width = 898;
},
{
anchors = (
{
name = top;
position = "{515, 690}";
}
);
background = {
paths = (
{
closed = 1;
nodes = (
"897 0 LINE",
"890 201 LINE",
"803 201 LINE",
"796 127 LINE SMOOTH",
"794 103 OFFCURVE",
"783 98 OFFCURVE",
"758 98 CURVE SMOOTH",
"542 98 LINE",
"567 73 LINE",
"567 647 LINE",
"542 622 LINE",
"757 622 LINE SMOOTH",
"782 622 OFFCURVE",
"793 617 OFFCURVE",
"795 593 CURVE SMOOTH",
"802 524 LINE",
"886 524 LINE",
"893 720 LINE",
"371 720 LINE",
"371 640 LINE",
"411 634 LINE SMOOTH",
"435 630 OFFCURVE",
"440 621 OFFCURVE",
"440 594 CURVE SMOOTH",
"440 127 LINE SMOOTH",
"440 102 OFFCURVE",
"435 94 OFFCURVE",
"411 89 CURVE SMOOTH",
"371 80 LINE",
"371 0 LINE"
);
},
{
closed = 1;
nodes = (
"783 323 LINE",
"783 421 LINE",
"551 421 LINE",
"551 323 LINE"
);
}
);
};
layerId = "D04D9183-DC56-493B-9946-C87D971E5D7D";
paths = (
{
closed = 1;
nodes = (
"260 0 LINE",
"260 80 LINE",
"211 89 LINE SMOOTH",
"192 92 OFFCURVE",
"183 100 OFFCURVE",
"183 113 CURVE SMOOTH",
"183 118 OFFCURVE",
"184 126 OFFCURVE",
"188 136 CURVE SMOOTH",
"425 720 LINE",
"322 720 LINE",
"75 135 LINE SMOOTH",
"60 100 OFFCURVE",
"55 94 OFFCURVE",
"28 89 CURVE SMOOTH",
"-8 82 LINE",
"-8 0 LINE"
);
},
{
closed = 1;
nodes = (
"887 0 LINE",
"880 201 LINE",
"793 201 LINE",
"786 127 LINE SMOOTH",
"784 103 OFFCURVE",
"773 98 OFFCURVE",
"748 98 CURVE SMOOTH",
"542 98 LINE",
"567 73 LINE",
"567 647 LINE",
"542 622 LINE",
"747 622 LINE SMOOTH",
"772 622 OFFCURVE",
"783 617 OFFCURVE",
"785 593 CURVE SMOOTH",
"792 524 LINE",
"876 524 LINE",
"883 720 LINE",
"364 720 LINE",
"364 634 LINE",
"411 628 LINE SMOOTH",
"435 625 OFFCURVE",
"440 615 OFFCURVE",
"440 588 CURVE SMOOTH",
"440 129 LINE SMOOTH",
"440 104 OFFCURVE",
"435 96 OFFCURVE",
"411 91 CURVE SMOOTH",
"371 82 LINE",
"371 0 LINE"
);
},
{
closed = 1;
nodes = (
"479 297 LINE",
"479 393 LINE",
"243 393 LINE",
"210 297 LINE"
);
},
{
closed = 1;
nodes = (
"771 297 LINE",
"771 393 LINE",
"551 393 LINE",
"551 297 LINE"
);
},
{
closed = 1;
nodes = (
"316 635 LINE",
"348 720 LINE",
"230 720 LINE",
"230 642 LINE"
);
}
);
width = 927;
}
);
leftKerningGroup = A;
rightMetricsKey = E;
unicode = 00C6;
},
{
glyphname = AEacute;
lastChange = "2017-02-21 22:44:59 +0000";
layers = (
{
background = {
components = (
{
name = AE;
}
);
paths = (
{
closed = 1;
nodes = (
"680 868 LINE",
"527 764 LINE SMOOTH",
"516 757 OFFCURVE",
"508 754 OFFCURVE",
"500 754 CURVE SMOOTH",
"480 754 OFFCURVE",
"464 769 OFFCURVE",
"452 783 CURVE",
"631 935 LINE"
);
}
);
};
components = (
{
name = AE;
},
{
name = acute.case;
transform = "{1, 0, 0, 1, 406, 10}";
}
);
layerId = "93B1D13A-641C-48C6-9569-DADD26056F4A";
width = 898;
},
{
background = {
components = (
{
name = AE;
},
{
name = acute.case;
transform = "{1, 0, 0, 1, 420, 0}";
}
);
};
components = (
{
name = AE;
},
{
name = acute.case;
transform = "{1, 0, 0, 1, 403, 10}";
}
);
layerId = "D04D9183-DC56-493B-9946-C87D971E5D7D";
width = 927;
}
);
leftKerningGroup = A;
unicode = 01FC;
},
{
glyphname = B;
lastChange = "2017-03-02 16:33:24 +0000";
layers = (
{
anchors = (
{
name = bottom;
position = "{352, 0}";
},
{
name = top;
position = "{327, 690}";
}
);
background = {
anchors = (
{
name = bottom;
position = "{352, 0}";
},
{
name = top;
position = "{327, 690}";
}
);
paths = (
{
closed = 1;
nodes = (
"334 0 LINE SMOOTH",
"501 0 OFFCURVE",
"590 82 OFFCURVE",
"590 217 CURVE SMOOTH",
"590 337 OFFCURVE",
"511 388 OFFCURVE",
"399 388 CURVE",
"399 382 LINE",
"482 387 OFFCURVE",
"540 472 OFFCURVE",
"540 558 CURVE SMOOTH",
"540 693 OFFCURVE",
"448 720 OFFCURVE",
"310 720 CURVE SMOOTH",
"54 720 LINE",
"54 661 LINE",
"107 652 LINE SMOOTH",
"131 648 OFFCURVE",
"136 641 OFFCURVE",
"136 614 CURVE SMOOTH",
"136 106 LINE SMOOTH",
"136 79 OFFCURVE",
"131 72 OFFCURVE",
"107 68 CURVE SMOOTH",
"54 59 LINE",
"54 0 LINE"
);
},
{
closed = 1;
nodes = (
"222 685 LINE",
"187 650 LINE",
"287 650 LINE SMOOTH",
"377 650 OFFCURVE",
"446 633 OFFCURVE",
"446 533 CURVE SMOOTH",
"446 435 OFFCURVE",
"406 408 OFFCURVE",
"300 408 CURVE SMOOTH",
"206 408 LINE",
"206 340 LINE",
"330 340 LINE SMOOTH",
"425 340 OFFCURVE",
"496 308 OFFCURVE",
"496 213 CURVE SMOOTH",
"496 104 OFFCURVE",
"449 70 OFFCURVE",
"330 70 CURVE SMOOTH",
"187 70 LINE",
"222 35 LINE"
);
},
{
closed = 1;
nodes = (
"326 0 LINE SMOOTH",
"487 0 OFFCURVE",
"581 81 OFFCURVE",
"581 217 CURVE SMOOTH",
"581 329 OFFCURVE",
"505 387 OFFCURVE",
"393 387 CURVE",
"393 381 LINE",
"476 386 OFFCURVE",
"533 464 OFFCURVE",
"533 555 CURVE SMOOTH",
"533 667 OFFCURVE",
"448 720 OFFCURVE",
"303 720 CURVE SMOOTH",
"51 720 LINE",
"51 664 LINE",
"101 655 LINE SMOOTH",
"125 651 OFFCURVE",
"130 644 OFFCURVE",
"130 617 CURVE SMOOTH",
"130 103 LINE SMOOTH",
"130 76 OFFCURVE",
"125 69 OFFCURVE",
"101 65 CURVE SMOOTH",
"51 56 LINE",
"51 0 LINE"
);
},
{
closed = 1;
nodes = (
"211 686 LINE",
"177 651 LINE",
"285 651 LINE SMOOTH",
"382 651 OFFCURVE",
"445 627 OFFCURVE",
"445 535 CURVE SMOOTH",
"445 436 OFFCURVE",
"404 408 OFFCURVE",
"298 408 CURVE SMOOTH",
"196 408 LINE",
"196 340 LINE",
"326 340 LINE SMOOTH",
"425 340 OFFCURVE",
"493 304 OFFCURVE",
"493 213 CURVE SMOOTH",
"493 104 OFFCURVE",
"445 69 OFFCURVE",
"326 69 CURVE SMOOTH",
"177 69 LINE",
"211 34 LINE"
);
}
);
};
layerId = "93B1D13A-641C-48C6-9569-DADD26056F4A";
paths = (
{
closed = 1;
nodes = (
"326 0 LINE SMOOTH",
"487 0 OFFCURVE",
"581 83 OFFCURVE",
"581 214 CURVE SMOOTH",
"581 331 OFFCURVE",
"502 387 OFFCURVE",
"393 387 CURVE",
"393 381 LINE",
"476 386 OFFCURVE",
"533 464 OFFCURVE",
"533 555 CURVE SMOOTH",
"533 667 OFFCURVE",
"454 720 OFFCURVE",
"309 720 CURVE SMOOTH",
"53 720 LINE",
"53 664 LINE",
"103 655 LINE SMOOTH",
"127 651 OFFCURVE",
"132 644 OFFCURVE",
"132 617 CURVE SMOOTH",
"132 103 LINE SMOOTH",
"132 76 OFFCURVE",
"127 69 OFFCURVE",
"103 65 CURVE SMOOTH",
"53 56 LINE",
"53 0 LINE"
);
},
{
closed = 1;
nodes = (
"213 686 LINE",
"179 651 LINE",
"285 651 LINE SMOOTH",
"390 651 OFFCURVE",
"445 626 OFFCURVE",
"445 527 CURVE SMOOTH",
"445 436 OFFCURVE",
"399 408 OFFCURVE",
"298 408 CURVE SMOOTH",
"198 408 LINE",
"198 340 LINE",
"326 340 LINE SMOOTH",
"433 340 OFFCURVE",
"493 304 OFFCURVE",
"493 202 CURVE SMOOTH",
"493 102 OFFCURVE",
"435 69 OFFCURVE",
"326 69 CURVE SMOOTH",
"179 69 LINE",
"213 34 LINE"
);
}
);
width = 623;
},
{
anchors = (
{
name = bottom;
position = "{355, 0}";
},
{
name = top;
position = "{308, 690}";
}
);
background = {
paths = (
{
closed = 1;
nodes = (
"968 0 LINE SMOOTH",
"1125 0 OFFCURVE",
"1224 82 OFFCURVE",
"1224 217 CURVE SMOOTH",
"1224 334 OFFCURVE",
"1135 384 OFFCURVE",
"1020 384 CURVE",
"1020 374 LINE",
"1102 378 OFFCURVE",
"1174 457 OFFCURVE",
"1174 558 CURVE SMOOTH",
"1174 683 OFFCURVE",
"1094 720 OFFCURVE",
"934 720 CURVE SMOOTH",
"660 720 LINE",
"660 641 LINE",
"711 632 LINE SMOOTH",
"735 628 OFFCURVE",
"740 619 OFFCURVE",
"740 594 CURVE SMOOTH",
"740 126 LINE SMOOTH",
"740 101 OFFCURVE",
"735 92 OFFCURVE",
"711 88 CURVE SMOOTH",
"660 79 LINE",
"660 0 LINE"
);
},
{
closed = 1;
nodes = (
"866 645 LINE",
"841 620 LINE",
"916 620 LINE SMOOTH",
"996 620 OFFCURVE",
"1040 600 OFFCURVE",
"1040 521 CURVE SMOOTH",
"1040 443 OFFCURVE",
"1010 417 OFFCURVE",
"932 417 CURVE SMOOTH",
"850 417 LINE",
"850 321 LINE",
"954 321 LINE SMOOTH",
"1045 321 OFFCURVE",
"1090 285 OFFCURVE",
"1090 215 CURVE SMOOTH",
"1090 138 OFFCURVE",
"1046 100 OFFCURVE",
"959 100 CURVE SMOOTH",
"841 100 LINE",
"866 75 LINE"
);
},
{
closed = 1;
nodes = (
"349 0 LINE SMOOTH",
"506 0 OFFCURVE",
"605 82 OFFCURVE",
"605 217 CURVE SMOOTH",
"605 334 OFFCURVE",
"516 384 OFFCURVE",
"401 384 CURVE",
"401 374 LINE",
"483 378 OFFCURVE",
"555 455 OFFCURVE",
"555 556 CURVE SMOOTH",
"555 672 OFFCURVE",
"483 720 OFFCURVE",
"325 720 CURVE SMOOTH",
"46 720 LINE",
"46 638 LINE",
"86 630 LINE SMOOTH",
"110 625 OFFCURVE",
"115 617 OFFCURVE",
"115 592 CURVE SMOOTH",
"115 128 LINE SMOOTH",
"115 103 OFFCURVE",
"110 95 OFFCURVE",
"86 90 CURVE SMOOTH",
"46 82 LINE",
"46 0 LINE"
);
},
{
closed = 1;
nodes = (
"241 647 LINE",
"216 622 LINE",
"297 622 LINE SMOOTH",
"377 622 OFFCURVE",
"421 601 OFFCURVE",
"421 522 CURVE SMOOTH",
"421 444 OFFCURVE",
"391 417 OFFCURVE",
"313 417 CURVE SMOOTH",
"225 417 LINE",
"225 321 LINE",
"335 321 LINE SMOOTH",
"426 321 OFFCURVE",
"471 284 OFFCURVE",
"471 214 CURVE SMOOTH",
"471 137 OFFCURVE",
"427 98 OFFCURVE",
"340 98 CURVE SMOOTH",
"216 98 LINE",
"241 73 LINE"
);
}
);
};
layerId = "D04D9183-DC56-493B-9946-C87D971E5D7D";
paths = (
{
closed = 1;
nodes = (
"349 0 LINE SMOOTH",
"506 0 OFFCURVE",
"605 84 OFFCURVE",
"605 213 CURVE SMOOTH",
"605 336 OFFCURVE",
"516 384 OFFCURVE",
"401 384 CURVE",
"401 374 LINE",
"483 379 OFFCURVE",
"555 451 OFFCURVE",
"555 560 CURVE SMOOTH",
"555 672 OFFCURVE",
"480 720 OFFCURVE",
"325 720 CURVE SMOOTH",
"46 720 LINE",
"46 640 LINE",
"86 630 LINE SMOOTH",
"110 624 OFFCURVE",
"115 617 OFFCURVE",
"115 592 CURVE SMOOTH",
"115 128 LINE SMOOTH",
"115 103 OFFCURVE",
"110 96 OFFCURVE",
"86 90 CURVE SMOOTH",
"46 80 LINE",
"46 0 LINE"
);
},
{
closed = 1;
nodes = (
"241 647 LINE",
"216 622 LINE",
"297 622 LINE SMOOTH",
"380 622 OFFCURVE",
"421 601 OFFCURVE",
"421 518 CURVE SMOOTH",
"421 444 OFFCURVE",
"389 417 OFFCURVE",
"313 417 CURVE SMOOTH",
"225 417 LINE",
"225 321 LINE",
"335 321 LINE SMOOTH",
"428 321 OFFCURVE",
"471 284 OFFCURVE",
"471 211 CURVE SMOOTH",
"471 138 OFFCURVE",
"427 98 OFFCURVE",
"340 98 CURVE SMOOTH",
"216 98 LINE",
"241 73 LINE"
);
}
);
width = 633;
}
);
leftKerningGroup = H.left;
unicode = 0042;
},
{
glyphname = C;
lastChange = "2017-03-01 22:20:20 +0000";
layers = (
{
anchors = (
{
name = bottom;
position = "{339, 0}";
},
{
name = top;
position = "{341, 690}";
}
);
annotations = (
{
position = "{10, 827}";
text = "interpolación mayúsculas redondas: - 6";
type = Text;
width = 289;
}
);
background = {
anchors = (
{
name = bottom;
position = "{339, 0}";
},
{
name = top;
position = "{341, 690}";
}
);
paths = (
{
closed = 1;
nodes = (
"425 -10 OFFCURVE",
"522 24 OFFCURVE",
"579 49 CURVE",
"560 111 LINE",
"507 89 OFFCURVE",
"430 63 OFFCURVE",
"359 63 CURVE SMOOTH",
"222 63 OFFCURVE",
"135 168 OFFCURVE",
"135 368 CURVE SMOOTH",
"135 563 OFFCURVE",
"188 658 OFFCURVE",
"346 658 CURVE SMOOTH",
"407 658 OFFCURVE",
"451 645 OFFCURVE",
"488 627 CURVE",
"504 510 LINE",
"566 510 LINE",
"582 674 LINE",
"532 704 OFFCURVE",
"454 730 OFFCURVE",
"368 730 CURVE SMOOTH",
"161 730 OFFCURVE",
"45 582 OFFCURVE",
"45 350 CURVE SMOOTH",
"45 119 OFFCURVE",
"145 -10 OFFCURVE",
"335 -10 CURVE SMOOTH"
);
}
);
};
layerId = "93B1D13A-641C-48C6-9569-DADD26056F4A";
paths = (
{
closed = 1;
nodes = (
"426 -10 OFFCURVE",
"522 24 OFFCURVE",
"579 49 CURVE",
"560 111 LINE",
"507 89 OFFCURVE",
"430 63 OFFCURVE",
"359 63 CURVE SMOOTH",
"222 63 OFFCURVE",
"135 160 OFFCURVE",
"135 383 CURVE SMOOTH",
"135 563 OFFCURVE",
"192 658 OFFCURVE",
"348 658 CURVE SMOOTH",
"406 658 OFFCURVE",
"451 645 OFFCURVE",
"488 627 CURVE",
"504 510 LINE",
"566 510 LINE",
"582 674 LINE",
"532 704 OFFCURVE",
"454 730 OFFCURVE",
"367 730 CURVE SMOOTH",
"161 730 OFFCURVE",
"45 584 OFFCURVE",
"45 345 CURVE SMOOTH",
"45 123 OFFCURVE",
"145 -10 OFFCURVE",
"332 -10 CURVE SMOOTH"
);
}
);
width = 612;
},
{
anchors = (
{
name = bottom;
position = "{341, 0}";
},
{
name = top;
position = "{348, 690}";
}
);
background = {
paths = (
{
closed = 1;
nodes = (
"437 -10 OFFCURVE",
"537 25 OFFCURVE",
"598 54 CURVE",
"571 143 LINE",
"550 135 OFFCURVE",
"464 97 OFFCURVE",
"375 97 CURVE SMOOTH",
"244 97 OFFCURVE",
"170 193 OFFCURVE",
"170 366 CURVE SMOOTH",
"170 541 OFFCURVE",
"210 626 OFFCURVE",
"345 626 CURVE SMOOTH",
"402 626 OFFCURVE",
"448 610 OFFCURVE",
"471 598 CURVE",
"492 486 LINE",
"582 486 LINE",
"598 672 LINE",
"561 693 OFFCURVE",
"483 730 OFFCURVE",
"377 730 CURVE SMOOTH",
"164 730 OFFCURVE",
"32 572 OFFCURVE",
"32 346 CURVE SMOOTH",
"32 114 OFFCURVE",
"139 -10 OFFCURVE",
"342 -10 CURVE SMOOTH"
);
}
);
};
layerId = "D04D9183-DC56-493B-9946-C87D971E5D7D";
paths = (
{
closed = 1;
nodes = (
"439 -10 OFFCURVE",
"534 24 OFFCURVE",
"598 54 CURVE",
"571 143 LINE",
"550 135 OFFCURVE",
"463 97 OFFCURVE",
"377 97 CURVE SMOOTH",
"244 97 OFFCURVE",
"170 188 OFFCURVE",
"170 389 CURVE SMOOTH",
"170 540 OFFCURVE",
"212 626 OFFCURVE",
"345 626 CURVE SMOOTH",
"402 626 OFFCURVE",
"448 610 OFFCURVE",
"471 598 CURVE",
"492 486 LINE",
"582 486 LINE",
"598 672 LINE",
"561 693 OFFCURVE",
"483 730 OFFCURVE",
"378 730 CURVE SMOOTH",
"164 730 OFFCURVE",
"32 577 OFFCURVE",
"32 337 CURVE SMOOTH",
"32 121 OFFCURVE",
"139 -10 OFFCURVE",
"338 -10 CURVE SMOOTH"
);
}
);
width = 626;
}
);
leftKerningGroup = O.left;
unicode = 0043;
},
{
glyphname = D;
lastChange = "2017-03-02 16:33:24 +0000";
layers = (
{
anchors = (
{
name = bottom;
position = "{340, 0}";
},
{
name = center;
position = "{392, 360}";
},
{
name = top;
position = "{340, 690}";
}
);
background = {
anchors = (
{
name = bottom;
position = "{340, 0}";
},
{
name = center;
position = "{392, 360}";
},
{
name = top;
position = "{340, 690}";
}
);
paths = (
{
closed = 1;
nodes = (
"1328 0 LINE SMOOTH",
"1538 0 OFFCURVE",
"1639 150 OFFCURVE",
"1639 381 CURVE SMOOTH",
"1639 614 OFFCURVE",
"1535 720 OFFCURVE",
"1328 720 CURVE SMOOTH",
"1035 720 LINE",
"1035 664 LINE",
"1085 658 LINE SMOOTH",
"1109 655 OFFCURVE",
"1114 645 OFFCURVE",
"1114 618 CURVE SMOOTH",
"1114 105 LINE SMOOTH",
"1114 78 OFFCURVE",
"1109 69 OFFCURVE",
"1085 65 CURVE SMOOTH",
"1035 56 LINE",
"1035 0 LINE"
);
},
{
closed = 1;
nodes = (
"1196 676 LINE",
"1171 651 LINE",
"1314 651 LINE SMOOTH",
"1477 651 OFFCURVE",
"1549 573 OFFCURVE",
"1549 366 CURVE SMOOTH",
"1549 156 OFFCURVE",
"1479 69 OFFCURVE",
"1314 69 CURVE SMOOTH",
"1171 69 LINE",
"1196 44 LINE"
);
},
{
closed = 1;
nodes = (
"557 -10 OFFCURVE",
"657 153 OFFCURVE",
"657 375 CURVE SMOOTH",
"657 590 OFFCURVE",
"562 730 OFFCURVE",
"357 730 CURVE SMOOTH",
"135 730 OFFCURVE",
"35 567 OFFCURVE",
"35 345 CURVE SMOOTH",
"35 130 OFFCURVE",
"130 -10 OFFCURVE",
"335 -10 CURVE SMOOTH"
);
},
{
closed = 1;
nodes = (
"214 62 OFFCURVE",
"127 154 OFFCURVE",
"127 381 CURVE SMOOTH",
"127 557 OFFCURVE",
"179 658 OFFCURVE",
"332 658 CURVE SMOOTH",
"478 658 OFFCURVE",
"565 566 OFFCURVE",
"565 339 CURVE SMOOTH",
"565 163 OFFCURVE",
"513 62 OFFCURVE",
"360 62 CURVE SMOOTH"
);
}
);
};
layerId = "93B1D13A-641C-48C6-9569-DADD26056F4A";
paths = (
{
closed = 1;
nodes = (
"346 0 LINE SMOOTH",
"556 0 OFFCURVE",
"657 150 OFFCURVE",
"657 381 CURVE SMOOTH",
"657 614 OFFCURVE",
"553 720 OFFCURVE",
"346 720 CURVE SMOOTH",
"53 720 LINE",
"53 664 LINE",
"103 658 LINE SMOOTH",
"127 655 OFFCURVE",
"132 645 OFFCURVE",
"132 618 CURVE SMOOTH",
"132 105 LINE SMOOTH",
"132 78 OFFCURVE",
"127 69 OFFCURVE",
"103 65 CURVE SMOOTH",
"53 56 LINE",
"53 0 LINE"
);
},
{
closed = 1;
nodes = (
"214 676 LINE",
"189 651 LINE",
"332 651 LINE SMOOTH",
"492 651 OFFCURVE",
"565 563 OFFCURVE",
"565 356 CURVE SMOOTH",
"565 156 OFFCURVE",
"497 69 OFFCURVE",
"332 69 CURVE SMOOTH",
"189 69 LINE",
"214 44 LINE"
);
}
);
width = 702;
},
{
anchors = (
{
name = bottom;
position = "{349, 0}";
},
{
name = center;
position = "{391, 360}";
},
{
name = top;
position = "{349, 690}";
}
);
background = {
paths = (
{
closed = 1;
nodes = (
"546 -10 OFFCURVE",
"674 149 OFFCURVE",
"676 381 CURVE SMOOTH",
"678 591 OFFCURVE",
"577 730 OFFCURVE",
"364 730 CURVE SMOOTH",
"141 730 OFFCURVE",
"11 579 OFFCURVE",
"11 339 CURVE SMOOTH",
"11 129 OFFCURVE",
"110 -10 OFFCURVE",
"323 -10 CURVE SMOOTH"
);
},
{
closed = 1;
nodes = (
"234 94 OFFCURVE",
"149 176 OFFCURVE",
"149 381 CURVE SMOOTH",
"149 557 OFFCURVE",
"208 626 OFFCURVE",
"328 626 CURVE SMOOTH",
"453 626 OFFCURVE",
"538 544 OFFCURVE",
"538 339 CURVE SMOOTH",
"538 164 OFFCURVE",
"479 94 OFFCURVE",
"359 94 CURVE SMOOTH"
);
},
{
closed = 1;
nodes = (
"1041 0 LINE SMOOTH",
"1257 0 OFFCURVE",
"1366 160 OFFCURVE",
"1366 383 CURVE SMOOTH",
"1366 605 OFFCURVE",
"1268 720 OFFCURVE",
"1041 720 CURVE SMOOTH",
"735 720 LINE",
"735 640 LINE",
"775 632 LINE SMOOTH",
"799 627 OFFCURVE",
"804 619 OFFCURVE",
"804 592 CURVE SMOOTH",
"804 131 LINE SMOOTH",
"804 104 OFFCURVE",
"799 98 OFFCURVE",
"775 91 CURVE SMOOTH",
"735 80 LINE",
"735 0 LINE"
);
},
{
closed = 1;
nodes = (
"931 645 LINE",
"906 620 LINE",
"1031 620 LINE SMOOTH",
"1170 620 OFFCURVE",
"1228 552 OFFCURVE",
"1228 368 CURVE SMOOTH",
"1228 183 OFFCURVE",
"1167 100 OFFCURVE",
"1031 100 CURVE SMOOTH",
"906 100 LINE",
"931 75 LINE"
);
}
);
};
layerId = "D04D9183-DC56-493B-9946-C87D971E5D7D";
paths = (
{
closed = 1;
nodes = (
"352 0 LINE SMOOTH",
"562 0 OFFCURVE",
"677 163 OFFCURVE",
"677 383 CURVE SMOOTH",
"677 605 OFFCURVE",
"579 720 OFFCURVE",
"352 720 CURVE SMOOTH",
"46 720 LINE",
"46 640 LINE",
"86 632 LINE SMOOTH",
"110 627 OFFCURVE",
"115 619 OFFCURVE",
"115 592 CURVE SMOOTH",
"115 131 LINE SMOOTH",
"115 104 OFFCURVE",
"110 98 OFFCURVE",
"86 91 CURVE SMOOTH",
"46 80 LINE",
"46 0 LINE"
);
},
{
closed = 1;
nodes = (
"242 645 LINE",
"217 620 LINE",
"342 620 LINE SMOOTH",
"476 620 OFFCURVE",
"539 542 OFFCURVE",
"539 358 CURVE SMOOTH",
"539 168 OFFCURVE",
"478 100 OFFCURVE",
"342 100 CURVE SMOOTH",
"217 100 LINE",
"242 75 LINE"
);
}
);
width = 710;
}
);
leftKerningGroup = H.left;
rightKerningGroup = O.right;
unicode = 0044;
},
{
glyphname = Eth;
lastChange = "2017-03-02 16:42:19 +0000";
layers = (
{
background = {
paths = (
{
closed = 1;
nodes = (
"409 320 LINE",
"409 390 LINE",
"68 390 LINE",
"68 320 LINE"
);
}
);
};
components = (
{
name = D;
}
);
layerId = "93B1D13A-641C-48C6-9569-DADD26056F4A";
paths = (
{
closed = 1;
nodes = (
"398 341 LINE",
"398 401 LINE",
"68 401 LINE",
"68 341 LINE"
);
}
);
width = 708;
},
{
background = {
paths = (
{
closed = 1;
nodes = (
"419 309 LINE",
"419 407 LINE",
"50 407 LINE",
"50 309 LINE"
);
}
);
};
components = (
{
name = D;
}
);
layerId = "D04D9183-DC56-493B-9946-C87D971E5D7D";
paths = (
{
closed = 1;
nodes = (
"396 330 LINE",
"396 410 LINE",
"52 410 LINE",
"52 330 LINE"
);
}
);
width = 718;
}
);
leftKerningGroup = H.left;
rightKerningGroup = O.right;
unicode = 00D0;
},
{
glyphname = Dcroat;
lastChange = "2017-03-02 16:42:19 +0000";
layers = (
{
background = {
paths = (
{
closed = 1;
nodes = (
"400 337 LINE",
"400 405 LINE",
"68 405 LINE",
"68 337 LINE"
);
}
);
};
components = (
{
name = D;
}
);
layerId = "93B1D13A-641C-48C6-9569-DADD26056F4A";
paths = (
{
closed = 1;
nodes = (
"398 341 LINE",
"398 401 LINE",
"68 401 LINE",
"68 341 LINE"
);
}
);
width = 708;
},
{
background = {
paths = (
{
closed = 1;
nodes = (
"419 320 LINE",
"419 420 LINE",
"52 420 LINE",
"52 320 LINE"
);
}
);
};
components = (
{
name = D;
}
);
layerId = "D04D9183-DC56-493B-9946-C87D971E5D7D";
paths = (
{
closed = 1;
nodes = (
"396 330 LINE",
"396 410 LINE",
"52 410 LINE",
"52 330 LINE"
);
}
);
width = 727;
}
);
leftKerningGroup = H.left;
rightKerningGroup = O.right;
unicode = 0110;
},
{
glyphname = E;
lastChange = "2017-03-02 16:33:24 +0000";
layers = (
{
anchors = (
{
name = bottom;
position = "{320, 0}";
},
{
name = ogonek;
position = "{557, 10}";
},
{
name = top;
position = "{320, 690}";
},
{
name = topleft;
position = "{42, 720}";
}
);
background = {
anchors = (
{
name = bottom;
position = "{320, 0}";
},
{
name = ogonek;
position = "{557, 10}";
},
{
name = top;
position = "{320, 690}";
},
{
name = topleft;
position = "{42, 720}";
}
);
paths = (
{
closed = 1;
nodes = (
"576 0 LINE",
"570 177 LINE",
"503 177 LINE",
"497 102 LINE SMOOTH",
"496 78 OFFCURVE",
"484 73 OFFCURVE",
"459 73 CURVE SMOOTH",
"201 73 LINE",
"226 48 LINE",
"226 672 LINE",
"201 647 LINE",
"458 647 LINE SMOOTH",
"483 647 OFFCURVE",
"495 642 OFFCURVE",
"496 618 CURVE",
"502 548 LINE",
"566 548 LINE",
"572 720 LINE",
"58 720 LINE",
"58 664 LINE",
"111 658 LINE SMOOTH",
"135 655 OFFCURVE",
"140 645 OFFCURVE",
"140 618 CURVE SMOOTH",
"140 107 LINE SMOOTH",
"140 80 OFFCURVE",
"135 73 OFFCURVE",
"111 69 CURVE SMOOTH",
"58 60 LINE",
"58 0 LINE"
);
},
{
closed = 1;
nodes = (
"460 339 LINE",
"460 412 LINE",
"210 412 LINE",
"210 339 LINE"
);
}
);
};
layerId = "93B1D13A-641C-48C6-9569-DADD26056F4A";
paths = (
{
closed = 1;
nodes = (
"567 0 LINE",
"561 174 LINE",
"499 174 LINE",
"493 98 LINE SMOOTH",
"491 74 OFFCURVE",
"480 69 OFFCURVE",
"455 69 CURVE SMOOTH",
"189 69 LINE",
"214 44 LINE",
"214 676 LINE",
"189 651 LINE",
"451 651 LINE SMOOTH",
"476 651 OFFCURVE",
"488 646 OFFCURVE",
"489 622 CURVE",
"495 550 LINE",
"557 550 LINE",
"563 720 LINE",
"53 720 LINE",
"53 663 LINE",
"103 657 LINE SMOOTH",
"127 654 OFFCURVE",
"132 644 OFFCURVE",
"132 617 CURVE SMOOTH",
"132 104 LINE SMOOTH",
"132 77 OFFCURVE",
"127 70 OFFCURVE",
"103 66 CURVE SMOOTH",
"53 57 LINE",
"53 0 LINE"
);
},
{
closed = 1;
nodes = (
"453 343 LINE",
"453 409 LINE",
"198 409 LINE",
"198 343 LINE"
);
}
);
width = 608;
},
{
anchors = (
{
name = bottom;
position = "{321, 0}";
},
{
name = ogonek;
position = "{562, 10}";
},
{
name = top;
position = "{320, 690}";
},
{
name = topleft;
position = "{25, 720}";
}
);
background = {
paths = (
{
closed = 1;
nodes = (
"577 0 LINE",
"570 203 LINE",
"483 203 LINE",
"476 129 LINE SMOOTH",
"474 105 OFFCURVE",
"463 100 OFFCURVE",
"438 100 CURVE SMOOTH",
"225 100 LINE",
"250 75 LINE",
"250 645 LINE",
"225 620 LINE",
"437 620 LINE SMOOTH",
"462 620 OFFCURVE",
"473 615 OFFCURVE",
"475 591 CURVE SMOOTH",
"482 522 LINE",
"566 522 LINE",
"573 720 LINE",
"44 720 LINE",
"44 644 LINE",
"95 638 LINE SMOOTH",
"119 635 OFFCURVE",
"124 625 OFFCURVE",
"124 598 CURVE SMOOTH",
"124 127 LINE SMOOTH",
"124 102 OFFCURVE",
"119 93 OFFCURVE",
"95 89 CURVE SMOOTH",
"44 80 LINE",
"44 0 LINE"
);
},
{
closed = 1;
nodes = (
"461 322 LINE",
"461 422 LINE",
"234 422 LINE",
"234 322 LINE"
);
}
);
};
layerId = "D04D9183-DC56-493B-9946-C87D971E5D7D";
paths = (
{
closed = 1;
nodes = (
"572 0 LINE",
"565 201 LINE",
"478 201 LINE",
"471 127 LINE SMOOTH",
"469 103 OFFCURVE",
"458 98 OFFCURVE",
"433 98 CURVE SMOOTH",
"217 98 LINE",
"242 73 LINE",
"242 647 LINE",
"217 622 LINE",
"432 622 LINE SMOOTH",
"457 622 OFFCURVE",
"468 617 OFFCURVE",
"470 593 CURVE SMOOTH",
"477 524 LINE",
"561 524 LINE",
"568 720 LINE",
"46 720 LINE",
"46 640 LINE",
"86 634 LINE SMOOTH",
"110 630 OFFCURVE",
"115 621 OFFCURVE",
"115 594 CURVE SMOOTH",
"115 127 LINE SMOOTH",
"115 102 OFFCURVE",
"110 94 OFFCURVE",
"86 89 CURVE SMOOTH",
"46 80 LINE",
"46 0 LINE"
);
},
{
closed = 1;
nodes = (
"458 323 LINE",
"458 421 LINE",
"226 421 LINE",
"226 323 LINE"
);
}
);
width = 612;
}
);
leftKerningGroup = H.left;
unicode = 0045;
},
{
color = 4;
glyphname = F;
lastChange = "2017-03-02 16:33:24 +0000";
layers = (
{
anchors = (
{
name = bottom;
position = "{184, 0}";
},
{
name = top;
position = "{316, 690}";
}
);
background = {
anchors = (
{
name = bottom;
position = "{184, 0}";
},
{
name = top;
position = "{316, 690}";
}
);
paths = (
{
closed = 1;
nodes = (
"327 0 LINE",
"327 60 LINE",
"256 68 LINE SMOOTH",
"232 71 OFFCURVE",
"226 79 OFFCURVE",
"226 106 CURVE SMOOTH",
"226 672 LINE",
"201 647 LINE",
"448 647 LINE SMOOTH",
"473 647 OFFCURVE",
"485 642 OFFCURVE",
"486 618 CURVE SMOOTH",
"492 548 LINE",
"556 548 LINE",
"562 720 LINE",
"58 720 LINE",
"58 664 LINE",
"111 658 LINE SMOOTH",
"134 655 OFFCURVE",
"140 646 OFFCURVE",
"140 622 CURVE SMOOTH",
"140 106 LINE SMOOTH",
"140 79 OFFCURVE",
"135 72 OFFCURVE",
"111 68 CURVE SMOOTH",
"58 59 LINE",
"58 0 LINE"
);
},
{
closed = 1;
nodes = (
"440 333 LINE",
"440 406 LINE",
"210 406 LINE",
"210 333 LINE"
);
}
);
};
layerId = "93B1D13A-641C-48C6-9569-DADD26056F4A";
paths = (
{
closed = 1;
nodes = (
"315 0 LINE",
"315 56 LINE",
"244 64 LINE SMOOTH",
"220 67 OFFCURVE",
"214 75 OFFCURVE",
"214 102 CURVE SMOOTH",
"214 676 LINE",
"189 651 LINE",
"435 651 LINE SMOOTH",
"460 651 OFFCURVE",
"471 646 OFFCURVE",
"473 622 CURVE SMOOTH",
"479 549 LINE",
"541 549 LINE",
"547 720 LINE",
"53 720 LINE",
"53 664 LINE",
"103 658 LINE SMOOTH",
"126 655 OFFCURVE",
"132 646 OFFCURVE",
"132 622 CURVE SMOOTH",
"132 103 LINE SMOOTH",
"132 76 OFFCURVE",
"127 69 OFFCURVE",
"103 65 CURVE SMOOTH",
"53 56 LINE",
"53 0 LINE"
);
},
{
closed = 1;
nodes = (
"431 336 LINE",
"431 402 LINE",
"199 402 LINE",
"199 336 LINE"
);
}
);
width = 550;
},
{
anchors = (
{
name = bottom;
position = "{189, 0}";
},
{
name = top;
position = "{309, 690}";
}
);
background = {
paths = (
{
closed = 1;
nodes = (
"338 0 LINE",
"338 80 LINE",
"272 90 LINE SMOOTH",
"248 94 OFFCURVE",
"242 101 OFFCURVE",
"242 128 CURVE SMOOTH",
"242 667 LINE",
"197 622 LINE",
"420 622 LINE SMOOTH",
"445 622 OFFCURVE",
"455 617 OFFCURVE",
"458 593 CURVE SMOOTH",
"465 527 LINE",
"549 527 LINE",
"556 720 LINE",
"46 720 LINE",
"46 638 LINE",
"86 632 LINE SMOOTH",
"109 629 OFFCURVE",
"115 620 OFFCURVE",
"115 596 CURVE SMOOTH",
"115 129 LINE SMOOTH",
"115 104 OFFCURVE",
"110 96 OFFCURVE",
"86 91 CURVE SMOOTH",
"46 82 LINE",
"46 0 LINE"
);
},
{
closed = 1;
nodes = (
"432 315 LINE",
"432 415 LINE",
"226 415 LINE",
"226 315 LINE"
);
}
);
};
layerId = "D04D9183-DC56-493B-9946-C87D971E5D7D";
paths = (
{
closed = 1;
nodes = (
"338 0 LINE",
"338 80 LINE",
"272 90 LINE SMOOTH",
"248 94 OFFCURVE",
"242 101 OFFCURVE",
"242 128 CURVE SMOOTH",
"242 667 LINE",
"197 622 LINE",
"420 622 LINE SMOOTH",
"445 622 OFFCURVE",
"455 617 OFFCURVE",
"458 593 CURVE SMOOTH",
"465 527 LINE",
"549 527 LINE",
"556 720 LINE",
"46 720 LINE",
"46 640 LINE",
"86 632 LINE SMOOTH",
"109 627 OFFCURVE",
"115 620 OFFCURVE",
"115 596 CURVE SMOOTH",
"115 129 LINE SMOOTH",
"115 104 OFFCURVE",
"110 98 OFFCURVE",
"86 91 CURVE SMOOTH",
"46 80 LINE",
"46 0 LINE"
);
},
{
closed = 1;
nodes = (
"432 315 LINE",
"432 415 LINE",
"226 415 LINE",
"226 315 LINE"
);
}
);
width = 554;
}
);
leftKerningGroup = H.left;
unicode = 0046;
},
{
glyphname = G;
lastChange = "2017-03-02 02:13:13 +0000";
layers = (
{
anchors = (
{
name = bottom;
position = "{348, 0}";
},
{
name = top;
position = "{361, 690}";
}
);
background = {
anchors = (
{
name = bottom;
position = "{348, 0}";
},
{
name = top;
position = "{343, 690}";
}
);
paths = (
{
closed = 1;
nodes = (
"408 -10 OFFCURVE",
"498 9 OFFCURVE",
"589 51 CURVE",
"589 230 LINE SMOOTH",
"589 257 OFFCURVE",
"593 263 OFFCURVE",
"617 268 CURVE SMOOTH",
"649 275 LINE",
"648 329 LINE",
"414 329 LINE",
"414 275 LINE",
"482 266 LINE SMOOTH",
"506 263 OFFCURVE",
"511 253 OFFCURVE",
"511 228 CURVE SMOOTH",
"511 42 LINE",
"542 103 LINE",
"477 76 OFFCURVE",
"409 64 OFFCURVE",
"359 64 CURVE SMOOTH",
"219 64 OFFCURVE",
"135 169 OFFCURVE",
"135 369 CURVE SMOOTH",
"135 564 OFFCURVE",
"188 658 OFFCURVE",
"346 658 CURVE SMOOTH",
"421 658 OFFCURVE",
"477 637 OFFCURVE",
"504 626 CURVE",
"523 510 LINE",
"585 510 LINE",
"601 671 LINE",
"557 696 OFFCURVE",
"478 730 OFFCURVE",
"368 730 CURVE SMOOTH",
"161 730 OFFCURVE",
"45 582 OFFCURVE",
"45 350 CURVE SMOOTH",
"45 119 OFFCURVE",
"148 -10 OFFCURVE",
"338 -10 CURVE SMOOTH"
);
}
);
};
layerId = "93B1D13A-641C-48C6-9569-DADD26056F4A";
paths = (
{
closed = 1;
nodes = (
"409 -10 OFFCURVE",
"498 9 OFFCURVE",
"589 51 CURVE",
"589 230 LINE SMOOTH",
"589 257 OFFCURVE",
"593 263 OFFCURVE",
"617 268 CURVE SMOOTH",
"649 275 LINE",
"648 329 LINE",
"414 329 LINE",
"414 275 LINE",
"482 266 LINE SMOOTH",
"506 263 OFFCURVE",
"511 253 OFFCURVE",
"511 228 CURVE SMOOTH",
"511 42 LINE",
"542 103 LINE",
"477 76 OFFCURVE",
"409 64 OFFCURVE",
"359 64 CURVE SMOOTH",
"219 64 OFFCURVE",
"135 162 OFFCURVE",
"135 382 CURVE SMOOTH",
"135 564 OFFCURVE",
"192 658 OFFCURVE",
"347 658 CURVE SMOOTH",
"420 658 OFFCURVE",
"477 637 OFFCURVE",
"504 626 CURVE",
"523 510 LINE",
"585 510 LINE",
"601 671 LINE",
"556 697 OFFCURVE",
"473 730 OFFCURVE",
"372 730 CURVE SMOOTH",
"158 730 OFFCURVE",
"45 583 OFFCURVE",
"45 347 CURVE SMOOTH",
"45 121 OFFCURVE",
"148 -10 OFFCURVE",
"337 -10 CURVE SMOOTH"
);
}
);
width = 679;
},
{
anchors = (
{
name = bottom;
position = "{350, 0}";
},
{
name = top;
position = "{347, 690}";
}
);
background = {
paths = (
{
closed = 1;
nodes = (
"453 -10 OFFCURVE",
"546 23 OFFCURVE",
"609 53 CURVE",
"609 212 LINE SMOOTH",
"609 240 OFFCURVE",
"615 246 OFFCURVE",
"636 250 CURVE SMOOTH",
"663 255 LINE",
"663 337 LINE",
"399 337 LINE",
"399 256 LINE",
"458 247 LINE SMOOTH",
"482 243 OFFCURVE",
"487 234 OFFCURVE",
"487 209 CURVE SMOOTH",
"487 71 LINE",
"525 129 LINE",
"484 110 OFFCURVE",
"446 96 OFFCURVE",
"373 96 CURVE SMOOTH",
"240 96 OFFCURVE",
"170 192 OFFCURVE",
"170 366 CURVE SMOOTH",
"170 543 OFFCURVE",
"210 626 OFFCURVE",
"345 626 CURVE SMOOTH",
"413 626 OFFCURVE",
"459 612 OFFCURVE",
"495 595 CURVE",
"512 492 LINE",
"602 492 LINE",
"618 669 LINE",
"575 693 OFFCURVE",
"491 730 OFFCURVE",
"377 730 CURVE SMOOTH",
"163 730 OFFCURVE",
"32 572 OFFCURVE",
"32 346 CURVE SMOOTH",
"32 114 OFFCURVE",
"133 -10 OFFCURVE",
"353 -10 CURVE SMOOTH"
);
}
);
};
layerId = "D04D9183-DC56-493B-9946-C87D971E5D7D";
paths = (
{
closed = 1;
nodes = (
"455 -10 OFFCURVE",
"543 22 OFFCURVE",
"609 53 CURVE",
"609 212 LINE SMOOTH",
"609 240 OFFCURVE",
"615 245 OFFCURVE",
"636 250 CURVE SMOOTH",
"663 257 LINE",
"663 337 LINE",
"399 337 LINE",
"399 257 LINE",
"458 247 LINE SMOOTH",
"482 243 OFFCURVE",
"487 234 OFFCURVE",
"487 209 CURVE SMOOTH",
"487 71 LINE",
"525 129 LINE",
"485 110 OFFCURVE",
"440 96 OFFCURVE",
"382 96 CURVE SMOOTH",
"230 96 OFFCURVE",
"170 192 OFFCURVE",
"170 381 CURVE SMOOTH",
"170 557 OFFCURVE",
"222 626 OFFCURVE",
"351 626 CURVE SMOOTH",
"411 626 OFFCURVE",
"462 611 OFFCURVE",
"495 595 CURVE",
"512 492 LINE",
"602 492 LINE",
"618 669 LINE",
"575 693 OFFCURVE",
"489 730 OFFCURVE",
"381 730 CURVE SMOOTH",
"163 730 OFFCURVE",
"32 579 OFFCURVE",
"32 336 CURVE SMOOTH",
"32 122 OFFCURVE",
"133 -10 OFFCURVE",
"349 -10 CURVE SMOOTH"
);
}
);
width = 693;
}
);
leftKerningGroup = O.left;
rightKerningGroup = G.right;
unicode = 0047;
},
{
glyphname = H;
lastChange = "2017-03-02 16:46:03 +0000";
layers = (
{
anchors = (
{
name = bottom;
position = "{363, 0}";
},
{
name = center;
position = "{363, 360}";
},
{
name = top;
position = "{365, 690}";
},
{
name = topleft;
position = "{16, 720}";
}
);
background = {
anchors = (
{
name = bottom;
position = "{363, 0}";
},
{
name = center;
position = "{363, 360}";
},
{
name = top;
position = "{363, 690}";
},
{
name = topleft;
position = "{16, 720}";
}
);
paths = (
{
closed = 1;
nodes = (
"275 0 LINE",
"275 56 LINE",
"220 65 LINE SMOOTH",
"196 69 OFFCURVE",
"191 76 OFFCURVE",
"191 103 CURVE SMOOTH",
"191 617 LINE SMOOTH",
"191 644 OFFCURVE",
"196 651 OFFCURVE",
"220 655 CURVE SMOOTH",
"275 664 LINE",
"275 720 LINE",
"30 720 LINE",
"30 664 LINE",
"80 655 LINE SMOOTH",
"104 651 OFFCURVE",
"109 644 OFFCURVE",
"109 617 CURVE SMOOTH",
"109 103 LINE SMOOTH",
"109 76 OFFCURVE",
"104 69 OFFCURVE",
"80 65 CURVE SMOOTH",
"30 56 LINE",
"30 0 LINE"
);
},
{
closed = 1;
nodes = (
"696 0 LINE",
"696 56 LINE",
"646 65 LINE SMOOTH",
"622 69 OFFCURVE",
"617 76 OFFCURVE",
"617 103 CURVE SMOOTH",
"617 617 LINE SMOOTH",
"617 644 OFFCURVE",
"622 651 OFFCURVE",
"646 655 CURVE SMOOTH",
"696 664 LINE",
"696 720 LINE",
"451 720 LINE",
"451 664 LINE",
"506 655 LINE SMOOTH",
"530 651 OFFCURVE",
"535 644 OFFCURVE",
"535 617 CURVE SMOOTH",
"535 103 LINE SMOOTH",
"535 76 OFFCURVE",
"530 69 OFFCURVE",
"506 65 CURVE SMOOTH",
"451 56 LINE",
"451 0 LINE"
);
},
{
closed = 1;
nodes = (
"552 344 LINE",
"552 410 LINE",
"174 410 LINE",
"174 344 LINE"
);
}
);
};
layerId = "93B1D13A-641C-48C6-9569-DADD26056F4A";
paths = (
{
closed = 1;
nodes = (
"275 0 LINE",
"275 56 LINE",
"220 65 LINE SMOOTH",
"196 69 OFFCURVE",
"191 76 OFFCURVE",
"191 103 CURVE SMOOTH",
"191 617 LINE SMOOTH",
"191 644 OFFCURVE",
"196 651 OFFCURVE",
"220 655 CURVE SMOOTH",
"275 664 LINE",
"275 720 LINE",
"30 720 LINE",
"30 664 LINE",
"80 655 LINE SMOOTH",
"104 651 OFFCURVE",
"109 644 OFFCURVE",
"109 617 CURVE SMOOTH",
"109 103 LINE SMOOTH",
"109 76 OFFCURVE",
"104 69 OFFCURVE",
"80 65 CURVE SMOOTH",
"30 56 LINE",
"30 0 LINE"
);
},
{
closed = 1;
nodes = (
"696 0 LINE",
"696 56 LINE",
"646 65 LINE SMOOTH",
"622 69 OFFCURVE",
"617 76 OFFCURVE",
"617 103 CURVE SMOOTH",
"617 617 LINE SMOOTH",
"617 644 OFFCURVE",
"622 651 OFFCURVE",
"646 655 CURVE SMOOTH",
"696 664 LINE",
"696 720 LINE",
"451 720 LINE",
"451 664 LINE",
"506 655 LINE SMOOTH",
"530 651 OFFCURVE",
"535 644 OFFCURVE",
"535 617 CURVE SMOOTH",
"535 103 LINE SMOOTH",
"535 76 OFFCURVE",
"530 69 OFFCURVE",
"506 65 CURVE SMOOTH",
"451 56 LINE",
"451 0 LINE"
);
},
{
closed = 1;
nodes = (
"552 344 LINE",
"552 410 LINE",
"174 410 LINE",
"174 344 LINE"
);
}
);
width = 736;
},
{
anchors = (
{
name = bottom;
position = "{388, 0}";
},
{
name = center;
position = "{388, 360}";
},
{
name = top;
position = "{388, 690}";
},
{
name = topleft;
position = "{36, 720}";
}
);
background = {
paths = (
{
closed = 1;
nodes = (
"316 0 LINE",
"316 82 LINE",
"271 91 LINE SMOOTH",
"247 96 OFFCURVE",
"242 102 OFFCURVE",
"242 129 CURVE SMOOTH",
"242 591 LINE SMOOTH",
"242 618 OFFCURVE",
"247 624 OFFCURVE",
"271 629 CURVE SMOOTH",
"316 638 LINE",
"316 720 LINE",
"46 720 LINE",
"46 638 LINE",
"86 629 LINE SMOOTH",
"110 624 OFFCURVE",
"115 616 OFFCURVE",
"115 591 CURVE SMOOTH",
"115 129 LINE SMOOTH",
"115 104 OFFCURVE",
"110 96 OFFCURVE",
"86 91 CURVE SMOOTH",
"46 82 LINE",
"46 0 LINE"
);
},
{
closed = 1;
nodes = (
"730 0 LINE",
"730 82 LINE",
"690 91 LINE SMOOTH",
"666 96 OFFCURVE",
"661 104 OFFCURVE",
"661 129 CURVE SMOOTH",
"661 591 LINE SMOOTH",
"661 616 OFFCURVE",
"666 624 OFFCURVE",
"690 629 CURVE SMOOTH",
"730 638 LINE",
"730 720 LINE",
"460 720 LINE",
"460 638 LINE",
"505 629 LINE SMOOTH",
"529 624 OFFCURVE",
"534 618 OFFCURVE",
"534 591 CURVE SMOOTH",
"534 129 LINE SMOOTH",
"534 102 OFFCURVE",
"529 96 OFFCURVE",
"505 91 CURVE SMOOTH",
"460 82 LINE",
"460 0 LINE"
);
},
{
closed = 1;
nodes = (
"551 326 LINE",
"551 426 LINE",
"225 426 LINE",
"225 326 LINE"
);
}
);
};
layerId = "D04D9183-DC56-493B-9946-C87D971E5D7D";
paths = (
{
closed = 1;
nodes = (
"316 0 LINE",
"316 80 LINE",
"271 91 LINE SMOOTH",
"247 97 OFFCURVE",
"242 102 OFFCURVE",
"242 129 CURVE SMOOTH",
"242 591 LINE SMOOTH",
"242 618 OFFCURVE",
"247 623 OFFCURVE",
"271 629 CURVE SMOOTH",
"316 640 LINE",
"316 720 LINE",
"46 720 LINE",
"46 640 LINE",
"86 629 LINE SMOOTH",
"110 622 OFFCURVE",
"115 616 OFFCURVE",
"115 591 CURVE SMOOTH",
"115 129 LINE SMOOTH",
"115 104 OFFCURVE",
"110 98 OFFCURVE",
"86 91 CURVE SMOOTH",
"46 80 LINE",
"46 0 LINE"
);
},
{
closed = 1;
nodes = (
"730 0 LINE",
"730 80 LINE",
"690 91 LINE SMOOTH",
"666 98 OFFCURVE",
"661 104 OFFCURVE",
"661 129 CURVE SMOOTH",
"661 591 LINE SMOOTH",
"661 616 OFFCURVE",
"666 622 OFFCURVE",
"690 629 CURVE SMOOTH",
"730 640 LINE",
"730 720 LINE",
"460 720 LINE",
"460 640 LINE",
"505 629 LINE SMOOTH",
"529 623 OFFCURVE",
"534 618 OFFCURVE",
"534 591 CURVE SMOOTH",
"534 129 LINE SMOOTH",
"534 102 OFFCURVE",
"529 97 OFFCURVE",
"505 91 CURVE SMOOTH",
"460 80 LINE",
"460 0 LINE"
);
},
{
closed = 1;
nodes = (
"551 326 LINE",
"551 426 LINE",
"225 426 LINE",
"225 326 LINE"
);
}
);
width = 776;
}
);
leftKerningGroup = H.left;
unicode = 0048;
},
{
glyphname = Hbar;
lastChange = "2017-03-02 16:42:19 +0000";
layers = (
{
background = {
components = (
{
name = H;
}
);
paths = (
{
closed = 1;
nodes = (
"64 480 LINE",
"132 480 LINE",
"132 574 LINE",
"64 574 LINE"
);
},
{
closed = 1;
nodes = (
"640 480 LINE",
"708 480 LINE",
"708 574 LINE",
"640 574 LINE"
);
}
);
};
components = (
{
name = H;
}
);
layerId = "93B1D13A-641C-48C6-9569-DADD26056F4A";
paths = (
{
closed = 1;
nodes = (
"58 500 LINE",
"714 500 LINE",
"714 558 LINE",
"58 558 LINE"
);
}
);
width = 754;
},
{
background = {
components = (
{
name = H;
transform = "{1, 0, 0, 1, 2, 0}";
}
);
paths = (
{
closed = 1;
nodes = (
"48 482 LINE",
"117 482 LINE",
"117 564 LINE",
"48 564 LINE"
);
},
{
closed = 1;
nodes = (
"663 482 LINE",
"732 482 LINE",
"732 564 LINE",
"663 564 LINE"
);
}
);
};
components = (
{
name = H;
transform = "{1, 0, 0, 1, 2, 0}";
}
);
layerId = "D04D9183-DC56-493B-9946-C87D971E5D7D";
paths = (
{
closed = 1;
nodes = (
"46 489 LINE",
"734 489 LINE",
"734 559 LINE",
"46 559 LINE"
);
}
);
width = 780;
}
);
leftKerningGroup = H.left;
leftMetricsKey = H;
rightMetricsKey = H;
unicode = 0126;
},
{
glyphname = I;
lastChange = "2017-03-02 16:33:24 +0000";
layers = (
{
anchors = (
{
name = bottom;
position = "{174, 0}";
},
{
name = ogonek;
position = "{285, 10}";
},
{
name = top;
position = "{174, 690}";
},
{
name = topleft;
position = "{43, 720}";
}
);
background = {
anchors = (
{
name = bottom;
position = "{174, 0}";
},
{
name = ogonek;
position = "{285, 10}";
},
{
name = top;
position = "{174, 690}";
},
{
name = topleft;
position = "{43, 720}";
}
);
paths = (
{
closed = 1;
nodes = (
"304 0 LINE",
"304 59 LINE",
"251 68 LINE SMOOTH",
"227 72 OFFCURVE",
"222 79 OFFCURVE",
"222 106 CURVE SMOOTH",
"222 614 LINE SMOOTH",
"222 641 OFFCURVE",
"227 648 OFFCURVE",
"251 652 CURVE SMOOTH",
"304 661 LINE",
"304 720 LINE",
"54 720 LINE",
"54 661 LINE",
"107 652 LINE SMOOTH",
"131 648 OFFCURVE",
"136 641 OFFCURVE",
"136 614 CURVE SMOOTH",
"136 106 LINE SMOOTH",
"136 79 OFFCURVE",
"131 72 OFFCURVE",
"107 68 CURVE SMOOTH",
"54 59 LINE",
"54 0 LINE"
);
}
);
};
layerId = "93B1D13A-641C-48C6-9569-DADD26056F4A";
paths = (
{
closed = 1;
nodes = (
"295 0 LINE",
"295 56 LINE",
"244 65 LINE SMOOTH",
"220 69 OFFCURVE",
"215 76 OFFCURVE",
"215 103 CURVE SMOOTH",
"215 617 LINE SMOOTH",
"215 644 OFFCURVE",
"220 651 OFFCURVE",
"244 655 CURVE SMOOTH",
"295 664 LINE",
"295 720 LINE",
"53 720 LINE",
"53 664 LINE",
"104 655 LINE SMOOTH",
"128 651 OFFCURVE",
"133 644 OFFCURVE",
"133 617 CURVE SMOOTH",
"133 103 LINE SMOOTH",
"133 76 OFFCURVE",
"128 69 OFFCURVE",
"104 65 CURVE SMOOTH",
"53 56 LINE",
"53 0 LINE"
);
}
);
width = 348;
},
{
anchors = (
{
name = bottom;
position = "{180, 0}";
},
{
name = ogonek;
position = "{303, 10}";
},
{
name = top;
position = "{180, 690}";
},
{
name = topleft;
position = "{36, 720}";
}
);
background = {
paths = (
{
closed = 1;
nodes = (
"313 0 LINE",
"313 82 LINE",
"272 91 LINE SMOOTH",
"248 96 OFFCURVE",
"243 104 OFFCURVE",
"243 129 CURVE SMOOTH",
"243 591 LINE SMOOTH",
"243 616 OFFCURVE",
"248 624 OFFCURVE",
"272 629 CURVE SMOOTH",
"313 638 LINE",
"313 720 LINE",
"46 720 LINE",
"46 638 LINE",
"87 629 LINE SMOOTH",
"111 624 OFFCURVE",
"116 616 OFFCURVE",
"116 591 CURVE SMOOTH",
"116 129 LINE SMOOTH",
"116 104 OFFCURVE",
"111 96 OFFCURVE",
"87 91 CURVE SMOOTH",
"46 82 LINE",
"46 0 LINE"
);
}
);
};
layerId = "D04D9183-DC56-493B-9946-C87D971E5D7D";
paths = (
{
closed = 1;
nodes = (
"313 0 LINE",
"313 80 LINE",
"272 91 LINE SMOOTH",
"248 97 OFFCURVE",
"243 104 OFFCURVE",
"243 129 CURVE SMOOTH",
"243 591 LINE SMOOTH",
"243 616 OFFCURVE",
"248 623 OFFCURVE",
"272 629 CURVE SMOOTH",
"313 640 LINE",
"313 720 LINE",
"46 720 LINE",
"46 640 LINE",
"87 629 LINE SMOOTH",
"111 623 OFFCURVE",
"116 616 OFFCURVE",
"116 591 CURVE SMOOTH",
"116 129 LINE SMOOTH",
"116 104 OFFCURVE",
"111 97 OFFCURVE",
"87 91 CURVE SMOOTH",
"46 80 LINE",
"46 0 LINE"
);
}
);
width = 359;
}
);
leftKerningGroup = H.left;
unicode = 0049;
},
{
glyphname = J;
lastChange = "2017-02-22 22:33:55 +0000";
layers = (
{
anchors = (
{
name = bottom;
position = "{170, 0}";
},
{
name = top;
position = "{168, 690}";
}
);
background = {
anchors = (
{
name = bottom;
position = "{170, 0}";
},
{
name = top;
position = "{170, 690}";
}
);
paths = (
{
closed = 1;
nodes = (
"6 -155 LINE",
"185 -60 OFFCURVE",
"218 -24 OFFCURVE",
"218 148 CURVE SMOOTH",
"218 614 LINE SMOOTH",
"218 639 OFFCURVE",
"222 648 OFFCURVE",
"247 652 CURVE SMOOTH",
"300 661 LINE",
"300 720 LINE",
"50 720 LINE",
"50 661 LINE",
"103 652 LINE SMOOTH",
"128 648 OFFCURVE",
"132 639 OFFCURVE",
"132 614 CURVE SMOOTH",
"132 157 LINE SMOOTH",
"132 25 OFFCURVE",
"112 -9 OFFCURVE",
"-33 -99 CURVE"
);
}
);
};
layerId = "93B1D13A-641C-48C6-9569-DADD26056F4A";
paths = (
{
closed = 1;
nodes = (
"2 -155 LINE",
"178 -63 OFFCURVE",
"210 -25 OFFCURVE",
"210 148 CURVE SMOOTH",
"210 617 LINE SMOOTH",
"210 642 OFFCURVE",
"214 651 OFFCURVE",
"239 655 CURVE SMOOTH",
"289 664 LINE",
"289 720 LINE",
"49 720 LINE",
"49 664 LINE",
"99 655 LINE SMOOTH",
"124 651 OFFCURVE",
"128 642 OFFCURVE",
"128 617 CURVE SMOOTH",
"128 157 LINE SMOOTH",
"128 22 OFFCURVE",
"109 -15 OFFCURVE",
"-35 -102 CURVE"
);
}
);
width = 324;
},
{
anchors = (
{
name = bottom;
position = "{172, 0}";
},
{
name = top;
position = "{177, 690}";
}
);
background = {
paths = (
{
closed = 1;
nodes = (
"20 -156 LINE",
"199 -64 OFFCURVE",
"240 -33 OFFCURVE",
"240 148 CURVE SMOOTH",
"240 591 LINE SMOOTH",
"240 616 OFFCURVE",
"244 623 OFFCURVE",
"269 629 CURVE SMOOTH",
"309 638 LINE",
"309 720 LINE",
"44 720 LINE",
"44 638 LINE",
"84 629 LINE SMOOTH",
"109 623 OFFCURVE",
"113 616 OFFCURVE",
"113 591 CURVE SMOOTH",
"113 179 LINE SMOOTH",
"113 40 OFFCURVE",
"89 5 OFFCURVE",
"-40 -75 CURVE"
);
}
);
};
layerId = "D04D9183-DC56-493B-9946-C87D971E5D7D";
paths = (
{
closed = 1;
nodes = (
"20 -156 LINE",
"199 -64 OFFCURVE",
"240 -33 OFFCURVE",
"240 148 CURVE SMOOTH",
"240 591 LINE SMOOTH",
"240 616 OFFCURVE",
"244 622 OFFCURVE",
"269 629 CURVE SMOOTH",
"309 640 LINE",
"309 720 LINE",
"44 720 LINE",
"44 640 LINE",
"84 629 LINE SMOOTH",
"109 622 OFFCURVE",
"113 616 OFFCURVE",
"113 591 CURVE SMOOTH",
"113 179 LINE SMOOTH",
"113 40 OFFCURVE",
"89 5 OFFCURVE",
"-40 -75 CURVE"
);
}
);
width = 339;
}
);
rightKerningGroup = J.right;
unicode = 004A;
},
{
glyphname = K;
lastChange = "2017-03-02 16:33:24 +0000";
layers = (
{
anchors = (
{
name = bottom;
position = "{372, 0}";
},
{
name = top;
position = "{358, 690}";
}
);
background = {
anchors = (
{
name = bottom;
position = "{372, 0}";
},
{
name = top;
position = "{358, 690}";
}
);
paths = (
{
closed = 1;
nodes = (
"312 0 LINE",
"312 59 LINE",
"255 68 LINE SMOOTH",
"231 72 OFFCURVE",
"226 79 OFFCURVE",
"226 106 CURVE SMOOTH",
"226 614 LINE SMOOTH",
"226 641 OFFCURVE",
"231 648 OFFCURVE",
"255 652 CURVE SMOOTH",
"312 661 LINE",
"312 720 LINE",
"58 720 LINE",
"58 661 LINE",
"111 652 LINE SMOOTH",
"135 648 OFFCURVE",
"140 641 OFFCURVE",
"140 614 CURVE SMOOTH",
"140 106 LINE SMOOTH",
"140 79 OFFCURVE",
"135 72 OFFCURVE",
"111 68 CURVE SMOOTH",
"58 59 LINE",
"58 0 LINE"
);
},
{
closed = 1;
nodes = (
"615 -10 OFFCURVE",
"645 1 OFFCURVE",
"656 8 CURVE",
"661 67 LINE",
"647 62 OFFCURVE",
"630 60 OFFCURVE",
"616 60 CURVE SMOOTH",
"584 60 OFFCURVE",
"562 76 OFFCURVE",
"504 151 CURVE SMOOTH",
"298 418 LINE",
"298 371 LINE",
"526 617 LINE SMOOTH",
"558 652 OFFCURVE",
"579 658 OFFCURVE",
"623 658 CURVE",
"623 720 LINE",
"574 720 LINE SMOOTH",
"539 720 OFFCURVE",
"508 706 OFFCURVE",
"481 677 CURVE SMOOTH",
"216 392 LINE",
"438 88 LINE SMOOTH",
"476 36 OFFCURVE",
"517 -10 OFFCURVE",
"580 -10 CURVE SMOOTH"
);
}
);
};
layerId = "93B1D13A-641C-48C6-9569-DADD26056F4A";
paths = (
{
closed = 1;
nodes = (
"297 0 LINE",
"297 56 LINE",
"243 65 LINE SMOOTH",
"219 69 OFFCURVE",
"214 76 OFFCURVE",
"214 103 CURVE SMOOTH",
"214 617 LINE SMOOTH",
"214 644 OFFCURVE",
"219 651 OFFCURVE",
"243 655 CURVE SMOOTH",
"297 664 LINE",
"297 720 LINE",
"53 720 LINE",
"53 664 LINE",
"103 655 LINE SMOOTH",
"127 651 OFFCURVE",
"132 644 OFFCURVE",
"132 617 CURVE SMOOTH",
"132 103 LINE SMOOTH",
"132 76 OFFCURVE",
"127 69 OFFCURVE",
"103 65 CURVE SMOOTH",
"53 56 LINE",
"53 0 LINE"
);
},
{
closed = 1;
nodes = (
"607 -10 OFFCURVE",
"635 1 OFFCURVE",
"646 8 CURVE",
"651 67 LINE",
"637 62 OFFCURVE",
"620 60 OFFCURVE",
"606 60 CURVE SMOOTH",
"574 60 OFFCURVE",
"548 74 OFFCURVE",
"494 145 CURVE SMOOTH",
"288 414 LINE",
"288 375 LINE",
"516 619 LINE SMOOTH",
"548 653 OFFCURVE",
"570 658 OFFCURVE",
"613 658 CURVE",
"613 720 LINE",
"574 720 LINE SMOOTH",
"535 720 OFFCURVE",
"500 708 OFFCURVE",
"471 677 CURVE SMOOTH",
"206 392 LINE",
"432 88 LINE SMOOTH",
"473 33 OFFCURVE",
"511 -10 OFFCURVE",
"571 -10 CURVE SMOOTH"
);
}
);
width = 636;
},
{
anchors = (
{
name = bottom;
position = "{396, 0}";
},
{
name = top;
position = "{387, 690}";
}
);
background = {
paths = (
{
closed = 1;
nodes = (
"321 0 LINE",
"321 81 LINE",
"270 90 LINE SMOOTH",
"246 94 OFFCURVE",
"241 101 OFFCURVE",
"241 128 CURVE SMOOTH",
"241 592 LINE SMOOTH",
"241 619 OFFCURVE",
"246 626 OFFCURVE",
"270 630 CURVE SMOOTH",
"321 639 LINE",
"321 720 LINE",
"46 720 LINE",
"46 638 LINE",
"86 629 LINE SMOOTH",
"110 624 OFFCURVE",
"115 616 OFFCURVE",
"115 591 CURVE SMOOTH",
"115 129 LINE SMOOTH",
"115 104 OFFCURVE",
"110 96 OFFCURVE",
"86 91 CURVE SMOOTH",
"46 82 LINE",
"46 0 LINE"
);
},
{
closed = 1;
nodes = (
"628 -10 OFFCURVE",
"657 -3 OFFCURVE",
"681 12 CURVE",
"689 104 LINE",
"674 97 OFFCURVE",
"658 94 OFFCURVE",
"641 94 CURVE SMOOTH",
"608 94 OFFCURVE",
"586 109 OFFCURVE",
"545 164 CURVE SMOOTH",
"340 440 LINE",
"340 360 LINE",
"551 599 LINE SMOOTH",
"576 627 OFFCURVE",
"598 630 OFFCURVE",
"643 630 CURVE",
"643 720 LINE",
"588 720 LINE SMOOTH",
"542 720 OFFCURVE",
"506 707 OFFCURVE",
"479 676 CURVE SMOOTH",
"229 389 LINE",
"436 97 LINE SMOOTH",
"487 25 OFFCURVE",
"530 -10 OFFCURVE",
"593 -10 CURVE SMOOTH"
);
}
);
};
layerId = "D04D9183-DC56-493B-9946-C87D971E5D7D";
paths = (
{
closed = 1;
nodes = (
"321 0 LINE",
"321 80 LINE",
"270 90 LINE SMOOTH",
"246 95 OFFCURVE",
"241 101 OFFCURVE",
"241 128 CURVE SMOOTH",
"241 592 LINE SMOOTH",
"241 619 OFFCURVE",
"246 625 OFFCURVE",
"270 630 CURVE SMOOTH",
"321 640 LINE",
"321 720 LINE",
"46 720 LINE",
"46 640 LINE",
"86 629 LINE SMOOTH",
"110 622 OFFCURVE",
"115 616 OFFCURVE",
"115 591 CURVE SMOOTH",
"115 129 LINE SMOOTH",
"115 104 OFFCURVE",
"110 98 OFFCURVE",
"86 91 CURVE SMOOTH",
"46 80 LINE",
"46 0 LINE"
);
},
{
closed = 1;
nodes = (
"628 -10 OFFCURVE",
"657 -3 OFFCURVE",
"681 12 CURVE",
"689 104 LINE",
"674 97 OFFCURVE",
"658 94 OFFCURVE",
"641 94 CURVE SMOOTH",
"608 94 OFFCURVE",
"586 109 OFFCURVE",
"545 164 CURVE SMOOTH",
"340 440 LINE",
"340 360 LINE",
"551 599 LINE SMOOTH",
"576 627 OFFCURVE",
"598 630 OFFCURVE",
"643 630 CURVE",
"643 720 LINE",
"588 720 LINE SMOOTH",
"542 720 OFFCURVE",
"506 707 OFFCURVE",
"479 676 CURVE SMOOTH",
"229 389 LINE",
"436 97 LINE SMOOTH",
"487 25 OFFCURVE",
"530 -10 OFFCURVE",
"593 -10 CURVE SMOOTH"
);
}
);
width = 674;
}
);
leftKerningGroup = H.left;
rightKerningGroup = K.right;
unicode = 004B;
},
{
glyphname = L;
lastChange = "2017-03-02 16:33:24 +0000";
layers = (
{
anchors = (
{
name = bottom;
position = "{311, 0}";
},
{
name = center;
position = "{310, 288}";
},
{
name = top;
position = "{176, 690}";
},
{
name = topright;
position = "{404, 690}";
}
);
background = {
anchors = (
{
name = bottom;
position = "{311, 0}";
},
{
name = center;
position = "{281, 360}";
},
{
name = top;
position = "{176, 690}";
},
{
name = topright;
position = "{404, 690}";
}
);
paths = (
{
closed = 1;
nodes = (
"542 0 LINE",
"536 177 LINE",
"470 177 LINE",
"464 102 LINE",
"463 78 OFFCURVE",
"451 73 OFFCURVE",
"426 73 CURVE SMOOTH",
"201 73 LINE",
"226 48 LINE",
"226 614 LINE SMOOTH",
"226 641 OFFCURVE",
"231 648 OFFCURVE",
"255 652 CURVE SMOOTH",
"314 661 LINE",
"314 720 LINE",
"58 720 LINE",
"58 661 LINE",
"111 652 LINE SMOOTH",
"135 648 OFFCURVE",
"140 641 OFFCURVE",
"140 614 CURVE SMOOTH",
"140 106 LINE SMOOTH",
"140 79 OFFCURVE",
"135 72 OFFCURVE",
"111 68 CURVE SMOOTH",
"58 59 LINE",
"58 0 LINE"
);
}
);
};
layerId = "93B1D13A-641C-48C6-9569-DADD26056F4A";
paths = (
{
closed = 1;
nodes = (
"530 0 LINE",
"524 176 LINE",
"464 176 LINE",
"458 97 LINE SMOOTH",
"456 73 OFFCURVE",
"445 68 OFFCURVE",
"420 68 CURVE SMOOTH",
"189 68 LINE",
"214 43 LINE",
"214 617 LINE SMOOTH",
"214 644 OFFCURVE",
"219 651 OFFCURVE",
"243 655 CURVE SMOOTH",
"299 664 LINE",
"299 720 LINE",
"53 720 LINE",
"53 664 LINE",
"103 655 LINE SMOOTH",
"127 651 OFFCURVE",
"132 644 OFFCURVE",
"132 617 CURVE SMOOTH",
"132 103 LINE SMOOTH",
"132 76 OFFCURVE",
"127 69 OFFCURVE",
"103 65 CURVE SMOOTH",
"53 56 LINE",
"53 0 LINE"
);
}
);
width = 547;
},
{
anchors = (
{
name = bottom;
position = "{302, 0}";
},
{
name = center;
position = "{309, 294}";
},
{
name = top;
position = "{183, 690}";
},
{
name = topright;
position = "{425, 690}";
}
);
background = {
paths = (
{
closed = 1;
nodes = (
"540 0 LINE",
"533 206 LINE",
"445 206 LINE",
"438 129 LINE SMOOTH",
"436 105 OFFCURVE",
"425 100 OFFCURVE",
"400 100 CURVE SMOOTH",
"196 100 LINE",
"242 55 LINE",
"242 591 LINE SMOOTH",
"242 618 OFFCURVE",
"247 625 OFFCURVE",
"271 629 CURVE SMOOTH",
"326 638 LINE",
"326 720 LINE",
"46 720 LINE",
"46 638 LINE",
"86 629 LINE SMOOTH",
"110 624 OFFCURVE",
"115 616 OFFCURVE",
"115 591 CURVE SMOOTH",
"115 129 LINE SMOOTH",
"115 104 OFFCURVE",
"110 96 OFFCURVE",
"86 91 CURVE SMOOTH",
"46 82 LINE",
"46 0 LINE"
);
}
);
};
layerId = "D04D9183-DC56-493B-9946-C87D971E5D7D";
paths = (
{
closed = 1;
nodes = (
"540 0 LINE",
"533 206 LINE",
"445 206 LINE",
"438 129 LINE SMOOTH",
"436 105 OFFCURVE",
"425 100 OFFCURVE",
"400 100 CURVE SMOOTH",
"196 100 LINE",
"242 55 LINE",
"242 591 LINE SMOOTH",
"242 618 OFFCURVE",
"247 624 OFFCURVE",
"271 629 CURVE SMOOTH",
"326 640 LINE",
"326 720 LINE",
"46 720 LINE",
"46 640 LINE",
"86 629 LINE SMOOTH",
"110 622 OFFCURVE",
"115 616 OFFCURVE",
"115 591 CURVE SMOOTH",
"115 129 LINE SMOOTH",
"115 104 OFFCURVE",
"110 98 OFFCURVE",
"86 91 CURVE SMOOTH",
"46 80 LINE",
"46 0 LINE"
);
}
);
width = 552;
}
);
leftKerningGroup = H.left;
rightKerningGroup = L.right;
unicode = 004C;
},
{
glyphname = Lslash;
lastChange = "2017-03-02 16:42:19 +0000";
layers = (
{
background = {
components = (
{
name = L;
}
);
paths = (
{
closed = 1;
nodes = (
"380 418 LINE",
"380 482 LINE",
"60 300 LINE",
"60 235 LINE"
);
}
);
};
components = (
{
name = L;
}
);
layerId = "93B1D13A-641C-48C6-9569-DADD26056F4A";
paths = (
{
closed = 1;
nodes = (
"380 418 LINE",
"380 482 LINE",
"60 319 LINE",
"60 255 LINE"
);
}
);
width = 547;
},
{
background = {
components = (
{
name = L;
}
);
paths = (
{
closed = 1;
nodes = (
"394 421 LINE",
"394 503 LINE",
"49 305 LINE",
"49 223 LINE"
);
},
{
closed = 1;
nodes = (
"114 272 OFFCURVE",
"129 287 OFFCURVE",
"129 307 CURVE SMOOTH",
"129 326 OFFCURVE",
"114 341 OFFCURVE",
"95 341 CURVE SMOOTH",
"75 341 OFFCURVE",
"60 326 OFFCURVE",
"60 307 CURVE SMOOTH",
"60 287 OFFCURVE",
"75 272 OFFCURVE",
"95 272 CURVE SMOOTH"
);
},
{
closed = 1;
nodes = (
"381 400 OFFCURVE",
"396 415 OFFCURVE",
"396 435 CURVE SMOOTH",
"396 454 OFFCURVE",
"381 469 OFFCURVE",
"362 469 CURVE SMOOTH",
"342 469 OFFCURVE",
"327 454 OFFCURVE",
"327 435 CURVE SMOOTH",
"327 415 OFFCURVE",
"342 400 OFFCURVE",
"362 400 CURVE SMOOTH"
);
},
{
closed = 1;
nodes = (
"398 412 LINE",
"398 491 LINE",
"49 323 LINE",
"49 245 LINE"
);
}
);
};
components = (
{
name = L;
}
);
layerId = "D04D9183-DC56-493B-9946-C87D971E5D7D";
paths = (
{
closed = 1;
nodes = (
"404 412 LINE",
"404 491 LINE",
"49 323 LINE",
"49 245 LINE"
);
}
);
width = 552;
}
);
leftKerningGroup = H.left;
rightKerningGroup = L.right;
unicode = 0141;
},
{
glyphname = M;
lastChange = "2017-02-23 03:02:51 +0000";
layers = (
{
anchors = (
{
name = bottom;
position = "{452, 0}";
},
{
name = top;
position = "{450, 690}";
}
);
background = {
anchors = (
{
name = bottom;
position = "{452, 0}";
},
{
name = top;
position = "{450, 690}";
}
);
paths = (
{
closed = 1;
nodes = (
"257 0 LINE",
"257 59 LINE",
"203 65 LINE SMOOTH",
"180 68 OFFCURVE",
"172 78 OFFCURVE",
"173 99 CURVE SMOOTH",
"199 546 LINE",
"203 635 LINE",
"193 635 LINE",
"222 547 LINE",
"410 0 LINE",
"481 0 LINE",
"653 544 LINE",
"682 635 LINE",
"672 635 LINE",
"678 543 LINE",
"709 97 LINE SMOOTH",
"710 78 OFFCURVE",
"699 68 OFFCURVE",
"680 65 CURVE SMOOTH",
"626 59 LINE",
"626 0 LINE",
"882 0 LINE",
"882 59 LINE",
"823 68 LINE SMOOTH",
"799 72 OFFCURVE",
"796 78 OFFCURVE",
"794 105 CURVE SMOOTH",
"756 623 LINE SMOOTH",
"754 644 OFFCURVE",
"763 652 OFFCURVE",
"787 655 CURVE SMOOTH",
"843 661 LINE",
"843 720 LINE",
"633 720 LINE",
"467 181 LINE",
"444 85 LINE",
"461 85 LINE",
"439 177 LINE",
"254 720 LINE",
"56 720 LINE",
"56 661 LINE",
"108 655 LINE SMOOTH",
"128 653 OFFCURVE",
"139 642 OFFCURVE",
"138 625 CURVE SMOOTH",
"102 105 LINE SMOOTH",
"100 78 OFFCURVE",
"97 72 OFFCURVE",
"73 68 CURVE SMOOTH",
"19 59 LINE",
"19 0 LINE"
);
}
);
};
layerId = "93B1D13A-641C-48C6-9569-DADD26056F4A";
paths = (
{
closed = 1;
nodes = (
"258 0 LINE",
"258 56 LINE",
"206 62 LINE SMOOTH",
"183 65 OFFCURVE",
"175 75 OFFCURVE",
"176 96 CURVE SMOOTH",
"205 546 LINE",
"208 635 LINE",
"202 635 LINE",
"230 547 LINE",
"413 0 LINE",
"481 0 LINE",
"658 544 LINE",
"686 635 LINE",
"680 635 LINE",
"686 543 LINE",
"715 94 LINE SMOOTH",
"716 75 OFFCURVE",
"705 64 OFFCURVE",
"686 62 CURVE SMOOTH",
"633 56 LINE",
"633 0 LINE",
"877 0 LINE",
"877 56 LINE",
"826 65 LINE SMOOTH",
"802 69 OFFCURVE",
"799 75 OFFCURVE",
"797 102 CURVE SMOOTH",
"761 626 LINE SMOOTH",
"760 647 OFFCURVE",
"768 655 OFFCURVE",
"792 658 CURVE SMOOTH",
"840 664 LINE",
"840 720 LINE",
"644 720 LINE",
"471 182 LINE",
"447 85 LINE",
"461 85 LINE",
"437 178 LINE",
"257 720 LINE",
"64 720 LINE",
"64 664 LINE",
"113 658 LINE SMOOTH",
"133 656 OFFCURVE",
"144 645 OFFCURVE",
"143 628 CURVE SMOOTH",
"107 102 LINE SMOOTH",
"105 75 OFFCURVE",
"102 69 OFFCURVE",
"78 65 CURVE SMOOTH",
"27 56 LINE",
"27 0 LINE"
);
}
);
width = 904;
},
{
anchors = (
{
name = bottom;
position = "{467, 0}";
},
{
name = top;
position = "{474, 690}";
}
);
background = {
paths = (
{
closed = 1;
nodes = (
"275 0 LINE",
"275 82 LINE",
"230 88 LINE SMOOTH",
"209 91 OFFCURVE",
"199 102 OFFCURVE",
"200 122 CURVE SMOOTH",
"224 460 LINE",
"225 580 LINE",
"213 580 LINE",
"248 457 LINE",
"409 0 LINE",
"522 0 LINE",
"680 463 LINE",
"713 580 LINE",
"702 580 LINE",
"704 460 LINE",
"727 120 LINE SMOOTH",
"728 101 OFFCURVE",
"719 91 OFFCURVE",
"698 88 CURVE SMOOTH",
"652 82 LINE",
"652 0 LINE",
"926 0 LINE",
"926 82 LINE",
"883 91 LINE SMOOTH",
"859 96 OFFCURVE",
"856 101 OFFCURVE",
"854 128 CURVE SMOOTH",
"816 600 LINE SMOOTH",
"815 617 OFFCURVE",
"821 628 OFFCURVE",
"847 632 CURVE SMOOTH",
"888 638 LINE",
"888 720 LINE",
"663 720 LINE",
"487 207 LINE",
"468 114 LINE",
"480 114 LINE",
"464 207 LINE",
"285 720 LINE",
"63 720 LINE",
"63 638 LINE",
"105 632 LINE SMOOTH",
"127 629 OFFCURVE",
"136 619 OFFCURVE",
"135 602 CURVE SMOOTH",
"98 128 LINE SMOOTH",
"96 101 OFFCURVE",
"93 96 OFFCURVE",
"69 91 CURVE SMOOTH",
"26 82 LINE",
"26 0 LINE"
);
}
);
};
layerId = "D04D9183-DC56-493B-9946-C87D971E5D7D";
paths = (
{
closed = 1;
nodes = (
"275 0 LINE",
"275 80 LINE",
"230 88 LINE SMOOTH",
"209 92 OFFCURVE",
"199 102 OFFCURVE",
"200 122 CURVE SMOOTH",
"224 460 LINE",
"225 580 LINE",
"213 580 LINE",
"248 457 LINE",
"409 0 LINE",
"522 0 LINE",
"680 463 LINE",
"713 580 LINE",
"702 580 LINE",
"704 460 LINE",
"727 120 LINE SMOOTH",
"728 101 OFFCURVE",
"719 92 OFFCURVE",
"698 88 CURVE SMOOTH",
"652 80 LINE",
"652 0 LINE",
"926 0 LINE",
"926 80 LINE",
"883 91 LINE SMOOTH",
"859 97 OFFCURVE",
"856 101 OFFCURVE",
"854 128 CURVE SMOOTH",
"816 600 LINE SMOOTH",
"815 617 OFFCURVE",
"821 627 OFFCURVE",
"847 632 CURVE SMOOTH",
"888 640 LINE",
"888 720 LINE",
"663 720 LINE",
"487 207 LINE",
"468 114 LINE",
"480 114 LINE",
"464 207 LINE",
"285 720 LINE",
"63 720 LINE",
"63 640 LINE",
"105 632 LINE SMOOTH",
"127 628 OFFCURVE",
"136 619 OFFCURVE",
"135 602 CURVE SMOOTH",
"98 128 LINE SMOOTH",
"96 101 OFFCURVE",
"93 97 OFFCURVE",
"69 91 CURVE SMOOTH",
"26 80 LINE",
"26 0 LINE"
);
}
);
width = 952;
}
);
leftKerningGroup = M.left;
rightKerningGroup = M.right;
unicode = 004D;
},
{
glyphname = N;
lastChange = "2017-03-02 16:33:24 +0000";
layers = (
{
anchors = (
{
name = bottom;
position = "{418, 0}";
},
{
name = top;
position = "{384, 690}";
}
);
background = {
anchors = (
{
name = bottom;
position = "{418, 0}";
},
{
name = top;
position = "{384, 690}";
}
);
paths = (
{
closed = 1;
nodes = (
"281 0 LINE",
"281 56 LINE",
"231 65 LINE SMOOTH",
"207 69 OFFCURVE",
"202 76 OFFCURVE",
"202 103 CURVE SMOOTH",
"202 547 LINE",
"192 621 LINE",
"183 621 LINE",
"220 550 LINE",
"586 0 LINE",
"654 0 LINE",
"654 618 LINE SMOOTH",
"654 645 OFFCURVE",
"659 655 OFFCURVE",
"683 658 CURVE SMOOTH",
"733 664 LINE",
"733 720 LINE",
"505 720 LINE",
"505 664 LINE",
"556 658 LINE SMOOTH",
"580 655 OFFCURVE",
"584 645 OFFCURVE",
"584 618 CURVE SMOOTH",
"584 187 LINE",
"604 84 LINE",
"619 84 LINE",
"563 186 LINE",
"207 720 LINE",
"53 720 LINE",
"53 664 LINE",
"103 658 LINE SMOOTH",
"127 655 OFFCURVE",
"132 645 OFFCURVE",
"132 618 CURVE SMOOTH",
"132 103 LINE SMOOTH",
"132 76 OFFCURVE",
"127 69 OFFCURVE",
"103 65 CURVE SMOOTH",
"53 56 LINE",
"53 0 LINE"
);
}
);
};
layerId = "93B1D13A-641C-48C6-9569-DADD26056F4A";
paths = (
{
closed = 1;
nodes = (
"281 0 LINE",
"281 56 LINE",
"231 65 LINE SMOOTH",
"207 69 OFFCURVE",
"202 76 OFFCURVE",
"202 103 CURVE SMOOTH",
"202 550 LINE",
"192 624 LINE",
"183 624 LINE",
"220 553 LINE",
"586 0 LINE",
"654 0 LINE",
"654 618 LINE SMOOTH",
"654 645 OFFCURVE",
"659 655 OFFCURVE",
"683 658 CURVE SMOOTH",
"733 664 LINE",
"733 720 LINE",
"505 720 LINE",
"505 664 LINE",
"556 658 LINE SMOOTH",
"580 655 OFFCURVE",
"584 645 OFFCURVE",
"584 618 CURVE SMOOTH",
"584 177 LINE",
"604 77 LINE",
"619 77 LINE",
"563 176 LINE",
"207 720 LINE",
"53 720 LINE",
"53 664 LINE",
"103 658 LINE SMOOTH",
"127 655 OFFCURVE",
"132 645 OFFCURVE",
"132 618 CURVE SMOOTH",
"132 103 LINE SMOOTH",
"132 76 OFFCURVE",
"127 69 OFFCURVE",
"103 65 CURVE SMOOTH",
"53 56 LINE",
"53 0 LINE"
);
}
);
width = 763;
},
{
anchors = (
{
name = bottom;
position = "{416, 0}";
},
{
name = top;
position = "{382, 690}";
}
);
background = {
paths = (
{
closed = 1;
nodes = (
"301 0 LINE",
"301 80 LINE",
"255 91 LINE SMOOTH",
"231 97 OFFCURVE",
"226 102 OFFCURVE",
"226 129 CURVE SMOOTH",
"226 474 LINE",
"210 543 LINE",
"205 540 LINE",
"239 478 LINE",
"559 0 LINE",
"672 0 LINE",
"672 592 LINE SMOOTH",
"672 619 OFFCURVE",
"678 627 OFFCURVE",
"702 632 CURVE SMOOTH",
"741 640 LINE",
"741 720 LINE",
"486 720 LINE",
"486 640 LINE",
"533 632 LINE SMOOTH",
"557 628 OFFCURVE",
"561 619 OFFCURVE",
"561 592 CURVE SMOOTH",
"561 245 LINE",
"584 163 LINE",
"589 171 LINE",
"549 243 LINE",
"230 720 LINE",
"46 720 LINE",
"46 640 LINE",
"86 632 LINE SMOOTH",
"110 627 OFFCURVE",
"115 619 OFFCURVE",
"115 592 CURVE SMOOTH",
"115 129 LINE SMOOTH",
"115 102 OFFCURVE",
"110 98 OFFCURVE",
"86 91 CURVE SMOOTH",
"46 80 LINE",
"46 0 LINE"
);
}
);
};
layerId = "D04D9183-DC56-493B-9946-C87D971E5D7D";
paths = (
{
closed = 1;
nodes = (
"301 0 LINE",
"301 80 LINE",
"250 91 LINE SMOOTH",
"226 96 OFFCURVE",
"221 102 OFFCURVE",
"221 129 CURVE SMOOTH",
"221 474 LINE",
"207 543 LINE",
"201 540 LINE",
"239 478 LINE",
"559 0 LINE",
"672 0 LINE",
"672 592 LINE SMOOTH",
"672 619 OFFCURVE",
"678 627 OFFCURVE",
"702 632 CURVE SMOOTH",
"741 640 LINE",
"741 720 LINE",
"486 720 LINE",
"486 640 LINE",
"538 632 LINE SMOOTH",
"562 628 OFFCURVE",
"566 619 OFFCURVE",
"566 592 CURVE SMOOTH",
"566 245 LINE",
"585 163 LINE",
"589 171 LINE",
"549 243 LINE",
"230 720 LINE",
"46 720 LINE",
"46 640 LINE",
"86 632 LINE SMOOTH",
"110 627 OFFCURVE",
"115 619 OFFCURVE",
"115 592 CURVE SMOOTH",
"115 129 LINE SMOOTH",
"115 102 OFFCURVE",
"110 98 OFFCURVE",
"86 91 CURVE SMOOTH",
"46 80 LINE",
"46 0 LINE"
);
}
);
width = 769;
}
);
leftKerningGroup = H.left;
rightKerningGroup = N.right;
unicode = 004E;
},
{
glyphname = Eng;
lastChange = "2017-03-02 16:33:24 +0000";
layers = (
{
background = {
paths = (
{
closed = 1;
nodes = (
"446 -155 LINE",
"622 -63 OFFCURVE",
"654 -25 OFFCURVE",
"654 148 CURVE SMOOTH",
"654 617 LINE SMOOTH",
"654 642 OFFCURVE",
"658 651 OFFCURVE",
"683 655 CURVE SMOOTH",
"733 664 LINE",
"733 720 LINE",
"493 720 LINE",
"493 664 LINE",
"543 655 LINE SMOOTH",
"568 651 OFFCURVE",
"572 642 OFFCURVE",
"572 617 CURVE SMOOTH",
"572 157 LINE SMOOTH",
"572 22 OFFCURVE",
"553 -15 OFFCURVE",
"409 -102 CURVE"
);
}
);
};
layerId = "93B1D13A-641C-48C6-9569-DADD26056F4A";
paths = (
{
closed = 1;
nodes = (
"612 -83 OFFCURVE",
"654 -40 OFFCURVE",
"654 133 CURVE SMOOTH",
"654 618 LINE SMOOTH",
"654 645 OFFCURVE",
"659 655 OFFCURVE",
"683 658 CURVE SMOOTH",
"733 664 LINE",
"733 720 LINE",
"500 720 LINE",
"500 664 LINE",
"551 658 LINE SMOOTH",
"575 655 OFFCURVE",
"579 645 OFFCURVE",
"579 618 CURVE SMOOTH",
"579 187 LINE",
"599 84 LINE",
"619 84 LINE",
"563 186 LINE",
"209 720 LINE",
"53 720 LINE",
"53 664 LINE",
"103 658 LINE SMOOTH",
"127 655 OFFCURVE",
"132 645 OFFCURVE",
"132 618 CURVE SMOOTH",
"132 103 LINE SMOOTH",
"132 76 OFFCURVE",
"127 69 OFFCURVE",
"103 65 CURVE SMOOTH",
"53 56 LINE",
"53 0 LINE",
"286 0 LINE",
"286 56 LINE",
"236 65 LINE SMOOTH",
"212 69 OFFCURVE",
"207 76 OFFCURVE",
"207 103 CURVE SMOOTH",
"207 547 LINE",
"197 621 LINE",
"183 621 LINE",
"220 550 LINE",
"584 0 LINE",
"574 59 LINE",
"557 -18 OFFCURVE",
"496 -58 OFFCURVE",
"391 -113 CURVE",
"427 -170 LINE"
);
}
);
width = 768;
},
{
background = {
paths = (
{
closed = 1;
nodes = (
"626 -84 OFFCURVE",
"672 -43 OFFCURVE",
"672 138 CURVE SMOOTH",
"672 592 LINE SMOOTH",
"672 619 OFFCURVE",
"678 628 OFFCURVE",
"702 632 CURVE SMOOTH",
"741 638 LINE",
"741 720 LINE",
"486 720 LINE",
"486 638 LINE",
"533 632 LINE SMOOTH",
"557 629 OFFCURVE",
"561 619 OFFCURVE",
"561 592 CURVE SMOOTH",
"561 245 LINE",
"584 163 LINE",
"589 171 LINE",
"549 243 LINE",
"230 720 LINE",
"46 720 LINE",
"46 638 LINE",
"86 632 LINE SMOOTH",
"110 628 OFFCURVE",
"115 619 OFFCURVE",
"115 592 CURVE SMOOTH",
"115 129 LINE SMOOTH",
"115 102 OFFCURVE",
"110 96 OFFCURVE",
"86 91 CURVE SMOOTH",
"46 82 LINE",
"46 0 LINE",
"301 0 LINE",
"301 82 LINE",
"255 91 LINE SMOOTH",
"231 96 OFFCURVE",
"226 102 OFFCURVE",
"226 129 CURVE SMOOTH",
"226 474 LINE",
"210 543 LINE",
"205 540 LINE",
"239 478 LINE",
"559 0 LINE",
"566 72 LINE",
"545 -5 OFFCURVE",
"490 -43 OFFCURVE",
"389 -89 CURVE",
"443 -166 LINE"
);
}
);
};
layerId = "D04D9183-DC56-493B-9946-C87D971E5D7D";
paths = (
{
closed = 1;
nodes = (
"626 -84 OFFCURVE",
"672 -43 OFFCURVE",
"672 138 CURVE SMOOTH",
"672 592 LINE SMOOTH",
"672 619 OFFCURVE",
"678 627 OFFCURVE",
"702 632 CURVE SMOOTH",
"741 640 LINE",
"741 720 LINE",
"486 720 LINE",
"486 640 LINE",
"533 632 LINE SMOOTH",
"557 628 OFFCURVE",
"561 619 OFFCURVE",
"561 592 CURVE SMOOTH",
"561 245 LINE",
"584 163 LINE",
"589 171 LINE",
"549 243 LINE",
"230 720 LINE",
"46 720 LINE",
"46 640 LINE",
"86 632 LINE SMOOTH",
"110 627 OFFCURVE",
"115 619 OFFCURVE",
"115 592 CURVE SMOOTH",
"115 129 LINE SMOOTH",
"115 102 OFFCURVE",
"110 98 OFFCURVE",
"86 91 CURVE SMOOTH",
"46 80 LINE",
"46 0 LINE",
"301 0 LINE",
"301 80 LINE",
"255 91 LINE SMOOTH",
"231 97 OFFCURVE",
"226 102 OFFCURVE",
"226 129 CURVE SMOOTH",
"226 474 LINE",
"210 543 LINE",
"205 540 LINE",
"239 478 LINE",
"559 0 LINE",
"566 72 LINE",
"545 -5 OFFCURVE",
"490 -43 OFFCURVE",
"389 -89 CURVE",
"443 -166 LINE"
);
}
);
width = 766;
}
);
leftKerningGroup = H.left;
leftMetricsKey = N;
rightKerningGroup = N.right;
unicode = 014A;
},
{
color = 4;
glyphname = O;
lastChange = "2017-03-02 14:39:07 +0000";
layers = (
{
anchors = (
{
name = bottom;
position = "{358, 0}";
},
{
name = center;
position = "{358, 360}";
},
{
name = top;
position = "{358, 690}";
},
{
name = topleft;
position = "{43, 690}";
},
{
name = topright;
position = "{673, 690}";
}
);
background = {
anchors = (
{
name = bottom;
position = "{358, 0}";
},
{
name = center;
position = "{358, 360}";
},
{
name = top;
position = "{358, 690}";
},
{
name = topleft;
position = "{43, 690}";
},
{
name = topright;
position = "{673, 690}";
}
);
paths = (
{
closed = 1;
nodes = (
"1308 -10 OFFCURVE",
"1411 150 OFFCURVE",
"1411 375 CURVE SMOOTH",
"1411 591 OFFCURVE",
"1316 730 OFFCURVE",
"1112 730 CURVE SMOOTH",
"891 730 OFFCURVE",
"789 567 OFFCURVE",
"789 345 CURVE SMOOTH",
"789 130 OFFCURVE",
"884 -10 OFFCURVE",
"1089 -10 CURVE SMOOTH"
);
},
{
closed = 1;
nodes = (
"968 62 OFFCURVE",
"879 154 OFFCURVE",
"879 381 CURVE SMOOTH",
"879 557 OFFCURVE",
"933 658 OFFCURVE",
"1086 658 CURVE SMOOTH",
"1232 658 OFFCURVE",
"1321 566 OFFCURVE",
"1321 339 CURVE SMOOTH",
"1321 163 OFFCURVE",
"1267 62 OFFCURVE",
"1114 62 CURVE SMOOTH"
);
},
{
closed = 1;
nodes = (
"565 -10 OFFCURVE",
"668 150 OFFCURVE",
"668 375 CURVE SMOOTH",
"668 591 OFFCURVE",
"572 730 OFFCURVE",
"368 730 CURVE SMOOTH",
"147 730 OFFCURVE",
"46 567 OFFCURVE",
"46 345 CURVE SMOOTH",
"46 130 OFFCURVE",
"141 -10 OFFCURVE",
"346 -10 CURVE SMOOTH"
);
},
{
closed = 1;
nodes = (
"225 62 OFFCURVE",
"136 154 OFFCURVE",
"136 381 CURVE SMOOTH",
"136 557 OFFCURVE",
"190 658 OFFCURVE",
"343 658 CURVE SMOOTH",
"489 658 OFFCURVE",
"578 566 OFFCURVE",
"578 339 CURVE SMOOTH",
"578 163 OFFCURVE",
"524 62 OFFCURVE",
"371 62 CURVE SMOOTH"
);
}
);
};
layerId = "93B1D13A-641C-48C6-9569-DADD26056F4A";
paths = (
{
closed = 1;
nodes = (
"568 -10 OFFCURVE",
"668 153 OFFCURVE",
"668 375 CURVE SMOOTH",
"668 590 OFFCURVE",
"573 730 OFFCURVE",
"368 730 CURVE SMOOTH",
"146 730 OFFCURVE",
"46 567 OFFCURVE",
"46 345 CURVE SMOOTH",
"46 130 OFFCURVE",
"141 -10 OFFCURVE",
"346 -10 CURVE SMOOTH"
);
},
{
closed = 1;
nodes = (
"225 62 OFFCURVE",
"138 154 OFFCURVE",
"138 381 CURVE SMOOTH",
"138 557 OFFCURVE",
"190 658 OFFCURVE",
"343 658 CURVE SMOOTH",
"489 658 OFFCURVE",
"576 566 OFFCURVE",
"576 339 CURVE SMOOTH",
"576 163 OFFCURVE",
"524 62 OFFCURVE",
"371 62 CURVE SMOOTH"
);
}
);
width = 714;
},
{
anchors = (
{
name = bottom;
position = "{365, 0}";
},
{
name = center;
position = "{365, 360}";
},
{
name = top;
position = "{368, 690}";
},
{
name = topleft;
position = "{33, 690}";
},
{
name = topright;
position = "{696, 690}";
}
);
background = {
paths = (
{
closed = 1;
nodes = (
"567 -10 OFFCURVE",
"697 141 OFFCURVE",
"697 381 CURVE SMOOTH",
"697 591 OFFCURVE",
"598 730 OFFCURVE",
"385 730 CURVE SMOOTH",
"162 730 OFFCURVE",
"32 579 OFFCURVE",
"32 339 CURVE SMOOTH",
"32 129 OFFCURVE",
"131 -10 OFFCURVE",
"344 -10 CURVE SMOOTH"
);
},
{
closed = 1;
nodes = (
"257 94 OFFCURVE",
"170 176 OFFCURVE",
"170 381 CURVE SMOOTH",
"170 557 OFFCURVE",
"229 626 OFFCURVE",
"349 626 CURVE SMOOTH",
"474 626 OFFCURVE",
"559 544 OFFCURVE",
"559 339 CURVE SMOOTH",
"559 163 OFFCURVE",
"500 94 OFFCURVE",
"383 94 CURVE SMOOTH"
);
}
);
};
layerId = "D04D9183-DC56-493B-9946-C87D971E5D7D";
paths = (
{
closed = 1;
nodes = (
"567 -10 OFFCURVE",
"695 149 OFFCURVE",
"697 381 CURVE SMOOTH",
"697 591 OFFCURVE",
"598 730 OFFCURVE",
"385 730 CURVE SMOOTH",
"162 730 OFFCURVE",
"32 579 OFFCURVE",
"32 339 CURVE SMOOTH",
"32 129 OFFCURVE",
"131 -10 OFFCURVE",
"344 -10 CURVE SMOOTH"
);
},
{
closed = 1;
nodes = (
"255 94 OFFCURVE",
"170 176 OFFCURVE",
"170 381 CURVE SMOOTH",
"170 557 OFFCURVE",
"229 626 OFFCURVE",
"349 626 CURVE SMOOTH",
"474 626 OFFCURVE",
"559 544 OFFCURVE",
"559 339 CURVE SMOOTH",
"559 164 OFFCURVE",
"500 94 OFFCURVE",
"380 94 CURVE SMOOTH"
);
}
);
width = 729;
}
);
leftKerningGroup = O.left;
rightKerningGroup = O.right;
unicode = 004F;
},
{
glyphname = Ohorn;
lastChange = "2017-02-21 22:44:59 +0000";
layers = (
{
background = {
components = (
{
name = O;
}
);
paths = (
{
closed = 1;
nodes = (
"736 790 LINE",
"739 779 OFFCURVE",
"743 762 OFFCURVE",
"743 735 CURVE SMOOTH",
"743 629 OFFCURVE",
"627 589 OFFCURVE",
"549 579 CURVE",
"544 625 LINE",
"606 635 OFFCURVE",
"661 653 OFFCURVE",
"661 727 CURVE SMOOTH",
"661 742 OFFCURVE",
"657 757 OFFCURVE",
"653 778 CURVE"
);
}
);
};
components = (
{
name = O;
}
);
layerId = "93B1D13A-641C-48C6-9569-DADD26056F4A";
paths = (
{
closed = 1;
nodes = (
"557 671 OFFCURVE",
"640 728 OFFCURVE",
"640 830 CURVE SMOOTH",
"640 849 OFFCURVE",
"636 871 OFFCURVE",
"632 885 CURVE",
"550 873 LINE",
"555 854 OFFCURVE",
"558 838 OFFCURVE",
"558 819 CURVE SMOOTH",
"558 751 OFFCURVE",
"526 722 OFFCURVE",
"462 720 CURVE",
"467 664 LINE"
);
}
);
width = 724;
},
{
background = {
components = (
{
name = O;
}
);
paths = (
{
closed = 1;
nodes = (
"685 784 LINE",
"688 763 OFFCURVE",
"693 748 OFFCURVE",
"693 733 CURVE SMOOTH",
"693 667 OFFCURVE",
"648 650 OFFCURVE",
"601 641 CURVE",
"606 580 LINE",
"686 590 OFFCURVE",
"805 632 OFFCURVE",
"805 741 CURVE SMOOTH",
"805 768 OFFCURVE",
"801 785 OFFCURVE",
"798 796 CURVE"
);
}
);
};
components = (
{
name = O;
}
);
layerId = "D04D9183-DC56-493B-9946-C87D971E5D7D";
paths = (
{
closed = 1;
nodes = (
"590 664 OFFCURVE",
"673 715 OFFCURVE",
"673 826 CURVE SMOOTH",
"673 846 OFFCURVE",
"669 872 OFFCURVE",
"663 891 CURVE",
"557 877 LINE",
"564 859 OFFCURVE",
"569 834 OFFCURVE",
"569 813 CURVE SMOOTH",
"569 757 OFFCURVE",
"549 721 OFFCURVE",
"484 720 CURVE",
"489 654 LINE"
);
}
);
width = 747;
}
);
leftKerningGroup = O.left;
leftMetricsKey = O;
rightKerningGroup = O.right;
unicode = 01A0;
},
{
glyphname = Oslash;
lastChange = "2017-02-22 17:03:52 +0000";
layers = (
{
background = {
components = (
{
name = O;
}
);
paths = (
{
closed = 1;
nodes = (
"139 -27 LINE",
"511 770 LINE",
"566 744 LINE",
"194 -53 LINE"
);
},
{
closed = 1;
nodes = (
"231 26 LINE",
"176 53 LINE",
"139 -27 LINE",
"194 -53 LINE"
);
},
{
closed = 1;
nodes = (
"511 626 LINE",
"457 653 LINE",
"192 86 LINE",
"247 60 LINE"
);
},
{
closed = 1;
nodes = (
"566 744 LINE",
"511 770 LINE",
"477 696 LINE",
"531 669 LINE"
);
},
{
closed = 1;
nodes = (
"63 -16 LINE",
"107 -43 LINE",
"483 490 LINE",
"439 517 LINE"
);
},
{
closed = 1;
nodes = (
"63 -16 LINE",
"107 -43 LINE",
"645 720 LINE",
"601 747 LINE"
);
}
);
};
components = (
{
name = O;
}
);
layerId = "93B1D13A-641C-48C6-9569-DADD26056F4A";
paths = (
{
closed = 1;
nodes = (
"78 -16 LINE",
"126 -43 LINE",
"647 721 LINE",
"599 748 LINE"
);
}
);
width = 717;
},
{
background = {
paths = (
{
closed = 1;
nodes = (
"-326 33 LINE",
"-411 75 LINE",
"-451 -11 LINE",
"-366 -52 LINE"
);
},
{
closed = 1;
nodes = (
"-59 607 LINE",
"-145 645 LINE",
"-379 138 LINE",
"-298 90 LINE"
);
},
{
closed = 1;
nodes = (
"5 746 LINE",
"-80 787 LINE",
"-120 702 LINE",
"-35 660 LINE"
);
},
{
closed = 1;
nodes = (
"-326 33 LINE",
"-411 75 LINE",
"-451 -11 LINE",
"-366 -52 LINE"
);
},
{
closed = 1;
nodes = (
"-60 608 LINE",
"-143 645 LINE",
"-377 138 LINE",
"-299 91 LINE"
);
},
{
closed = 1;
nodes = (
"5 746 LINE",
"-80 787 LINE",
"-120 702 LINE",
"-35 660 LINE"
);
},
{
closed = 1;
nodes = (
"-537 -9 LINE",
"-482 -44 LINE",
"78 720 LINE",
"23 755 LINE"
);
},
{
closed = 1;
nodes = (
"-537 -9 LINE",
"-482 -44 LINE",
"-90 491 LINE",
"-145 526 LINE"
);
},
{
closed = 1;
nodes = (
"-496 -17 LINE",
"-446 -53 LINE",
"79 720 LINE",
"28 756 LINE"
);
},
{
closed = 1;
nodes = (
"78 -17 LINE",
"140 -58 LINE",
"667 720 LINE",
"609 761 LINE"
);
},
{
closed = 1;
nodes = (
"78 -17 LINE",
"140 -58 LINE",
"667 720 LINE",
"609 761 LINE"
);
}
);
};
components = (
{
name = O;
}
);
layerId = "D04D9183-DC56-493B-9946-C87D971E5D7D";
paths = (
{
closed = 1;
nodes = (
"79 -15 LINE",
"142 -56 LINE",
"672 720 LINE",
"609 761 LINE"
);
}
);
width = 741;
}
);
leftKerningGroup = O.left;
rightKerningGroup = O.right;
unicode = 00D8;
},
{
glyphname = OE;
lastChange = "2017-03-02 16:31:24 +0000";
layers = (
{
background = {
paths = (
{
closed = 1;
nodes = (
"563 -10 OFFCURVE",
"664 153 OFFCURVE",
"662 370 CURVE SMOOTH",
"660 585 OFFCURVE",
"569 730 OFFCURVE",
"373 730 CURVE SMOOTH",
"148 730 OFFCURVE",
"46 567 OFFCURVE",
"46 350 CURVE SMOOTH",
"46 130 OFFCURVE",
"141 -10 OFFCURVE",
"341 -10 CURVE SMOOTH"
);
},
{
closed = 1;
nodes = (
"225 62 OFFCURVE",
"136 166 OFFCURVE",
"136 361 CURVE SMOOTH",
"136 557 OFFCURVE",
"182 658 OFFCURVE",
"347 658 CURVE SMOOTH",
"489 658 OFFCURVE",
"578 554 OFFCURVE",
"578 359 CURVE SMOOTH",
"578 163 OFFCURVE",
"532 62 OFFCURVE",
"367 62 CURVE SMOOTH"
);
},
{
closed = 1;
nodes = (
"1021 0 LINE",
"1015 174 LINE",
"953 174 LINE",
"947 98 LINE SMOOTH",
"945 74 OFFCURVE",
"934 69 OFFCURVE",
"909 69 CURVE SMOOTH",
"644 69 LINE",
"669 44 LINE",
"669 676 LINE",
"644 651 LINE",
"905 651 LINE SMOOTH",
"930 651 OFFCURVE",
"942 646 OFFCURVE",
"943 622 CURVE",
"949 550 LINE",
"1011 550 LINE",
"1017 720 LINE",
"588 720 LINE",
"588 595 LINE",
"606 575 LINE",
"606 169 LINE",
"588 151 LINE",
"588 0 LINE"
);
},
{
closed = 1;
nodes = (
"907 343 LINE",
"907 409 LINE",
"667 409 LINE",
"667 343 LINE"
);
},
{
closed = 1;
nodes = (
"565 -10 OFFCURVE",
"668 150 OFFCURVE",
"668 375 CURVE SMOOTH",
"668 591 OFFCURVE",
"573 730 OFFCURVE",
"369 730 CURVE SMOOTH",
"148 730 OFFCURVE",
"46 567 OFFCURVE",
"46 345 CURVE SMOOTH",
"46 130 OFFCURVE",
"141 -10 OFFCURVE",
"346 -10 CURVE SMOOTH"
);
},
{
closed = 1;
nodes = (
"225 62 OFFCURVE",
"136 154 OFFCURVE",
"136 381 CURVE SMOOTH",
"136 557 OFFCURVE",
"190 658 OFFCURVE",
"343 658 CURVE SMOOTH",
"489 658 OFFCURVE",
"578 566 OFFCURVE",
"578 339 CURVE SMOOTH",
"578 163 OFFCURVE",
"524 62 OFFCURVE",
"371 62 CURVE SMOOTH"
);
}
);
};
layerId = "93B1D13A-641C-48C6-9569-DADD26056F4A";
paths = (
{
closed = 1;
nodes = (
"560 -10 OFFCURVE",
"662 150 OFFCURVE",
"662 375 CURVE SMOOTH",
"662 591 OFFCURVE",
"568 730 OFFCURVE",
"369 730 CURVE SMOOTH",
"148 730 OFFCURVE",
"46 567 OFFCURVE",
"46 345 CURVE SMOOTH",
"46 130 OFFCURVE",
"141 -10 OFFCURVE",
"346 -10 CURVE SMOOTH"
);
},
{
closed = 1;
nodes = (
"225 62 OFFCURVE",
"136 154 OFFCURVE",
"136 381 CURVE SMOOTH",
"136 557 OFFCURVE",
"190 658 OFFCURVE",
"343 658 CURVE SMOOTH",
"489 658 OFFCURVE",
"578 566 OFFCURVE",
"578 339 CURVE SMOOTH",
"578 163 OFFCURVE",
"524 62 OFFCURVE",
"371 62 CURVE SMOOTH"
);
},
{
closed = 1;
nodes = (
"1021 0 LINE",
"1015 174 LINE",
"953 174 LINE",
"947 98 LINE SMOOTH",
"945 74 OFFCURVE",
"934 69 OFFCURVE",
"909 69 CURVE SMOOTH",
"644 69 LINE",
"669 44 LINE",
"669 676 LINE",
"644 651 LINE",
"905 651 LINE SMOOTH",
"930 651 OFFCURVE",
"942 646 OFFCURVE",
"943 622 CURVE",
"949 550 LINE",
"1011 550 LINE",
"1017 720 LINE",
"588 720 LINE",
"588 595 LINE",
"606 575 LINE",
"606 169 LINE",
"588 151 LINE",
"588 0 LINE"
);
},
{
closed = 1;
nodes = (
"907 343 LINE",
"907 409 LINE",
"657 409 LINE",
"657 343 LINE"
);
}
);
width = 1062;
},
{
background = {
paths = (
{
closed = 1;
nodes = (
"561 -10 OFFCURVE",
"681 153 OFFCURVE",
"681 370 CURVE SMOOTH",
"681 587 OFFCURVE",
"590 730 OFFCURVE",
"385 730 CURVE SMOOTH",
"165 730 OFFCURVE",
"32 574 OFFCURVE",
"32 350 CURVE SMOOTH",
"32 124 OFFCURVE",
"133 -10 OFFCURVE",
"346 -10 CURVE SMOOTH"
);
},
{
closed = 1;
nodes = (
"250 94 OFFCURVE",
"171 186 OFFCURVE",
"171 361 CURVE SMOOTH",
"171 550 OFFCURVE",
"219 626 OFFCURVE",
"349 626 CURVE SMOOTH",
"481 626 OFFCURVE",
"560 534 OFFCURVE",
"560 359 CURVE SMOOTH",
"560 170 OFFCURVE",
"512 94 OFFCURVE",
"382 94 CURVE SMOOTH"
);
},
{
closed = 1;
nodes = (
"1026 0 LINE",
"1019 201 LINE",
"932 201 LINE",
"925 127 LINE SMOOTH",
"923 103 OFFCURVE",
"912 98 OFFCURVE",
"887 98 CURVE SMOOTH",
"671 98 LINE",
"696 73 LINE",
"696 647 LINE",
"671 622 LINE",
"886 622 LINE SMOOTH",
"911 622 OFFCURVE",
"922 617 OFFCURVE",
"924 593 CURVE SMOOTH",
"931 524 LINE",
"1015 524 LINE",
"1022 720 LINE",
"575 720 LINE",
"575 614 LINE",
"593 594 LINE",
"593 158 LINE",
"575 140 LINE",
"575 0 LINE"
);
},
{
closed = 1;
nodes = (
"912 323 LINE",
"912 421 LINE",
"695 421 LINE",
"695 323 LINE"
);
},
{
closed = 1;
nodes = (
"567 -10 OFFCURVE",
"697 141 OFFCURVE",
"697 381 CURVE SMOOTH",
"697 591 OFFCURVE",
"598 730 OFFCURVE",
"385 730 CURVE SMOOTH",
"162 730 OFFCURVE",
"32 579 OFFCURVE",
"32 339 CURVE SMOOTH",
"32 129 OFFCURVE",
"131 -10 OFFCURVE",
"344 -10 CURVE SMOOTH"
);
},
{
closed = 1;
nodes = (
"257 94 OFFCURVE",
"170 176 OFFCURVE",
"170 381 CURVE SMOOTH",
"170 557 OFFCURVE",
"229 626 OFFCURVE",
"349 626 CURVE SMOOTH",
"474 626 OFFCURVE",
"559 544 OFFCURVE",
"559 339 CURVE SMOOTH",
"559 163 OFFCURVE",
"500 94 OFFCURVE",
"383 94 CURVE SMOOTH"
);
}
);
};
layerId = "D04D9183-DC56-493B-9946-C87D971E5D7D";
paths = (
{
closed = 1;
nodes = (
"551 -10 OFFCURVE",
"681 141 OFFCURVE",
"681 381 CURVE SMOOTH",
"681 591 OFFCURVE",
"582 730 OFFCURVE",
"385 730 CURVE SMOOTH",
"162 730 OFFCURVE",
"32 579 OFFCURVE",
"32 339 CURVE SMOOTH",
"32 129 OFFCURVE",
"131 -10 OFFCURVE",
"344 -10 CURVE SMOOTH"
);
},
{
closed = 1;
nodes = (
"257 94 OFFCURVE",
"170 176 OFFCURVE",
"170 381 CURVE SMOOTH",
"170 557 OFFCURVE",
"229 626 OFFCURVE",
"349 626 CURVE SMOOTH",
"474 626 OFFCURVE",
"559 544 OFFCURVE",
"559 339 CURVE SMOOTH",
"559 163 OFFCURVE",
"500 94 OFFCURVE",
"383 94 CURVE SMOOTH"
);
},
{
closed = 1;
nodes = (
"1026 0 LINE",
"1019 201 LINE",
"932 201 LINE",
"925 127 LINE SMOOTH",
"923 103 OFFCURVE",
"912 98 OFFCURVE",
"887 98 CURVE SMOOTH",
"671 98 LINE",
"696 73 LINE",
"696 647 LINE",
"671 622 LINE",
"886 622 LINE SMOOTH",
"911 622 OFFCURVE",
"922 617 OFFCURVE",
"924 593 CURVE SMOOTH",
"931 524 LINE",
"1015 524 LINE",
"1022 720 LINE",
"575 720 LINE",
"575 614 LINE",
"593 594 LINE",
"593 158 LINE",
"575 140 LINE",
"575 0 LINE"
);
},
{
closed = 1;
nodes = (
"912 323 LINE",
"912 421 LINE",
"685 421 LINE",
"685 323 LINE"
);
}
);
width = 1066;
}
);
leftKerningGroup = O.left;
leftMetricsKey = O;
rightMetricsKey = E;
unicode = 0152;
},
{
glyphname = P;
lastChange = "2017-02-23 01:44:48 +0000";
layers = (
{
anchors = (
{
name = bottom;
position = "{173, 0}";
},
{
name = top;
position = "{309, 690}";
}
);
background = {
anchors = (
{
name = bottom;
position = "{173, 0}";
},
{
name = top;
position = "{309, 690}";
}
);
paths = (
{
closed = 1;
nodes = (
"327 0 LINE",
"327 60 LINE",
"256 68 LINE SMOOTH",
"232 71 OFFCURVE",
"226 79 OFFCURVE",
"226 106 CURVE SMOOTH",
"226 675 LINE",
"201 650 LINE",
"312 650 LINE SMOOTH",
"409 650 OFFCURVE",
"458 608 OFFCURVE",
"458 517 CURVE SMOOTH",
"458 400 OFFCURVE",
"420 349 OFFCURVE",
"307 349 CURVE SMOOTH",
"210 349 LINE",
"210 279 LINE",
"298 279 LINE SMOOTH",
"434 279 OFFCURVE",
"554 381 OFFCURVE",
"554 529 CURVE SMOOTH",
"554 676 OFFCURVE",
"473 720 OFFCURVE",
"321 720 CURVE SMOOTH",
"58 720 LINE",
"58 661 LINE",
"111 652 LINE SMOOTH",
"135 648 OFFCURVE",
"140 641 OFFCURVE",
"140 614 CURVE SMOOTH",
"140 106 LINE SMOOTH",
"140 79 OFFCURVE",
"135 72 OFFCURVE",
"111 68 CURVE SMOOTH",
"58 59 LINE",
"58 0 LINE"
);
}
);
};
layerId = "93B1D13A-641C-48C6-9569-DADD26056F4A";
paths = (
{
closed = 1;
nodes = (
"315 0 LINE",
"315 56 LINE",
"244 65 LINE SMOOTH",
"220 68 OFFCURVE",
"214 76 OFFCURVE",
"214 103 CURVE SMOOTH",
"214 676 LINE",
"188 651 LINE",
"306 651 LINE SMOOTH",
"403 651 OFFCURVE",
"452 607 OFFCURVE",
"452 515 CURVE SMOOTH",
"452 399 OFFCURVE",
"413 343 OFFCURVE",
"301 343 CURVE SMOOTH",
"198 343 LINE",
"198 275 LINE",
"289 275 LINE SMOOTH",
"432 275 OFFCURVE",
"541 373 OFFCURVE",
"541 529 CURVE SMOOTH",
"541 661 OFFCURVE",
"467 720 OFFCURVE",
"312 720 CURVE SMOOTH",
"53 720 LINE",
"53 664 LINE",
"103 655 LINE SMOOTH",
"127 651 OFFCURVE",
"132 644 OFFCURVE",
"132 617 CURVE SMOOTH",
"132 103 LINE SMOOTH",
"132 76 OFFCURVE",
"127 69 OFFCURVE",
"103 65 CURVE SMOOTH",
"53 56 LINE",
"53 0 LINE"
);
}
);
width = 562;
},
{
anchors = (
{
name = bottom;
position = "{178, 0}";
},
{
name = top;
position = "{308, 690}";
}
);
background = {
paths = (
{
closed = 1;
nodes = (
"340 0 LINE",
"340 82 LINE",
"271 90 LINE SMOOTH",
"247 93 OFFCURVE",
"241 101 OFFCURVE",
"241 128 CURVE SMOOTH",
"241 647 LINE",
"216 622 LINE",
"311 622 LINE SMOOTH",
"394 622 OFFCURVE",
"432 583 OFFCURVE",
"432 498 CURVE SMOOTH",
"432 405 OFFCURVE",
"402 360 OFFCURVE",
"317 360 CURVE SMOOTH",
"226 360 LINE",
"226 266 LINE",
"306 266 LINE SMOOTH",
"446 266 OFFCURVE",
"567 369 OFFCURVE",
"567 523 CURVE SMOOTH",
"567 665 OFFCURVE",
"485 720 OFFCURVE",
"318 720 CURVE SMOOTH",
"46 720 LINE",
"46 638 LINE",
"86 629 LINE SMOOTH",
"110 624 OFFCURVE",
"115 616 OFFCURVE",
"115 591 CURVE SMOOTH",
"115 129 LINE SMOOTH",
"115 104 OFFCURVE",
"110 96 OFFCURVE",
"86 91 CURVE SMOOTH",
"46 82 LINE",
"46 0 LINE"
);
}
);
};
layerId = "D04D9183-DC56-493B-9946-C87D971E5D7D";
paths = (
{
closed = 1;
nodes = (
"340 0 LINE",
"340 80 LINE",
"271 90 LINE SMOOTH",
"247 93 OFFCURVE",
"241 101 OFFCURVE",
"241 128 CURVE SMOOTH",
"241 647 LINE",
"216 622 LINE",
"311 622 LINE SMOOTH",
"394 622 OFFCURVE",
"432 583 OFFCURVE",
"432 498 CURVE SMOOTH",
"432 405 OFFCURVE",
"402 360 OFFCURVE",
"317 360 CURVE SMOOTH",
"226 360 LINE",
"226 266 LINE",
"306 266 LINE SMOOTH",
"446 266 OFFCURVE",
"567 369 OFFCURVE",
"567 523 CURVE SMOOTH",
"567 665 OFFCURVE",
"485 720 OFFCURVE",
"318 720 CURVE SMOOTH",
"46 720 LINE",
"46 640 LINE",
"86 629 LINE SMOOTH",
"110 622 OFFCURVE",
"115 616 OFFCURVE",
"115 591 CURVE SMOOTH",
"115 129 LINE SMOOTH",
"115 104 OFFCURVE",
"110 98 OFFCURVE",
"86 91 CURVE SMOOTH",
"46 80 LINE",
"46 0 LINE"
);
}
);
width = 580;
}
);
unicode = 0050;
},
{
glyphname = Thorn;
lastChange = "2017-02-21 22:44:59 +0000";
layers = (
{
background = {
paths = (
{
closed = 1;
nodes = (
"289 143 LINE SMOOTH",
"432 143 OFFCURVE",
"542 241 OFFCURVE",
"542 397 CURVE SMOOTH",
"542 529 OFFCURVE",
"467 588 OFFCURVE",
"312 588 CURVE SMOOTH",
"188 588 LINE",
"188 519 LINE",
"306 519 LINE SMOOTH",
"403 519 OFFCURVE",
"453 475 OFFCURVE",
"453 383 CURVE SMOOTH",
"453 267 OFFCURVE",
"413 211 OFFCURVE",
"301 211 CURVE SMOOTH",
"198 211 LINE",
"198 143 LINE"
);
}
);
};
layerId = "93B1D13A-641C-48C6-9569-DADD26056F4A";
paths = (
{
closed = 1;
nodes = (
"300 0 LINE",
"300 56 LINE",
"243 65 LINE SMOOTH",
"219 69 OFFCURVE",
"214 76 OFFCURVE",
"214 103 CURVE SMOOTH",
"214 617 LINE SMOOTH",
"214 644 OFFCURVE",
"219 651 OFFCURVE",
"243 655 CURVE SMOOTH",
"300 664 LINE",
"300 720 LINE",
"53 720 LINE",
"53 664 LINE",
"103 655 LINE SMOOTH",
"127 651 OFFCURVE",
"132 644 OFFCURVE",
"132 617 CURVE SMOOTH",
"132 103 LINE SMOOTH",
"132 76 OFFCURVE",
"127 69 OFFCURVE",
"103 65 CURVE SMOOTH",
"53 56 LINE",
"53 0 LINE"
);
},
{
closed = 1;
nodes = (
"288 145 LINE SMOOTH",
"427 145 OFFCURVE",
"542 242 OFFCURVE",
"542 393 CURVE SMOOTH",
"542 517 OFFCURVE",
"467 580 OFFCURVE",
"311 580 CURVE SMOOTH",
"198 580 LINE",
"198 511 LINE",
"307 511 LINE SMOOTH",
"403 511 OFFCURVE",
"453 469 OFFCURVE",
"453 380 CURVE SMOOTH",
"453 268 OFFCURVE",
"411 213 OFFCURVE",
"302 213 CURVE SMOOTH",
"198 213 LINE",
"198 145 LINE"
);
}
);
width = 566;
},
{
layerId = "D04D9183-DC56-493B-9946-C87D971E5D7D";
paths = (
{
closed = 1;
nodes = (
"329 0 LINE",
"329 76 LINE",
"270 85 LINE SMOOTH",
"246 89 OFFCURVE",
"241 98 OFFCURVE",
"241 123 CURVE SMOOTH",
"241 597 LINE SMOOTH",
"241 622 OFFCURVE",
"246 631 OFFCURVE",
"270 635 CURVE SMOOTH",
"321 644 LINE",
"321 720 LINE",
"46 720 LINE",
"46 638 LINE",
"86 629 LINE SMOOTH",
"110 624 OFFCURVE",
"115 616 OFFCURVE",
"115 591 CURVE SMOOTH",
"115 129 LINE SMOOTH",
"115 104 OFFCURVE",
"110 96 OFFCURVE",
"86 91 CURVE SMOOTH",
"46 82 LINE",
"46 0 LINE"
);
},
{
closed = 1;
nodes = (
"305 142 LINE SMOOTH",
"442 142 OFFCURVE",
"566 243 OFFCURVE",
"566 391 CURVE SMOOTH",
"566 535 OFFCURVE",
"482 579 OFFCURVE",
"318 579 CURVE SMOOTH",
"221 579 LINE",
"221 481 LINE",
"310 481 LINE SMOOTH",
"393 481 OFFCURVE",
"431 450 OFFCURVE",
"431 371 CURVE SMOOTH",
"431 281 OFFCURVE",
"407 236 OFFCURVE",
"315 236 CURVE SMOOTH",
"221 236 LINE",
"221 142 LINE"
);
}
);
width = 582;
}
);
leftMetricsKey = I;
unicode = 00DE;
},
{
glyphname = Q;
lastChange = "2017-02-23 01:30:01 +0000";
layers = (
{
anchors = (
{
name = bottom;
position = "{356, 0}";
},
{
name = top;
position = "{356, 690}";
}
);
background = {
anchors = (
{
name = bottom;
position = "{356, 0}";
},
{
name = top;
position = "{356, 690}";
}
);
paths = (
{
closed = 1;
nodes = (
"556 -10 OFFCURVE",
"669 135 OFFCURVE",
"669 379 CURVE SMOOTH",
"669 581 OFFCURVE",
"575 730 OFFCURVE",
"383 730 CURVE SMOOTH",
"149 730 OFFCURVE",
"36 584 OFFCURVE",
"36 341 CURVE SMOOTH",
"36 135 OFFCURVE",
"132 -10 OFFCURVE",
"322 -10 CURVE SMOOTH"
);
},
{
closed = 1;
nodes = (
"219 64 OFFCURVE",
"133 173 OFFCURVE",
"133 354 CURVE SMOOTH",
"133 554 OFFCURVE",
"178 656 OFFCURVE",
"345 656 CURVE SMOOTH",
"487 656 OFFCURVE",
"572 547 OFFCURVE",
"572 366 CURVE SMOOTH",
"572 166 OFFCURVE",
"527 64 OFFCURVE",
"361 64 CURVE SMOOTH"
);
},
{
closed = 1;
nodes = (
"244 -127 OFFCURVE",
"268 -120 OFFCURVE",
"305 -120 CURVE SMOOTH",
"394 -120 OFFCURVE",
"487 -185 OFFCURVE",
"579 -185 CURVE SMOOTH",
"624 -185 OFFCURVE",
"668 -164 OFFCURVE",
"695 -142 CURVE",
"680 -91 LINE",
"658 -103 OFFCURVE",
"631 -111 OFFCURVE",
"600 -111 CURVE SMOOTH",
"525 -111 OFFCURVE",
"425 -49 OFFCURVE",
"330 -49 CURVE SMOOTH",
"273 -49 OFFCURVE",
"233 -67 OFFCURVE",
"200 -82 CURVE",
"220 -134 LINE"
);
}
);
};
layerId = "93B1D13A-641C-48C6-9569-DADD26056F4A";
paths = (
{
closed = 1;
nodes = (
"565 -10 OFFCURVE",
"667 150 OFFCURVE",
"667 370 CURVE SMOOTH",
"667 590 OFFCURVE",
"572 730 OFFCURVE",
"372 730 CURVE SMOOTH",
"147 730 OFFCURVE",
"45 567 OFFCURVE",
"45 350 CURVE SMOOTH",
"45 130 OFFCURVE",
"140 -10 OFFCURVE",
"340 -10 CURVE SMOOTH"
);
},
{
closed = 1;
nodes = (
"224 62 OFFCURVE",
"135 166 OFFCURVE",
"135 361 CURVE SMOOTH",
"135 557 OFFCURVE",
"181 658 OFFCURVE",
"346 658 CURVE SMOOTH",
"488 658 OFFCURVE",
"577 554 OFFCURVE",
"577 359 CURVE SMOOTH",
"577 163 OFFCURVE",
"531 62 OFFCURVE",
"366 62 CURVE SMOOTH"
);
},
{
closed = 1;
nodes = (
"248 -126 OFFCURVE",
"272 -117 OFFCURVE",
"309 -117 CURVE SMOOTH",
"398 -117 OFFCURVE",
"491 -183 OFFCURVE",
"583 -183 CURVE SMOOTH",
"628 -183 OFFCURVE",
"673 -164 OFFCURVE",
"699 -142 CURVE",
"684 -91 LINE",
"662 -104 OFFCURVE",
"635 -114 OFFCURVE",
"604 -114 CURVE SMOOTH",
"529 -114 OFFCURVE",
"429 -51 OFFCURVE",
"334 -51 CURVE SMOOTH",
"277 -51 OFFCURVE",
"236 -67 OFFCURVE",
"204 -82 CURVE",
"224 -134 LINE"
);
}
);
width = 712;
},
{
anchors = (
{
name = bottom;
position = "{358, 0}";
},
{
name = top;
position = "{358, 690}";
}
);
background = {
paths = (
{
closed = 1;
nodes = (
"565 -10 OFFCURVE",
"691 145 OFFCURVE",
"691 370 CURVE SMOOTH",
"691 595 OFFCURVE",
"594 730 OFFCURVE",
"379 730 CURVE SMOOTH",
"154 730 OFFCURVE",
"28 575 OFFCURVE",
"28 350 CURVE SMOOTH",
"28 125 OFFCURVE",
"125 -10 OFFCURVE",
"340 -10 CURVE SMOOTH"
);
},
{
closed = 1;
nodes = (
"240 94 OFFCURVE",
"164 186 OFFCURVE",
"164 361 CURVE SMOOTH",
"164 551 OFFCURVE",
"209 626 OFFCURVE",
"344 626 CURVE SMOOTH",
"479 626 OFFCURVE",
"555 534 OFFCURVE",
"555 359 CURVE SMOOTH",
"555 169 OFFCURVE",
"510 94 OFFCURVE",
"375 94 CURVE SMOOTH"
);
},
{
closed = 1;
nodes = (
"255 -156 OFFCURVE",
"279 -147 OFFCURVE",
"320 -147 CURVE SMOOTH",
"405 -147 OFFCURVE",
"490 -209 OFFCURVE",
"590 -209 CURVE SMOOTH",
"637 -209 OFFCURVE",
"684 -186 OFFCURVE",
"714 -157 CURVE",
"692 -85 LINE",
"677 -94 OFFCURVE",
"652 -107 OFFCURVE",
"612 -107 CURVE SMOOTH",
"540 -107 OFFCURVE",
"441 -49 OFFCURVE",
"343 -49 CURVE SMOOTH",
"272 -49 OFFCURVE",
"224 -75 OFFCURVE",
"201 -84 CURVE",
"231 -162 LINE"
);
}
);
};
layerId = "D04D9183-DC56-493B-9946-C87D971E5D7D";
paths = (
{
closed = 1;
nodes = (
"568 -10 OFFCURVE",
"699 146 OFFCURVE",
"699 371 CURVE SMOOTH",
"699 596 OFFCURVE",
"599 730 OFFCURVE",
"387 730 CURVE SMOOTH",
"163 730 OFFCURVE",
"32 574 OFFCURVE",
"32 349 CURVE SMOOTH",
"32 124 OFFCURVE",
"132 -10 OFFCURVE",
"344 -10 CURVE SMOOTH"
);
},
{
closed = 1;
nodes = (
"250 94 OFFCURVE",
"171 186 OFFCURVE",
"171 361 CURVE SMOOTH",
"171 550 OFFCURVE",
"219 626 OFFCURVE",
"349 626 CURVE SMOOTH",
"481 626 OFFCURVE",
"560 534 OFFCURVE",
"560 359 CURVE SMOOTH",
"560 170 OFFCURVE",
"512 94 OFFCURVE",
"382 94 CURVE SMOOTH"
);
},
{
closed = 1;
nodes = (
"253 -156 OFFCURVE",
"277 -147 OFFCURVE",
"318 -147 CURVE SMOOTH",
"403 -147 OFFCURVE",
"488 -209 OFFCURVE",
"588 -209 CURVE SMOOTH",
"635 -209 OFFCURVE",
"682 -186 OFFCURVE",
"712 -157 CURVE",
"690 -85 LINE",
"675 -94 OFFCURVE",
"650 -107 OFFCURVE",
"610 -107 CURVE SMOOTH",
"538 -107 OFFCURVE",
"439 -49 OFFCURVE",
"341 -49 CURVE SMOOTH",
"270 -49 OFFCURVE",
"222 -75 OFFCURVE",
"199 -84 CURVE",
"229 -162 LINE"
);
}
);
width = 732;
}
);
leftKerningGroup = O.left;
rightKerningGroup = O.right;
unicode = 0051;
},
{
glyphname = R;
lastChange = "2017-02-23 01:45:45 +0000";
layers = (
{
anchors = (
{
name = bottom;
position = "{383, 0}";
},
{
name = top;
position = "{296, 690}";
}
);
background = {
anchors = (
{
name = bottom;
position = "{383, 0}";
},
{
name = top;
position = "{296, 690}";
}
);
paths = (
{
closed = 1;
nodes = (
"321 0 LINE",
"321 60 LINE",
"256 68 LINE SMOOTH",
"232 71 OFFCURVE",
"226 79 OFFCURVE",
"226 106 CURVE SMOOTH",
"226 675 LINE",
"201 650 LINE",
"301 650 LINE SMOOTH",
"402 650 OFFCURVE",
"453 610 OFFCURVE",
"453 530 CURVE SMOOTH",
"453 430 OFFCURVE",
"406 397 OFFCURVE",
"315 397 CURVE SMOOTH",
"210 397 LINE",
"210 327 LINE",
"256 327 LINE SMOOTH",
"293 327 OFFCURVE",
"310 314 OFFCURVE",
"339 267 CURVE SMOOTH",
"466 66 LINE SMOOTH",
"498 15 OFFCURVE",
"537 -10 OFFCURVE",
"584 -10 CURVE SMOOTH",
"612 -10 OFFCURVE",
"638 -3 OFFCURVE",
"654 9 CURVE",
"658 66 LINE",
"651 63 OFFCURVE",
"638 59 OFFCURVE",
"623 59 CURVE SMOOTH",
"593 59 OFFCURVE",
"563 75 OFFCURVE",
"541 110 CURVE SMOOTH",
"431 283 LINE SMOOTH",
"408 319 OFFCURVE",
"387 345 OFFCURVE",
"348 352 CURVE",
"348 345 LINE",
"456 351 OFFCURVE",
"550 426 OFFCURVE",
"550 541 CURVE SMOOTH",
"550 671 OFFCURVE",
"469 720 OFFCURVE",
"321 720 CURVE SMOOTH",
"58 720 LINE",
"58 661 LINE",
"111 652 LINE SMOOTH",
"135 648 OFFCURVE",
"140 641 OFFCURVE",
"140 614 CURVE SMOOTH",
"140 106 LINE SMOOTH",
"140 79 OFFCURVE",
"135 72 OFFCURVE",
"111 68 CURVE SMOOTH",
"58 59 LINE",
"58 0 LINE"
);
}
);
};
layerId = "93B1D13A-641C-48C6-9569-DADD26056F4A";
paths = (
{
closed = 1;
nodes = (
"304 0 LINE",
"304 56 LINE",
"244 65 LINE SMOOTH",
"220 69 OFFCURVE",
"214 76 OFFCURVE",
"214 103 CURVE SMOOTH",
"214 676 LINE",
"189 651 LINE",
"297 651 LINE SMOOTH",
"398 651 OFFCURVE",
"451 608 OFFCURVE",
"451 528 CURVE SMOOTH",
"451 432 OFFCURVE",
"400 393 OFFCURVE",
"307 393 CURVE SMOOTH",
"201 393 LINE",
"201 324 LINE",
"248 324 LINE SMOOTH",
"285 324 OFFCURVE",
"303 309 OFFCURVE",
"333 262 CURVE SMOOTH",
"458 65 LINE SMOOTH",
"491 14 OFFCURVE",
"527 -10 OFFCURVE",
"574 -10 CURVE SMOOTH",
"602 -10 OFFCURVE",
"628 -3 OFFCURVE",
"644 9 CURVE",
"648 66 LINE",
"641 63 OFFCURVE",
"627 59 OFFCURVE",
"612 59 CURVE SMOOTH",
"582 59 OFFCURVE",
"553 75 OFFCURVE",
"531 110 CURVE SMOOTH",
"423 280 LINE SMOOTH",
"400 316 OFFCURVE",
"378 341 OFFCURVE",
"337 348 CURVE",
"337 341 LINE",
"450 347 OFFCURVE",
"540 414 OFFCURVE",
"540 540 CURVE SMOOTH",
"540 656 OFFCURVE",
"464 720 OFFCURVE",
"313 720 CURVE SMOOTH",
"53 720 LINE",
"53 664 LINE",
"103 655 LINE SMOOTH",
"127 651 OFFCURVE",
"132 644 OFFCURVE",
"132 617 CURVE SMOOTH",
"132 103 LINE SMOOTH",
"132 76 OFFCURVE",
"127 69 OFFCURVE",
"103 65 CURVE SMOOTH",
"53 56 LINE",
"53 0 LINE"
);
}
);
width = 633;
},
{
anchors = (
{
name = bottom;
position = "{379, 0}";
},
{
name = top;
position = "{295, 690}";
}
);
background = {
paths = (
{
closed = 1;
nodes = (
"327 0 LINE",
"327 82 LINE",
"271 90 LINE SMOOTH",
"247 93 OFFCURVE",
"241 101 OFFCURVE",
"241 128 CURVE SMOOTH",
"241 647 LINE",
"216 622 LINE",
"316 622 LINE SMOOTH",
"397 622 OFFCURVE",
"433 583 OFFCURVE",
"433 513 CURVE SMOOTH",
"433 435 OFFCURVE",
"395 401 OFFCURVE",
"319 401 CURVE SMOOTH",
"225 401 LINE",
"225 305 LINE",
"251 305 LINE SMOOTH",
"286 305 OFFCURVE",
"305 292 OFFCURVE",
"327 255 CURVE SMOOTH",
"433 82 LINE SMOOTH",
"469 23 OFFCURVE",
"516 -10 OFFCURVE",
"573 -10 CURVE SMOOTH",
"606 -10 OFFCURVE",
"634 1 OFFCURVE",
"652 12 CURVE",
"662 102 LINE",
"651 97 OFFCURVE",
"640 94 OFFCURVE",
"622 94 CURVE SMOOTH",
"587 94 OFFCURVE",
"566 109 OFFCURVE",
"542 146 CURVE SMOOTH",
"467 262 LINE SMOOTH",
"432 316 OFFCURVE",
"402 342 OFFCURVE",
"356 343 CURVE",
"356 335 LINE",
"478 337 OFFCURVE",
"568 414 OFFCURVE",
"568 535 CURVE SMOOTH",
"568 659 OFFCURVE",
"488 720 OFFCURVE",
"327 720 CURVE SMOOTH",
"46 720 LINE",
"46 638 LINE",
"86 629 LINE SMOOTH",
"110 624 OFFCURVE",
"115 618 OFFCURVE",
"115 591 CURVE SMOOTH",
"115 129 LINE SMOOTH",
"115 102 OFFCURVE",
"110 96 OFFCURVE",
"86 91 CURVE SMOOTH",
"46 82 LINE",
"46 0 LINE"
);
}
);
};
layerId = "D04D9183-DC56-493B-9946-C87D971E5D7D";
paths = (
{
closed = 1;
nodes = (
"327 0 LINE",
"327 80 LINE",
"271 90 LINE SMOOTH",
"247 94 OFFCURVE",
"241 101 OFFCURVE",
"241 128 CURVE SMOOTH",
"241 647 LINE",
"216 622 LINE",
"316 622 LINE SMOOTH",
"397 622 OFFCURVE",
"433 583 OFFCURVE",
"433 513 CURVE SMOOTH",
"433 435 OFFCURVE",
"395 401 OFFCURVE",
"319 401 CURVE SMOOTH",
"225 401 LINE",
"225 305 LINE",
"251 305 LINE SMOOTH",
"286 305 OFFCURVE",
"305 292 OFFCURVE",
"327 255 CURVE SMOOTH",
"433 82 LINE SMOOTH",
"469 23 OFFCURVE",
"516 -10 OFFCURVE",
"573 -10 CURVE SMOOTH",
"606 -10 OFFCURVE",
"634 1 OFFCURVE",
"652 12 CURVE",
"662 102 LINE",
"651 97 OFFCURVE",
"640 94 OFFCURVE",
"622 94 CURVE SMOOTH",
"587 94 OFFCURVE",
"566 109 OFFCURVE",
"542 146 CURVE SMOOTH",
"467 262 LINE SMOOTH",
"432 316 OFFCURVE",
"402 342 OFFCURVE",
"356 343 CURVE",
"356 335 LINE",
"478 337 OFFCURVE",
"568 414 OFFCURVE",
"568 535 CURVE SMOOTH",
"568 659 OFFCURVE",
"488 720 OFFCURVE",
"327 720 CURVE SMOOTH",
"46 720 LINE",
"46 640 LINE",
"86 629 LINE SMOOTH",
"110 622 OFFCURVE",
"115 618 OFFCURVE",
"115 591 CURVE SMOOTH",
"115 129 LINE SMOOTH",
"115 102 OFFCURVE",
"110 98 OFFCURVE",
"86 91 CURVE SMOOTH",
"46 80 LINE",
"46 0 LINE"
);
}
);
width = 644;
}
);
rightKerningGroup = R.right;
unicode = 0052;
},
{
glyphname = S;
lastChange = "2017-02-22 22:21:24 +0000";
layers = (
{
anchors = (
{
name = bottom;
position = "{275, 0}";
},
{
name = top;
position = "{270, 720}";
}
);
background = {
anchors = (
{
name = bottom;
position = "{275, 0}";
},
{
name = top;
position = "{270, 720}";
}
);
paths = (
{
closed = 1;
nodes = (
"392 -10 OFFCURVE",
"503 85 OFFCURVE",
"503 202 CURVE SMOOTH",
"503 319 OFFCURVE",
"428 359 OFFCURVE",
"341 393 CURVE SMOOTH",
"256 426 LINE SMOOTH",
"168 460 OFFCURVE",
"140 494 OFFCURVE",
"140 559 CURVE SMOOTH",
"140 626 OFFCURVE",
"184 662 OFFCURVE",
"260 662 CURVE SMOOTH",
"309 662 OFFCURVE",
"351 651 OFFCURVE",
"377 637 CURVE",
"392 547 LINE",
"464 547 LINE",
"477 701 LINE",
"421 716 OFFCURVE",
"367 729 OFFCURVE",
"278 729 CURVE SMOOTH",
"137 729 OFFCURVE",
"48 639 OFFCURVE",
"48 534 CURVE SMOOTH",
"48 440 OFFCURVE",
"107 388 OFFCURVE",
"194 353 CURVE SMOOTH",
"303 309 LINE SMOOTH",
"398 271 OFFCURVE",
"414 242 OFFCURVE",
"414 187 CURVE SMOOTH",
"414 109 OFFCURVE",
"344 60 OFFCURVE",
"269 60 CURVE SMOOTH",
"211 60 OFFCURVE",
"166 74 OFFCURVE",
"135 91 CURVE",
"120 197 LINE",
"47 197 LINE",
"35 33 LINE",
"94 7 OFFCURVE",
"162 -10 OFFCURVE",
"248 -10 CURVE SMOOTH"
);
}
);
};
layerId = "93B1D13A-641C-48C6-9569-DADD26056F4A";
paths = (
{
closed = 1;
nodes = (
"400 -10 OFFCURVE",
"508 83 OFFCURVE",
"508 202 CURVE SMOOTH",
"508 318 OFFCURVE",
"430 357 OFFCURVE",
"342 392 CURVE SMOOTH",
"259 425 LINE SMOOTH",
"168 461 OFFCURVE",
"141 493 OFFCURVE",
"141 560 CURVE SMOOTH",
"141 628 OFFCURVE",
"188 663 OFFCURVE",
"262 663 CURVE SMOOTH",
"314 663 OFFCURVE",
"355 655 OFFCURVE",
"385 642 CURVE",
"400 547 LINE",
"466 547 LINE",
"479 699 LINE",
"422 717 OFFCURVE",
"370 729 OFFCURVE",
"282 729 CURVE SMOOTH",
"143 729 OFFCURVE",
"58 641 OFFCURVE",
"58 535 CURVE SMOOTH",
"58 442 OFFCURVE",
"116 391 OFFCURVE",
"202 356 CURVE SMOOTH",
"311 312 LINE SMOOTH",
"408 273 OFFCURVE",
"425 243 OFFCURVE",
"425 187 CURVE SMOOTH",
"425 107 OFFCURVE",
"351 56 OFFCURVE",
"276 56 CURVE SMOOTH",
"217 56 OFFCURVE",
"172 68 OFFCURVE",
"138 83 CURVE",
"123 197 LINE",
"57 197 LINE",
"45 35 LINE",
"108 5 OFFCURVE",
"175 -10 OFFCURVE",
"256 -10 CURVE SMOOTH"
);
}
);
width = 553;
},
{
anchors = (
{
name = bottom;
position = "{291, 0}";
},
{
name = top;
position = "{293, 720}";
}
);
background = {
paths = (
{
closed = 1;
nodes = (
"1155 -10 OFFCURVE",
"1266 82 OFFCURVE",
"1266 202 CURVE SMOOTH",
"1266 326 OFFCURVE",
"1183 367 OFFCURVE",
"1100 400 CURVE SMOOTH",
"1003 439 LINE SMOOTH",
"940 464 OFFCURVE",
"912 493 OFFCURVE",
"912 548 CURVE SMOOTH",
"912 603 OFFCURVE",
"948 636 OFFCURVE",
"1021 636 CURVE SMOOTH",
"1058 636 OFFCURVE",
"1094 627 OFFCURVE",
"1116 616 CURVE",
"1131 537 LINE",
"1228 537 LINE",
"1242 698 LINE",
"1198 710 OFFCURVE",
"1122 729 OFFCURVE",
"1030 729 CURVE SMOOTH",
"877 729 OFFCURVE",
"780 640 OFFCURVE",
"780 526 CURVE SMOOTH",
"780 426 OFFCURVE",
"840 368 OFFCURVE",
"928 332 CURVE SMOOTH",
"1040 286 LINE SMOOTH",
"1116 255 OFFCURVE",
"1137 234 OFFCURVE",
"1137 184 CURVE SMOOTH",
"1137 121 OFFCURVE",
"1084 86 OFFCURVE",
"1023 86 CURVE SMOOTH",
"960 86 OFFCURVE",
"915 104 OFFCURVE",
"893 116 CURVE",
"880 207 LINE",
"780 207 LINE",
"768 36 LINE",
"799 21 OFFCURVE",
"884 -10 OFFCURVE",
"996 -10 CURVE SMOOTH"
);
},
{
closed = 1;
nodes = (
"423 -10 OFFCURVE",
"534 82 OFFCURVE",
"534 202 CURVE SMOOTH",
"534 326 OFFCURVE",
"451 367 OFFCURVE",
"368 400 CURVE SMOOTH",
"271 439 LINE SMOOTH",
"208 464 OFFCURVE",
"179 493 OFFCURVE",
"179 548 CURVE SMOOTH",
"179 603 OFFCURVE",
"216 636 OFFCURVE",
"289 636 CURVE SMOOTH",
"326 636 OFFCURVE",
"362 628 OFFCURVE",
"384 618 CURVE",
"399 537 LINE",
"496 537 LINE",
"510 698 LINE",
"466 710 OFFCURVE",
"390 729 OFFCURVE",
"298 729 CURVE SMOOTH",
"145 729 OFFCURVE",
"48 638 OFFCURVE",
"48 524 CURVE SMOOTH",
"48 426 OFFCURVE",
"108 368 OFFCURVE",
"196 332 CURVE SMOOTH",
"308 286 LINE SMOOTH",
"384 255 OFFCURVE",
"405 234 OFFCURVE",
"405 184 CURVE SMOOTH",
"405 121 OFFCURVE",
"349 86 OFFCURVE",
"288 86 CURVE SMOOTH",
"230 86 OFFCURVE",
"185 102 OFFCURVE",
"161 114 CURVE",
"148 207 LINE",
"48 207 LINE",
"36 36 LINE",
"67 21 OFFCURVE",
"152 -10 OFFCURVE",
"264 -10 CURVE SMOOTH"
);
}
);
};
layerId = "D04D9183-DC56-493B-9946-C87D971E5D7D";
paths = (
{
closed = 1;
nodes = (
"423 -10 OFFCURVE",
"534 81 OFFCURVE",
"534 211 CURVE SMOOTH",
"534 299 OFFCURVE",
"481 350 OFFCURVE",
"378 394 CURVE SMOOTH",
"280 436 LINE SMOOTH",
"208 467 OFFCURVE",
"179 493 OFFCURVE",
"179 548 CURVE SMOOTH",
"179 603 OFFCURVE",
"216 636 OFFCURVE",
"289 636 CURVE SMOOTH",
"326 636 OFFCURVE",
"362 628 OFFCURVE",
"384 618 CURVE",
"399 537 LINE",
"496 537 LINE",
"510 698 LINE",
"466 710 OFFCURVE",
"390 729 OFFCURVE",
"298 729 CURVE SMOOTH",
"145 729 OFFCURVE",
"48 636 OFFCURVE",
"48 522 CURVE SMOOTH",
"48 424 OFFCURVE",
"109 370 OFFCURVE",
"205 329 CURVE SMOOTH",
"316 282 LINE SMOOTH",
"384 253 OFFCURVE",
"405 232 OFFCURVE",
"405 184 CURVE SMOOTH",
"405 121 OFFCURVE",
"349 86 OFFCURVE",
"293 86 CURVE SMOOTH",
"230 86 OFFCURVE",
"185 102 OFFCURVE",
"161 114 CURVE",
"148 207 LINE",
"48 207 LINE",
"36 36 LINE",
"67 21 OFFCURVE",
"152 -10 OFFCURVE",
"264 -10 CURVE SMOOTH"
);
}
);
width = 570;
}
);
leftKerningGroup = S.left;
rightKerningGroup = S.right;
unicode = 0053;
},
{
color = 4;
glyphname = T;
lastChange = "2017-03-02 16:07:23 +0000";
layers = (
{
anchors = (
{
name = bottom;
position = "{302, 0}";
},
{
name = center;
position = "{302, 360}";
},
{
name = top;
position = "{302, 690}";
}
);
background = {
anchors = (
{
name = bottom;
position = "{302, 0}";
},
{
name = center;
position = "{302, 360}";
},
{
name = top;
position = "{302, 690}";
}
);
paths = (
{
closed = 1;
nodes = (
"432 0 LINE",
"432 59 LINE",
"375 68 LINE SMOOTH",
"351 72 OFFCURVE",
"346 79 OFFCURVE",
"346 106 CURVE SMOOTH",
"346 666 LINE",
"260 666 LINE",
"260 106 LINE SMOOTH",
"260 79 OFFCURVE",
"255 72 OFFCURVE",
"231 68 CURVE SMOOTH",
"174 59 LINE",
"174 0 LINE"
);
},
{
closed = 1;
nodes = (
"77 548 LINE",
"83 620 LINE SMOOTH",
"85 644 OFFCURVE",
"95 649 OFFCURVE",
"120 649 CURVE SMOOTH",
"485 649 LINE SMOOTH",
"510 649 OFFCURVE",
"521 644 OFFCURVE",
"523 620 CURVE SMOOTH",
"529 548 LINE",
"593 548 LINE",
"599 720 LINE",
"7 720 LINE",
"13 548 LINE"
);
}
);
};
layerId = "93B1D13A-641C-48C6-9569-DADD26056F4A";
paths = (
{
closed = 1;
nodes = (
"428 0 LINE",
"428 56 LINE",
"372 65 LINE SMOOTH",
"348 69 OFFCURVE",
"343 76 OFFCURVE",
"343 103 CURVE SMOOTH",
"343 669 LINE",
"261 669 LINE",
"261 103 LINE SMOOTH",
"261 76 OFFCURVE",
"256 69 OFFCURVE",
"232 65 CURVE SMOOTH",
"176 56 LINE",
"176 0 LINE"
);
},
{
closed = 1;
nodes = (
"74 548 LINE",
"80 622 LINE SMOOTH",
"82 646 OFFCURVE",
"92 651 OFFCURVE",
"117 651 CURVE SMOOTH",
"486 651 LINE SMOOTH",
"511 651 OFFCURVE",
"522 646 OFFCURVE",
"524 622 CURVE SMOOTH",
"530 548 LINE",
"591 548 LINE",
"597 720 LINE",
"7 720 LINE",
"13 548 LINE"
);
}
);
width = 604;
},
{
anchors = (
{
name = bottom;
position = "{309, 0}";
},
{
name = center;
position = "{309, 360}";
},
{
name = top;
position = "{309, 690}";
}
);
background = {
paths = (
{
closed = 1;
nodes = (
"461 0 LINE",
"461 79 LINE",
"406 88 LINE SMOOTH",
"382 92 OFFCURVE",
"377 99 OFFCURVE",
"377 126 CURVE SMOOTH",
"377 646 LINE",
"251 646 LINE",
"251 126 LINE SMOOTH",
"251 99 OFFCURVE",
"246 92 OFFCURVE",
"222 88 CURVE SMOOTH",
"167 79 LINE",
"167 0 LINE"
);
},
{
closed = 1;
nodes = (
"99 523 LINE",
"106 593 LINE SMOOTH",
"108 617 OFFCURVE",
"118 622 OFFCURVE",
"143 622 CURVE SMOOTH",
"484 622 LINE SMOOTH",
"509 622 OFFCURVE",
"520 617 OFFCURVE",
"522 593 CURVE SMOOTH",
"529 523 LINE",
"613 523 LINE",
"620 720 LINE",
"8 720 LINE",
"15 523 LINE"
);
}
);
};
layerId = "D04D9183-DC56-493B-9946-C87D971E5D7D";
paths = (
{
closed = 1;
nodes = (
"456 0 LINE",
"456 82 LINE",
"401 91 LINE SMOOTH",
"377 95 OFFCURVE",
"372 102 OFFCURVE",
"372 129 CURVE SMOOTH",
"372 646 LINE",
"245 646 LINE",
"245 129 LINE SMOOTH",
"245 102 OFFCURVE",
"240 95 OFFCURVE",
"216 91 CURVE SMOOTH",
"161 82 LINE",
"161 0 LINE"
);
},
{
closed = 1;
nodes = (
"94 523 LINE",
"101 593 LINE SMOOTH",
"103 617 OFFCURVE",
"113 622 OFFCURVE",
"138 622 CURVE SMOOTH",
"478 622 LINE SMOOTH",
"503 622 OFFCURVE",
"514 617 OFFCURVE",
"516 593 CURVE SMOOTH",
"523 523 LINE",
"607 523 LINE",
"614 720 LINE",
"3 720 LINE",
"10 523 LINE"
);
}
);
width = 617;
}
);
leftKerningGroup = T.left;
rightKerningGroup = T.right;
unicode = 0054;
},
{
glyphname = Tbar;
lastChange = "2017-02-21 22:46:51 +0000";
layers = (
{
background = {
components = (
{
name = T;
}
);
paths = (
{
closed = 1;
nodes = (
"95 396 LINE",
"511 396 LINE",
"511 331 LINE",
"95 331 LINE"
);
}
);
};
components = (
{
name = T;
}
);
layerId = "93B1D13A-641C-48C6-9569-DADD26056F4A";
paths = (
{
closed = 1;
nodes = (
"511 332 LINE",
"511 394 LINE",
"95 394 LINE",
"95 332 LINE"
);
}
);
width = 604;
},
{
background = {
components = (
{
name = T;
}
);
paths = (
{
closed = 1;
nodes = (
"517 310 LINE",
"517 406 LINE",
"100 406 LINE",
"100 310 LINE"
);
}
);
};
components = (
{
name = T;
}
);
layerId = "D04D9183-DC56-493B-9946-C87D971E5D7D";
paths = (
{
closed = 1;
nodes = (
"521 323 LINE",
"521 393 LINE",
"95 393 LINE",
"95 323 LINE"
);
}
);
width = 617;
}
);
leftKerningGroup = T.left;
rightKerningGroup = T.right;
unicode = 0166;
},
{
glyphname = U;
lastChange = "2017-03-02 15:45:00 +0000";
layers = (
{
anchors = (
{
name = bottom;
position = "{351, 0}";
},
{
name = ogonek;
position = "{457, 24}";
},
{
name = top;
position = "{352, 690}";
},
{
name = topright;
position = "{689, 690}";
}
);
background = {
anchors = (
{
name = bottom;
position = "{351, 0}";
},
{
name = ogonek;
position = "{457, 24}";
},
{
name = top;
position = "{352, 690}";
},
{
name = topright;
position = "{689, 690}";
}
);
paths = (
{
closed = 1;
nodes = (
"544 -10 OFFCURVE",
"607 120 OFFCURVE",
"607 232 CURVE SMOOTH",
"607 614 LINE SMOOTH",
"607 641 OFFCURVE",
"612 648 OFFCURVE",
"636 652 CURVE SMOOTH",
"689 661 LINE",
"689 720 LINE",
"443 720 LINE",
"443 661 LINE",
"496 652 LINE SMOOTH",
"520 648 OFFCURVE",
"525 641 OFFCURVE",
"525 614 CURVE SMOOTH",
"525 256 LINE SMOOTH",
"525 104 OFFCURVE",
"472 70 OFFCURVE",
"376 70 CURVE SMOOTH",
"252 70 OFFCURVE",
"190 129 OFFCURVE",
"190 248 CURVE SMOOTH",
"190 614 LINE SMOOTH",
"190 641 OFFCURVE",
"195 648 OFFCURVE",
"219 652 CURVE SMOOTH",
"272 661 LINE",
"272 720 LINE",
"22 720 LINE",
"22 661 LINE",
"75 652 LINE SMOOTH",
"99 648 OFFCURVE",
"104 641 OFFCURVE",
"104 614 CURVE SMOOTH",
"104 232 LINE SMOOTH",
"104 76 OFFCURVE",
"186 -10 OFFCURVE",
"345 -10 CURVE SMOOTH"
);
}
);
};
layerId = "93B1D13A-641C-48C6-9569-DADD26056F4A";
paths = (
{
closed = 1;
nodes = (
"506 -10 OFFCURVE",
"600 89 OFFCURVE",
"600 246 CURVE SMOOTH",
"600 617 LINE SMOOTH",
"600 644 OFFCURVE",
"605 651 OFFCURVE",
"629 655 CURVE SMOOTH",
"679 664 LINE",
"679 720 LINE",
"443 720 LINE",
"443 664 LINE",
"493 655 LINE SMOOTH",
"517 651 OFFCURVE",
"522 644 OFFCURVE",
"522 617 CURVE SMOOTH",
"522 260 LINE SMOOTH",
"522 105 OFFCURVE",
"469 68 OFFCURVE",
"365 68 CURVE SMOOTH",
"247 68 OFFCURVE",
"181 123 OFFCURVE",
"181 252 CURVE SMOOTH",
"181 617 LINE SMOOTH",
"181 644 OFFCURVE",
"186 651 OFFCURVE",
"210 655 CURVE SMOOTH",
"260 664 LINE",
"260 720 LINE",
"20 720 LINE",
"20 664 LINE",
"70 655 LINE SMOOTH",
"94 651 OFFCURVE",
"99 644 OFFCURVE",
"99 617 CURVE SMOOTH",
"99 237 LINE SMOOTH",
"99 67 OFFCURVE",
"199 -10 OFFCURVE",
"343 -10 CURVE SMOOTH"
);
}
);
width = 699;
},
{
anchors = (
{
name = bottom;
position = "{363, 0}";
},
{
name = ogonek;
position = "{472, 24}";
},
{
name = top;
position = "{363, 690}";
},
{
name = topright;
position = "{705, 690}";
}
);
background = {
paths = (
{
closed = 1;
nodes = (
"507 -10 OFFCURVE",
"626 78 OFFCURVE",
"626 238 CURVE SMOOTH",
"626 591 LINE SMOOTH",
"626 618 OFFCURVE",
"631 624 OFFCURVE",
"655 629 CURVE SMOOTH",
"695 638 LINE",
"695 720 LINE",
"431 720 LINE",
"431 638 LINE",
"477 629 LINE SMOOTH",
"501 624 OFFCURVE",
"506 618 OFFCURVE",
"506 591 CURVE SMOOTH",
"506 254 LINE SMOOTH",
"506 130 OFFCURVE",
"470 94 OFFCURVE",
"378 94 CURVE SMOOTH",
"288 94 OFFCURVE",
"219 139 OFFCURVE",
"219 250 CURVE SMOOTH",
"219 591 LINE SMOOTH",
"219 618 OFFCURVE",
"224 624 OFFCURVE",
"248 629 CURVE SMOOTH",
"294 638 LINE",
"294 720 LINE",
"23 720 LINE",
"23 638 LINE",
"63 629 LINE SMOOTH",
"87 624 OFFCURVE",
"92 618 OFFCURVE",
"92 591 CURVE SMOOTH",
"92 238 LINE SMOOTH",
"92 70 OFFCURVE",
"191 -10 OFFCURVE",
"352 -10 CURVE SMOOTH"
);
}
);
};
layerId = "D04D9183-DC56-493B-9946-C87D971E5D7D";
paths = (
{
closed = 1;
nodes = (
"507 -10 OFFCURVE",
"626 78 OFFCURVE",
"626 238 CURVE SMOOTH",
"626 591 LINE SMOOTH",
"626 618 OFFCURVE",
"631 622 OFFCURVE",
"655 629 CURVE SMOOTH",
"695 640 LINE",
"695 720 LINE",
"431 720 LINE",
"431 640 LINE",
"477 629 LINE SMOOTH",
"501 623 OFFCURVE",
"506 618 OFFCURVE",
"506 591 CURVE SMOOTH",
"506 254 LINE SMOOTH",
"506 130 OFFCURVE",
"470 94 OFFCURVE",
"378 94 CURVE SMOOTH",
"288 94 OFFCURVE",
"219 139 OFFCURVE",
"219 250 CURVE SMOOTH",
"219 591 LINE SMOOTH",
"219 618 OFFCURVE",
"224 623 OFFCURVE",
"248 629 CURVE SMOOTH",
"294 640 LINE",
"294 720 LINE",
"23 720 LINE",
"23 640 LINE",
"63 629 LINE SMOOTH",
"87 622 OFFCURVE",
"92 618 OFFCURVE",
"92 591 CURVE SMOOTH",
"92 238 LINE SMOOTH",
"92 70 OFFCURVE",
"191 -10 OFFCURVE",
"352 -10 CURVE SMOOTH"
);
}
);
width = 718;
}
);
leftKerningGroup = U.left;
rightKerningGroup = U.right;
unicode = 0055;
},
{
glyphname = Uhorn;
lastChange = "2017-03-02 16:31:07 +0000";
layers = (
{
anchors = (
{
name = bottom;
position = "{358, 0}";
},
{
name = ogonek;
position = "{464, 24}";
},
{
name = top;
position = "{352, 690}";
},
{
name = topright;
position = "{699, 690}";
}
);
background = {
anchors = (
{
name = bottom;
position = "{358, 0}";
},
{
name = ogonek;
position = "{464, 24}";
},
{
name = top;
position = "{358, 690}";
},
{
name = topright;
position = "{699, 690}";
}
);
paths = (
{
closed = 1;
nodes = (
"544 -10 OFFCURVE",
"607 120 OFFCURVE",
"607 232 CURVE SMOOTH",
"607 619 LINE SMOOTH",
"607 648 OFFCURVE",
"620 653 OFFCURVE",
"636 657 CURVE SMOOTH",
"710 677 OFFCURVE",
"782 718 OFFCURVE",
"782 830 CURVE SMOOTH",
"782 849 OFFCURVE",
"778 871 OFFCURVE",
"774 885 CURVE",
"692 873 LINE",
"697 854 OFFCURVE",
"700 838 OFFCURVE",
"700 819 CURVE SMOOTH",
"700 751 OFFCURVE",
"675 720 OFFCURVE",
"609 720 CURVE SMOOTH",
"443 720 LINE",
"443 661 LINE",
"496 652 LINE SMOOTH",
"520 648 OFFCURVE",
"525 641 OFFCURVE",
"525 614 CURVE SMOOTH",
"525 256 LINE SMOOTH",
"525 104 OFFCURVE",
"472 70 OFFCURVE",
"376 70 CURVE SMOOTH",
"252 70 OFFCURVE",
"190 129 OFFCURVE",
"190 248 CURVE SMOOTH",
"190 614 LINE SMOOTH",
"190 641 OFFCURVE",
"195 648 OFFCURVE",
"219 652 CURVE SMOOTH",
"272 661 LINE",
"272 720 LINE",
"22 720 LINE",
"22 661 LINE",
"75 652 LINE SMOOTH",
"99 648 OFFCURVE",
"104 641 OFFCURVE",
"104 614 CURVE SMOOTH",
"104 232 LINE SMOOTH",
"104 76 OFFCURVE",
"186 -10 OFFCURVE",
"345 -10 CURVE SMOOTH"
);
}
);
};
layerId = "93B1D13A-641C-48C6-9569-DADD26056F4A";
paths = (
{
closed = 1;
nodes = (
"506 -10 OFFCURVE",
"600 89 OFFCURVE",
"600 246 CURVE SMOOTH",
"600 617 LINE SMOOTH",
"600 644 OFFCURVE",
"617 651 OFFCURVE",
"636 657 CURVE SMOOTH",
"710 677 OFFCURVE",
"781 718 OFFCURVE",
"781 830 CURVE SMOOTH",
"781 849 OFFCURVE",
"777 871 OFFCURVE",
"773 885 CURVE",
"693 873 LINE",
"698 854 OFFCURVE",
"701 838 OFFCURVE",
"701 819 CURVE SMOOTH",
"701 751 OFFCURVE",
"675 720 OFFCURVE",
"609 720 CURVE SMOOTH",
"443 720 LINE",
"443 664 LINE",
"493 655 LINE SMOOTH",
"517 651 OFFCURVE",
"522 644 OFFCURVE",
"522 617 CURVE SMOOTH",
"522 260 LINE SMOOTH",
"522 105 OFFCURVE",
"469 68 OFFCURVE",
"365 68 CURVE SMOOTH",
"247 68 OFFCURVE",
"181 123 OFFCURVE",
"181 252 CURVE SMOOTH",
"181 617 LINE SMOOTH",
"181 644 OFFCURVE",
"186 651 OFFCURVE",
"210 655 CURVE SMOOTH",
"260 664 LINE",
"260 720 LINE",
"20 720 LINE",
"20 664 LINE",
"70 655 LINE SMOOTH",
"94 651 OFFCURVE",
"99 644 OFFCURVE",
"99 617 CURVE SMOOTH",
"99 237 LINE SMOOTH",
"99 67 OFFCURVE",
"199 -10 OFFCURVE",
"343 -10 CURVE SMOOTH"
);
}
);
width = 714;
},
{
anchors = (
{
name = bottom;
position = "{364, 0}";
},
{
name = ogonek;
position = "{473, 24}";
},
{
name = top;
position = "{364, 690}";
},
{
name = topright;
position = "{718, 690}";
}
);
layerId = "D04D9183-DC56-493B-9946-C87D971E5D7D";
paths = (
{
closed = 1;
nodes = (
"507 -10 OFFCURVE",
"626 78 OFFCURVE",
"626 238 CURVE SMOOTH",
"626 601 LINE SMOOTH",
"626 628 OFFCURVE",
"632 636 OFFCURVE",
"655 645 CURVE SMOOTH",
"724 673 OFFCURVE",
"773 725 OFFCURVE",
"773 826 CURVE SMOOTH",
"773 846 OFFCURVE",
"769 872 OFFCURVE",
"763 891 CURVE",
"651 877 LINE",
"658 859 OFFCURVE",
"663 834 OFFCURVE",
"663 813 CURVE SMOOTH",
"663 752 OFFCURVE",
"642 720 OFFCURVE",
"581 720 CURVE SMOOTH",
"431 720 LINE",
"431 638 LINE",
"477 629 LINE SMOOTH",
"501 624 OFFCURVE",
"506 618 OFFCURVE",
"506 591 CURVE SMOOTH",
"506 254 LINE SMOOTH",
"506 130 OFFCURVE",
"470 94 OFFCURVE",
"378 94 CURVE SMOOTH",
"288 94 OFFCURVE",
"219 139 OFFCURVE",
"219 250 CURVE SMOOTH",
"219 591 LINE SMOOTH",
"219 618 OFFCURVE",
"224 624 OFFCURVE",
"248 629 CURVE SMOOTH",
"294 638 LINE",
"294 720 LINE",
"23 720 LINE",
"23 638 LINE",
"63 629 LINE SMOOTH",
"87 624 OFFCURVE",
"92 618 OFFCURVE",
"92 591 CURVE SMOOTH",
"92 238 LINE SMOOTH",
"92 70 OFFCURVE",
"191 -10 OFFCURVE",
"352 -10 CURVE SMOOTH"
);
}
);
width = 725;
}
);
leftKerningGroup = U.left;
leftMetricsKey = U;
rightKerningGroup = U.right;
unicode = 01AF;
},
{
color = 4;
glyphname = V;
lastChange = "2017-03-02 16:07:37 +0000";
layers = (
{
anchors = (
{
name = bottom;
position = "{343, 0}";
},
{
name = top;
position = "{337, 690}";
}
);
background = {
anchors = (
{
name = bottom;
position = "{343, 0}";
},
{
name = top;
position = "{337, 690}";
}
);
paths = (
{
closed = 1;
nodes = (
"384 1 LINE",
"582 614 LINE SMOOTH",
"593 647 OFFCURVE",
"603 654 OFFCURVE",
"630 657 CURVE SMOOTH",
"667 661 LINE",
"667 720 LINE",
"421 720 LINE",
"421 662 LINE",
"489 654 LINE SMOOTH",
"502 652 OFFCURVE",
"506 646 OFFCURVE",
"506 638 CURVE SMOOTH",
"506 631 OFFCURVE",
"504 624 OFFCURVE",
"501 614 CURVE SMOOTH",
"376 203 LINE",
"340 81 LINE",
"366 81 LINE",
"327 203 LINE",
"186 614 LINE SMOOTH",
"183 624 OFFCURVE",
"181 631 OFFCURVE",
"181 638 CURVE SMOOTH",
"181 646 OFFCURVE",
"185 652 OFFCURVE",
"198 654 CURVE SMOOTH",
"263 662 LINE",
"263 720 LINE",
"-6 720 LINE",
"-6 661 LINE",
"30 657 LINE SMOOTH",
"61 654 OFFCURVE",
"77 646 OFFCURVE",
"89 614 CURVE SMOOTH",
"309 1 LINE"
);
}
);
};
layerId = "93B1D13A-641C-48C6-9569-DADD26056F4A";
paths = (
{
closed = 1;
nodes = (
"380 1 LINE",
"576 617 LINE SMOOTH",
"587 650 OFFCURVE",
"597 657 OFFCURVE",
"624 660 CURVE SMOOTH",
"658 664 LINE",
"658 720 LINE",
"420 720 LINE",
"420 665 LINE",
"487 657 LINE SMOOTH",
"500 655 OFFCURVE",
"504 649 OFFCURVE",
"504 641 CURVE SMOOTH",
"504 634 OFFCURVE",
"502 627 OFFCURVE",
"499 617 CURVE SMOOTH",
"372 203 LINE",
"338 81 LINE",
"352 81 LINE",
"314 203 LINE",
"173 617 LINE SMOOTH",
"170 627 OFFCURVE",
"168 634 OFFCURVE",
"168 641 CURVE SMOOTH",
"168 649 OFFCURVE",
"172 655 OFFCURVE",
"185 657 CURVE SMOOTH",
"248 665 LINE",
"248 720 LINE",
"-5 720 LINE",
"-5 664 LINE",
"28 660 LINE SMOOTH",
"59 656 OFFCURVE",
"76 649 OFFCURVE",
"87 617 CURVE SMOOTH",
"301 1 LINE"
);
}
);
width = 655;
},
{
anchors = (
{
name = bottom;
position = "{350, 0}";
},
{
name = top;
position = "{353, 690}";
}
);
background = {
paths = (
{
closed = 1;
nodes = (
"414 0 LINE",
"609 591 LINE SMOOTH",
"621 626 OFFCURVE",
"629 629 OFFCURVE",
"657 634 CURVE SMOOTH",
"681 638 LINE",
"681 720 LINE",
"421 720 LINE",
"421 639 LINE",
"483 631 LINE SMOOTH",
"495 629 OFFCURVE",
"500 621 OFFCURVE",
"500 614 CURVE SMOOTH",
"500 608 OFFCURVE",
"498 602 OFFCURVE",
"495 592 CURVE SMOOTH",
"375 212 LINE",
"358 115 LINE",
"371 115 LINE",
"345 212 LINE",
"213 591 LINE SMOOTH",
"210 601 OFFCURVE",
"208 607 OFFCURVE",
"208 614 CURVE SMOOTH",
"208 621 OFFCURVE",
"212 629 OFFCURVE",
"224 631 CURVE SMOOTH",
"287 639 LINE",
"287 720 LINE",
"2 720 LINE",
"2 638 LINE",
"27 634 LINE SMOOTH",
"57 629 OFFCURVE",
"64 621 OFFCURVE",
"74 594 CURVE SMOOTH",
"286 0 LINE"
);
}
);
};
layerId = "D04D9183-DC56-493B-9946-C87D971E5D7D";
paths = (
{
closed = 1;
nodes = (
"414 0 LINE",
"609 591 LINE SMOOTH",
"621 626 OFFCURVE",
"629 627 OFFCURVE",
"657 634 CURVE SMOOTH",
"681 640 LINE",
"681 720 LINE",
"421 720 LINE",
"421 641 LINE",
"483 631 LINE SMOOTH",
"495 629 OFFCURVE",
"500 621 OFFCURVE",
"500 614 CURVE SMOOTH",
"500 608 OFFCURVE",
"498 602 OFFCURVE",
"495 592 CURVE SMOOTH",
"375 212 LINE",
"358 115 LINE",
"371 115 LINE",
"345 212 LINE",
"213 591 LINE SMOOTH",
"210 601 OFFCURVE",
"208 607 OFFCURVE",
"208 614 CURVE SMOOTH",
"208 621 OFFCURVE",
"212 629 OFFCURVE",
"224 631 CURVE SMOOTH",
"287 641 LINE",
"287 720 LINE",
"2 720 LINE",
"2 640 LINE",
"27 634 LINE SMOOTH",
"57 627 OFFCURVE",
"64 621 OFFCURVE",
"74 594 CURVE SMOOTH",
"286 0 LINE"
);
}
);
width = 676;
}
);
leftKerningGroup = V.left;
rightKerningGroup = V.right;
unicode = 0056;
},
{
glyphname = W;
lastChange = "2017-03-02 15:54:53 +0000";
layers = (
{
anchors = (
{
name = bottom;
position = "{492, 0}";
},
{
name = top;
position = "{492, 690}";
}
);
background = {
anchors = (
{
name = bottom;
position = "{492, 0}";
},
{
name = top;
position = "{492, 690}";
}
);
paths = (
{
closed = 1;
nodes = (
"366 0 LINE",
"487 422 LINE",
"525 560 LINE",
"495 560 LINE",
"540 422 LINE",
"684 0 LINE",
"765 0 LINE",
"925 614 LINE SMOOTH",
"933 645 OFFCURVE",
"939 653 OFFCURVE",
"970 657 CURVE SMOOTH",
"1005 662 LINE",
"1005 720 LINE",
"765 720 LINE",
"765 662 LINE",
"831 655 LINE SMOOTH",
"844 654 OFFCURVE",
"850 646 OFFCURVE",
"850 638 CURVE SMOOTH",
"850 631 OFFCURVE",
"846 618 OFFCURVE",
"843 605 CURVE SMOOTH",
"739 203 LINE",
"714 80 LINE",
"745 80 LINE",
"709 202 LINE",
"558 646 LINE",
"474 646 LINE",
"347 203 LINE",
"317 80 LINE",
"344 80 LINE",
"311 203 LINE",
"190 605 LINE SMOOTH",
"186 618 OFFCURVE",
"183 631 OFFCURVE",
"183 638 CURVE SMOOTH",
"183 646 OFFCURVE",
"189 654 OFFCURVE",
"202 655 CURVE SMOOTH",
"270 662 LINE",
"270 720 LINE",
"0 720 LINE",
"0 662 LINE",
"40 657 LINE SMOOTH",
"71 653 OFFCURVE",
"84 646 OFFCURVE",
"94 614 CURVE SMOOTH",
"282 0 LINE"
);
}
);
};
layerId = "93B1D13A-641C-48C6-9569-DADD26056F4A";
paths = (
{
closed = 1;
nodes = (
"341 0 LINE",
"466 422 LINE",
"504 560 LINE",
"477 560 LINE",
"522 422 LINE",
"660 0 LINE",
"735 0 LINE",
"899 616 LINE SMOOTH",
"907 647 OFFCURVE",
"913 655 OFFCURVE",
"944 659 CURVE SMOOTH",
"979 664 LINE",
"979 720 LINE",
"747 720 LINE",
"747 665 LINE",
"810 658 LINE SMOOTH",
"823 657 OFFCURVE",
"829 649 OFFCURVE",
"829 641 CURVE SMOOTH",
"829 634 OFFCURVE",
"825 621 OFFCURVE",
"822 608 CURVE SMOOTH",
"714 203 LINE",
"689 80 LINE",
"711 80 LINE",
"675 202 LINE",
"531 646 LINE",
"458 646 LINE",
"327 203 LINE",
"297 80 LINE",
"317 80 LINE",
"284 203 LINE",
"168 608 LINE SMOOTH",
"164 621 OFFCURVE",
"161 634 OFFCURVE",
"161 641 CURVE SMOOTH",
"161 649 OFFCURVE",
"167 657 OFFCURVE",
"180 658 CURVE SMOOTH",
"245 665 LINE",
"245 720 LINE",
"-1 720 LINE",
"-1 664 LINE",
"25 659 LINE SMOOTH",
"56 653 OFFCURVE",
"69 648 OFFCURVE",
"79 616 CURVE SMOOTH",
"262 0 LINE"
);
}
);
width = 972;
},
{
anchors = (
{
name = bottom;
position = "{513, 0}";
},
{
name = top;
position = "{517, 690}";
}
);
background = {
paths = (
{
closed = 1;
nodes = (
"378 0 LINE",
"501 397 LINE",
"517 479 LINE",
"501 479 LINE",
"528 397 LINE",
"655 0 LINE",
"787 0 LINE",
"946 591 LINE SMOOTH",
"955 624 OFFCURVE",
"963 630 OFFCURVE",
"991 634 CURVE SMOOTH",
"1020 638 LINE",
"1020 720 LINE",
"759 720 LINE",
"759 639 LINE",
"822 632 LINE SMOOTH",
"835 631 OFFCURVE",
"842 624 OFFCURVE",
"842 614 CURVE SMOOTH",
"842 606 OFFCURVE",
"839 596 OFFCURVE",
"835 580 CURVE SMOOTH",
"735 207 LINE",
"724 104 LINE",
"740 104 LINE",
"713 207 LINE",
"577 636 LINE",
"465 636 LINE",
"336 207 LINE",
"324 104 LINE",
"339 104 LINE",
"312 207 LINE",
"209 580 LINE SMOOTH",
"205 596 OFFCURVE",
"201 606 OFFCURVE",
"201 614 CURVE SMOOTH",
"201 624 OFFCURVE",
"208 631 OFFCURVE",
"221 632 CURVE SMOOTH",
"285 639 LINE",
"285 720 LINE",
"2 720 LINE",
"2 638 LINE",
"21 634 LINE SMOOTH",
"52 627 OFFCURVE",
"67 623 OFFCURVE",
"76 591 CURVE SMOOTH",
"244 0 LINE"
);
}
);
};
layerId = "D04D9183-DC56-493B-9946-C87D971E5D7D";
paths = (
{
closed = 1;
nodes = (
"378 0 LINE",
"501 397 LINE",
"517 479 LINE",
"501 479 LINE",
"528 397 LINE",
"655 0 LINE",
"787 0 LINE",
"946 591 LINE SMOOTH",
"955 624 OFFCURVE",
"963 628 OFFCURVE",
"991 634 CURVE SMOOTH",
"1020 640 LINE",
"1020 720 LINE",
"759 720 LINE",
"759 641 LINE",
"822 632 LINE SMOOTH",
"835 630 OFFCURVE",
"842 624 OFFCURVE",
"842 614 CURVE SMOOTH",
"842 606 OFFCURVE",
"839 596 OFFCURVE",
"835 580 CURVE SMOOTH",
"735 207 LINE",
"724 104 LINE",
"740 104 LINE",
"713 207 LINE",
"577 636 LINE",
"465 636 LINE",
"336 207 LINE",
"324 104 LINE",
"339 104 LINE",
"312 207 LINE",
"209 580 LINE SMOOTH",
"205 596 OFFCURVE",
"201 606 OFFCURVE",
"201 614 CURVE SMOOTH",
"201 624 OFFCURVE",
"208 630 OFFCURVE",
"221 632 CURVE SMOOTH",
"285 641 LINE",
"285 720 LINE",
"2 720 LINE",
"2 640 LINE",
"21 634 LINE SMOOTH",
"52 624 OFFCURVE",
"67 623 OFFCURVE",
"76 591 CURVE SMOOTH",
"244 0 LINE"
);
}
);
width = 1015;
}
);
leftKerningGroup = V.left;
rightKerningGroup = V.right;
unicode = 0057;
},
{
glyphname = X;
lastChange = "2017-03-02 14:10:36 +0000";
layers = (
{
anchors = (
{
name = bottom;
position = "{334, 0}";
},
{
name = top;
position = "{340, 690}";
}
);
background = {
anchors = (
{
name = bottom;
position = "{334, 0}";
},
{
name = top;
position = "{340, 690}";
}
);
paths = (
{
closed = 1;
nodes = (
"271 0 LINE",
"271 58 LINE",
"206 64 LINE SMOOTH",
"194 65 OFFCURVE",
"187 71 OFFCURVE",
"187 80 CURVE SMOOTH",
"187 89 OFFCURVE",
"191 95 OFFCURVE",
"198 106 CURVE SMOOTH",
"348 341 LINE",
"367 341 LINE",
"546 614 LINE SMOOTH",
"563 640 OFFCURVE",
"577 651 OFFCURVE",
"613 656 CURVE SMOOTH",
"651 661 LINE",
"651 720 LINE",
"405 720 LINE",
"405 662 LINE",
"456 656 LINE SMOOTH",
"467 655 OFFCURVE",
"474 649 OFFCURVE",
"474 641 CURVE SMOOTH",
"474 633 OFFCURVE",
"469 627 OFFCURVE",
"462 616 CURVE SMOOTH",
"325 404 LINE",
"307 404 LINE",
"117 112 LINE SMOOTH",
"97 82 OFFCURVE",
"80 69 OFFCURVE",
"50 65 CURVE SMOOTH",
"4 59 LINE",
"4 0 LINE"
);
},
{
closed = 1;
nodes = (
"672 0 LINE",
"672 59 LINE",
"638 63 LINE SMOOTH",
"611 67 OFFCURVE",
"600 77 OFFCURVE",
"582 102 CURVE SMOOTH",
"380 389 LINE",
"320 330 LINE",
"475 106 LINE SMOOTH",
"482 96 OFFCURVE",
"486 91 OFFCURVE",
"486 82 CURVE SMOOTH",
"486 73 OFFCURVE",
"477 65 OFFCURVE",
"465 64 CURVE SMOOTH",
"397 58 LINE",
"397 0 LINE"
);
},
{
closed = 1;
nodes = (
"354 425 LINE",
"217 616 LINE SMOOTH",
"211 625 OFFCURVE",
"206 632 OFFCURVE",
"206 640 CURVE SMOOTH",
"206 648 OFFCURVE",
"211 655 OFFCURVE",
"222 656 CURVE SMOOTH",
"282 662 LINE",
"282 720 LINE",
"16 720 LINE",
"16 661 LINE",
"55 656 LINE SMOOTH",
"84 652 OFFCURVE",
"92 646 OFFCURVE",
"114 615 CURVE SMOOTH",
"297 359 LINE"
);
}
);
};
layerId = "93B1D13A-641C-48C6-9569-DADD26056F4A";
paths = (
{
closed = 1;
nodes = (
"265 0 LINE",
"265 55 LINE",
"202 61 LINE SMOOTH",
"190 62 OFFCURVE",
"183 68 OFFCURVE",
"183 77 CURVE SMOOTH",
"183 86 OFFCURVE",
"187 92 OFFCURVE",
"194 103 CURVE SMOOTH",
"343 341 LINE",
"365 341 LINE",
"544 618 LINE SMOOTH",
"561 644 OFFCURVE",
"575 654 OFFCURVE",
"611 659 CURVE SMOOTH",
"644 664 LINE",
"644 720 LINE",
"407 720 LINE",
"407 665 LINE",
"456 659 LINE SMOOTH",
"467 658 OFFCURVE",
"474 652 OFFCURVE",
"474 644 CURVE SMOOTH",
"474 636 OFFCURVE",
"469 630 OFFCURVE",
"462 619 CURVE SMOOTH",
"326 404 LINE",
"304 404 LINE",
"115 108 LINE SMOOTH",
"96 78 OFFCURVE",
"78 67 OFFCURVE",
"48 62 CURVE SMOOTH",
"15 56 LINE",
"15 0 LINE"
);
},
{
closed = 1;
nodes = (
"670 0 LINE",
"670 56 LINE",
"636 60 LINE SMOOTH",
"609 63 OFFCURVE",
"597 74 OFFCURVE",
"580 99 CURVE SMOOTH",
"372 398 LINE",
"316 339 LINE",
"478 103 LINE SMOOTH",
"485 93 OFFCURVE",
"489 88 OFFCURVE",
"489 79 CURVE SMOOTH",
"489 70 OFFCURVE",
"480 62 OFFCURVE",
"468 61 CURVE SMOOTH",
"402 55 LINE",
"402 0 LINE"
);
},
{
closed = 1;
nodes = (
"353 415 LINE",
"210 619 LINE SMOOTH",
"204 628 OFFCURVE",
"199 635 OFFCURVE",
"199 643 CURVE SMOOTH",
"199 651 OFFCURVE",
"204 658 OFFCURVE",
"215 659 CURVE SMOOTH",
"273 665 LINE",
"273 720 LINE",
"22 720 LINE",
"22 664 LINE",
"53 659 LINE SMOOTH",
"82 654 OFFCURVE",
"90 649 OFFCURVE",
"112 618 CURVE SMOOTH",
"302 349 LINE"
);
}
);
width = 669;
},
{
anchors = (
{
name = bottom;
position = "{335, 0}";
},
{
name = top;
position = "{348, 690}";
}
);
background = {
paths = (
{
closed = 1;
nodes = (
"273 0 LINE",
"273 81 LINE",
"223 88 LINE SMOOTH",
"213 89 OFFCURVE",
"208 95 OFFCURVE",
"208 103 CURVE SMOOTH",
"208 109 OFFCURVE",
"211 115 OFFCURVE",
"217 124 CURVE SMOOTH",
"352 329 LINE",
"387 331 LINE",
"576 598 LINE SMOOTH",
"593 622 OFFCURVE",
"603 630 OFFCURVE",
"630 633 CURVE SMOOTH",
"672 638 LINE",
"672 720 LINE",
"406 720 LINE",
"406 639 LINE",
"448 632 LINE SMOOTH",
"458 630 OFFCURVE",
"462 624 OFFCURVE",
"462 618 CURVE SMOOTH",
"462 611 OFFCURVE",
"458 605 OFFCURVE",
"452 596 CURVE SMOOTH",
"331 419 LINE",
"296 418 LINE",
"97 129 LINE SMOOTH",
"77 100 OFFCURVE",
"64 90 OFFCURVE",
"39 87 CURVE SMOOTH",
"1 82 LINE",
"1 0 LINE"
);
},
{
closed = 1;
nodes = (
"693 0 LINE",
"693 82 LINE",
"669 85 LINE SMOOTH",
"642 88 OFFCURVE",
"627 95 OFFCURVE",
"609 119 CURVE SMOOTH",
"403 391 LINE",
"308 315 LINE",
"450 126 LINE SMOOTH",
"456 117 OFFCURVE",
"459 111 OFFCURVE",
"459 105 CURVE SMOOTH",
"459 97 OFFCURVE",
"454 92 OFFCURVE",
"444 90 CURVE SMOOTH",
"394 81 LINE",
"394 0 LINE"
);
},
{
closed = 1;
nodes = (
"372 434 LINE",
"245 596 LINE SMOOTH",
"238 605 OFFCURVE",
"235 610 OFFCURVE",
"235 618 CURVE SMOOTH",
"235 624 OFFCURVE",
"239 630 OFFCURVE",
"249 632 CURVE SMOOTH",
"291 639 LINE",
"291 720 LINE",
"6 720 LINE",
"6 638 LINE",
"30 635 LINE SMOOTH",
"60 631 OFFCURVE",
"67 627 OFFCURVE",
"90 598 CURVE SMOOTH",
"278 359 LINE"
);
}
);
};
layerId = "D04D9183-DC56-493B-9946-C87D971E5D7D";
paths = (
{
closed = 1;
nodes = (
"273 0 LINE",
"273 79 LINE",
"223 88 LINE SMOOTH",
"213 90 OFFCURVE",
"208 95 OFFCURVE",
"208 103 CURVE SMOOTH",
"208 109 OFFCURVE",
"211 115 OFFCURVE",
"217 124 CURVE SMOOTH",
"352 329 LINE",
"387 331 LINE",
"576 598 LINE SMOOTH",
"593 622 OFFCURVE",
"603 629 OFFCURVE",
"630 633 CURVE SMOOTH",
"672 640 LINE",
"672 720 LINE",
"406 720 LINE",
"406 641 LINE",
"448 632 LINE SMOOTH",
"458 630 OFFCURVE",
"462 624 OFFCURVE",
"462 618 CURVE SMOOTH",
"462 611 OFFCURVE",
"458 605 OFFCURVE",
"452 596 CURVE SMOOTH",
"331 419 LINE",
"296 418 LINE",
"97 129 LINE SMOOTH",
"77 100 OFFCURVE",
"64 92 OFFCURVE",
"39 87 CURVE SMOOTH",
"1 80 LINE",
"1 0 LINE"
);
},
{
closed = 1;
nodes = (
"693 0 LINE",
"693 80 LINE",
"669 85 LINE SMOOTH",
"642 91 OFFCURVE",
"627 95 OFFCURVE",
"609 119 CURVE SMOOTH",
"403 391 LINE",
"308 315 LINE",
"450 126 LINE SMOOTH",
"456 117 OFFCURVE",
"459 111 OFFCURVE",
"459 105 CURVE SMOOTH",
"459 97 OFFCURVE",
"454 92 OFFCURVE",
"444 90 CURVE SMOOTH",
"394 79 LINE",
"394 0 LINE"
);
},
{
closed = 1;
nodes = (
"372 434 LINE",
"245 596 LINE SMOOTH",
"238 605 OFFCURVE",
"235 610 OFFCURVE",
"235 618 CURVE SMOOTH",
"235 624 OFFCURVE",
"239 630 OFFCURVE",
"249 632 CURVE SMOOTH",
"291 641 LINE",
"291 720 LINE",
"6 720 LINE",
"6 640 LINE",
"30 635 LINE SMOOTH",
"60 629 OFFCURVE",
"67 627 OFFCURVE",
"90 598 CURVE SMOOTH",
"278 359 LINE"
);
}
);
width = 694;
}
);
unicode = 0058;
},
{
glyphname = Y;
lastChange = "2017-03-02 03:06:44 +0000";
layers = (
{
anchors = (
{
name = bottom;
position = "{319, 0}";
},
{
name = top;
position = "{326, 690}";
},
{
name = topleft;
position = "{-20, 720}";
}
);
background = {
anchors = (
{
name = bottom;
position = "{319, 0}";
},
{
name = top;
position = "{326, 690}";
},
{
name = topleft;
position = "{-20, 720}";
}
);
paths = (
{
closed = 1;
nodes = (
"463 0 LINE",
"463 59 LINE",
"406 68 LINE SMOOTH",
"382 72 OFFCURVE",
"377 79 OFFCURVE",
"377 106 CURVE SMOOTH",
"377 256 LINE",
"579 614 LINE SMOOTH",
"596 646 OFFCURVE",
"602 652 OFFCURVE",
"629 656 CURVE SMOOTH",
"667 661 LINE",
"667 720 LINE",
"419 720 LINE",
"419 661 LINE",
"481 653 LINE SMOOTH",
"498 651 OFFCURVE",
"504 642 OFFCURVE",
"504 635 CURVE SMOOTH",
"504 630 OFFCURVE",
"502 623 OFFCURVE",
"497 614 CURVE SMOOTH",
"333 305 LINE",
"359 305 LINE",
"190 614 LINE SMOOTH",
"184 625 OFFCURVE",
"182 628 OFFCURVE",
"182 635 CURVE SMOOTH",
"182 642 OFFCURVE",
"188 652 OFFCURVE",
"205 654 CURVE SMOOTH",
"264 662 LINE",
"264 720 LINE",
"-5 720 LINE",
"-5 661 LINE",
"33 656 LINE SMOOTH",
"64 652 OFFCURVE",
"77 643 OFFCURVE",
"93 614 CURVE SMOOTH",
"291 256 LINE",
"291 106 LINE SMOOTH",
"291 79 OFFCURVE",
"286 72 OFFCURVE",
"262 68 CURVE SMOOTH",
"205 59 LINE",
"205 0 LINE"
);
},
{
closed = 1;
nodes = (
"222 441 OFFCURVE",
"240 459 OFFCURVE",
"240 481 CURVE SMOOTH",
"240 503 OFFCURVE",
"222 521 OFFCURVE",
"200 521 CURVE SMOOTH",
"178 521 OFFCURVE",
"160 503 OFFCURVE",
"160 481 CURVE SMOOTH",
"160 459 OFFCURVE",
"178 441 OFFCURVE",
"200 441 CURVE SMOOTH"
);
},
{
closed = 1;
nodes = (
"462 441 OFFCURVE",
"478 457 OFFCURVE",
"478 476 CURVE SMOOTH",
"478 495 OFFCURVE",
"462 510 OFFCURVE",
"443 510 CURVE SMOOTH",
"425 510 OFFCURVE",
"409 495 OFFCURVE",
"409 476 CURVE SMOOTH",
"409 457 OFFCURVE",
"425 441 OFFCURVE",
"443 441 CURVE SMOOTH"
);
}
);
};
layerId = "93B1D13A-641C-48C6-9569-DADD26056F4A";
paths = (
{
closed = 1;
nodes = (
"446 0 LINE",
"446 56 LINE",
"389 65 LINE SMOOTH",
"365 69 OFFCURVE",
"360 76 OFFCURVE",
"360 103 CURVE SMOOTH",
"360 254 LINE",
"559 617 LINE SMOOTH",
"576 649 OFFCURVE",
"582 655 OFFCURVE",
"609 659 CURVE SMOOTH",
"647 664 LINE",
"647 720 LINE",
"406 720 LINE",
"406 665 LINE",
"453 658 LINE SMOOTH",
"477 654 OFFCURVE",
"488 648 OFFCURVE",
"488 638 CURVE SMOOTH",
"488 630 OFFCURVE",
"485 624 OFFCURVE",
"481 617 CURVE SMOOTH",
"306 291 LINE",
"348 291 LINE",
"171 617 LINE SMOOTH",
"166 627 OFFCURVE",
"163 633 OFFCURVE",
"163 640 CURVE SMOOTH",
"163 649 OFFCURVE",
"172 656 OFFCURVE",
"195 659 CURVE SMOOTH",
"245 665 LINE",
"245 720 LINE",
"-9 720 LINE",
"-9 664 LINE",
"19 659 LINE SMOOTH",
"50 653 OFFCURVE",
"63 646 OFFCURVE",
"79 617 CURVE SMOOTH",
"278 254 LINE",
"278 103 LINE SMOOTH",
"278 76 OFFCURVE",
"273 69 OFFCURVE",
"249 65 CURVE SMOOTH",
"192 56 LINE",
"192 0 LINE"
);
}
);
width = 633;
},
{
anchors = (
{
name = bottom;
position = "{331, 0}";
},
{
name = top;
position = "{341, 690}";
},
{
name = topleft;
position = "{-4, 720}";
}
);
background = {
paths = (
{
closed = 1;
nodes = (
"475 0 LINE",
"475 82 LINE",
"423 91 LINE SMOOTH",
"399 95 OFFCURVE",
"394 102 OFFCURVE",
"394 129 CURVE SMOOTH",
"394 244 LINE",
"575 591 LINE SMOOTH",
"591 622 OFFCURVE",
"597 628 OFFCURVE",
"625 633 CURVE SMOOTH",
"656 638 LINE",
"656 720 LINE",
"394 720 LINE",
"394 639 LINE",
"434 632 LINE SMOOTH",
"457 628 OFFCURVE",
"463 622 OFFCURVE",
"463 613 CURVE SMOOTH",
"463 604 OFFCURVE",
"460 597 OFFCURVE",
"457 591 CURVE SMOOTH",
"323 326 LINE",
"361 326 LINE",
"226 591 LINE SMOOTH",
"223 597 OFFCURVE",
"220 604 OFFCURVE",
"220 613 CURVE SMOOTH",
"220 621 OFFCURVE",
"223 628 OFFCURVE",
"246 632 CURVE SMOOTH",
"285 639 LINE",
"285 720 LINE",
"3 720 LINE",
"3 638 LINE",
"34 633 LINE SMOOTH",
"58 629 OFFCURVE",
"69 620 OFFCURVE",
"84 591 CURVE SMOOTH",
"267 245 LINE",
"267 129 LINE SMOOTH",
"267 102 OFFCURVE",
"262 95 OFFCURVE",
"238 91 CURVE SMOOTH",
"186 82 LINE",
"186 0 LINE"
);
}
);
};
layerId = "D04D9183-DC56-493B-9946-C87D971E5D7D";
paths = (
{
closed = 1;
nodes = (
"475 0 LINE",
"475 80 LINE",
"423 91 LINE SMOOTH",
"399 96 OFFCURVE",
"394 102 OFFCURVE",
"394 129 CURVE SMOOTH",
"394 244 LINE",
"575 591 LINE SMOOTH",
"591 622 OFFCURVE",
"597 627 OFFCURVE",
"625 633 CURVE SMOOTH",
"656 640 LINE",
"656 720 LINE",
"394 720 LINE",
"394 641 LINE",
"434 632 LINE SMOOTH",
"457 627 OFFCURVE",
"463 622 OFFCURVE",
"463 613 CURVE SMOOTH",
"463 604 OFFCURVE",
"460 597 OFFCURVE",
"457 591 CURVE SMOOTH",
"323 326 LINE",
"361 326 LINE",
"226 591 LINE SMOOTH",
"223 597 OFFCURVE",
"220 604 OFFCURVE",
"220 613 CURVE SMOOTH",
"220 621 OFFCURVE",
"223 627 OFFCURVE",
"246 632 CURVE SMOOTH",
"285 641 LINE",
"285 720 LINE",
"3 720 LINE",
"3 640 LINE",
"34 633 LINE SMOOTH",
"58 628 OFFCURVE",
"69 620 OFFCURVE",
"84 591 CURVE SMOOTH",
"267 245 LINE",
"267 129 LINE SMOOTH",
"267 102 OFFCURVE",
"262 96 OFFCURVE",
"238 91 CURVE SMOOTH",
"186 80 LINE",
"186 0 LINE"
);
}
);
width = 647;
}
);
leftKerningGroup = Y.left;
rightKerningGroup = Y.right;
unicode = 0059;
},
{
glyphname = Z;
lastChange = "2017-03-02 15:21:06 +0000";
layers = (
{
anchors = (
{
name = bottom;
position = "{307, 0}";
},
{
name = top;
position = "{317, 690}";
}
);
background = {
anchors = (
{
name = bottom;
position = "{307, 0}";
},
{
name = top;
position = "{317, 690}";
}
);
paths = (
{
closed = 1;
nodes = (
"581 0 LINE",
"575 177 LINE",
"508 177 LINE",
"502 102 LINE",
"501 78 OFFCURVE",
"489 73 OFFCURVE",
"464 73 CURVE SMOOTH",
"136 73 LINE",
"136 53 LINE",
"561 650 LINE",
"561 720 LINE",
"63 720 LINE",
"69 551 LINE",
"135 551 LINE",
"141 621 LINE",
"142 645 OFFCURVE",
"154 650 OFFCURVE",
"179 650 CURVE SMOOTH",
"473 650 LINE",
"473 670 LINE",
"48 73 LINE",
"48 0 LINE"
);
}
);
};
layerId = "93B1D13A-641C-48C6-9569-DADD26056F4A";
paths = (
{
closed = 1;
nodes = (
"579 0 LINE",
"573 176 LINE",
"512 176 LINE",
"506 97 LINE",
"505 73 OFFCURVE",
"493 68 OFFCURVE",
"468 68 CURVE SMOOTH",
"134 68 LINE",
"134 56 LINE",
"559 650 LINE",
"559 720 LINE",
"63 720 LINE",
"69 550 LINE",
"130 550 LINE",
"136 623 LINE",
"137 647 OFFCURVE",
"149 652 OFFCURVE",
"174 652 CURVE SMOOTH",
"473 652 LINE",
"473 667 LINE",
"48 73 LINE",
"48 0 LINE"
);
}
);
width = 611;
},
{
anchors = (
{
name = bottom;
position = "{312, 0}";
},
{
name = top;
position = "{300, 690}";
}
);
background = {
paths = (
{
closed = 1;
nodes = (
"580 0 LINE",
"573 203 LINE",
"486 203 LINE",
"479 133 LINE",
"478 109 OFFCURVE",
"466 104 OFFCURVE",
"441 104 CURVE SMOOTH",
"188 104 LINE",
"188 84 LINE",
"560 624 LINE",
"560 720 LINE",
"59 720 LINE",
"66 520 LINE",
"153 520 LINE",
"160 590 LINE",
"161 614 OFFCURVE",
"173 619 OFFCURVE",
"198 619 CURVE SMOOTH",
"415 619 LINE",
"415 639 LINE",
"43 99 LINE",
"43 0 LINE"
);
}
);
};
layerId = "D04D9183-DC56-493B-9946-C87D971E5D7D";
paths = (
{
closed = 1;
nodes = (
"577 -1 LINE",
"570 199 LINE",
"480 199 LINE",
"473 127 LINE SMOOTH",
"471 103 OFFCURVE",
"460 98 OFFCURVE",
"435 98 CURVE SMOOTH",
"176 98 LINE",
"176 81 LINE",
"560 624 LINE",
"560 720 LINE",
"50 723 LINE",
"57 521 LINE",
"146 521 LINE",
"153 593 LINE SMOOTH",
"155 616 OFFCURVE",
"166 622 OFFCURVE",
"191 622 CURVE SMOOTH",
"417 622 LINE",
"417 642 LINE",
"33 99 LINE",
"33 0 LINE"
);
}
);
width = 601;
}
);
unicode = 005A;
},
{
glyphname = a;
lastChange = "2017-03-02 16:28:06 +0000";
layers = (
{
anchors = (
{
name = bottom;
position = "{247, 0}";
},
{
name = ogonek;
position = "{483, 10}";
},
{
name = top;
position = "{242, 480}";
}
);
background = {
anchors = (
{
name = bottom;
position = "{248, 0}";
},
{
name = ogonek;
position = "{488, 10}";
},
{
name = top;
position = "{245, 480}";
}
);
paths = (
{
closed = 1;
nodes = (
"242 -10 OFFCURVE",
"299 32 OFFCURVE",
"362 99 CURVE",
"357 155 LINE",
"294 96 OFFCURVE",
"245 57 OFFCURVE",
"196 57 CURVE SMOOTH",
"155 57 OFFCURVE",
"128 82 OFFCURVE",
"128 127 CURVE SMOOTH",
"128 172 OFFCURVE",
"157 198 OFFCURVE",
"205 206 CURVE SMOOTH",
"352 231 LINE",
"352 285 LINE",
"182 261 LINE SMOOTH",
"94 249 OFFCURVE",
"46 198 OFFCURVE",
"46 120 CURVE SMOOTH",
"46 42 OFFCURVE",
"96 -10 OFFCURVE",
"176 -10 CURVE SMOOTH"
);
},
{
closed = 1;
nodes = (
"493 0 LINE",
"493 54 LINE",
"441 60 LINE SMOOTH",
"421 62 OFFCURVE",
"418 69 OFFCURVE",
"418 98 CURVE SMOOTH",
"418 352 LINE SMOOTH",
"418 445 OFFCURVE",
"337 490 OFFCURVE",
"251 490 CURVE SMOOTH",
"191 490 OFFCURVE",
"133 478 OFFCURVE",
"64 453 CURVE",
"72 338 LINE",
"129 338 LINE",
"141 411 LINE",
"169 424 OFFCURVE",
"200 430 OFFCURVE",
"237 430 CURVE SMOOTH",
"303 430 OFFCURVE",
"339 403 OFFCURVE",
"339 350 CURVE SMOOTH",
"339 117 LINE",
"351 0 LINE"
);
}
);
};
layerId = "93B1D13A-641C-48C6-9569-DADD26056F4A";
paths = (
{
closed = 1;
nodes = (
"242 -10 OFFCURVE",
"299 32 OFFCURVE",
"362 99 CURVE",
"357 155 LINE",
"294 96 OFFCURVE",
"246 57 OFFCURVE",
"197 57 CURVE SMOOTH",
"156 57 OFFCURVE",
"129 82 OFFCURVE",
"129 127 CURVE SMOOTH",
"129 172 OFFCURVE",
"158 198 OFFCURVE",
"206 206 CURVE SMOOTH",
"352 231 LINE",
"352 285 LINE",
"182 261 LINE SMOOTH",
"94 249 OFFCURVE",
"45 198 OFFCURVE",
"45 120 CURVE SMOOTH",
"45 42 OFFCURVE",
"96 -10 OFFCURVE",
"176 -10 CURVE SMOOTH"
);
},
{
closed = 1;
nodes = (
"493 0 LINE",
"493 54 LINE",
"441 60 LINE SMOOTH",
"421 62 OFFCURVE",
"418 69 OFFCURVE",
"418 98 CURVE SMOOTH",
"418 352 LINE SMOOTH",
"418 445 OFFCURVE",
"337 490 OFFCURVE",
"251 490 CURVE SMOOTH",
"191 490 OFFCURVE",
"133 478 OFFCURVE",
"64 453 CURVE",
"72 338 LINE",
"129 338 LINE",
"141 411 LINE",
"169 424 OFFCURVE",
"200 430 OFFCURVE",
"237 430 CURVE SMOOTH",
"303 430 OFFCURVE",
"339 403 OFFCURVE",
"339 350 CURVE SMOOTH",
"339 117 LINE",
"351 0 LINE"
);
}
);
width = 518;
},
{
anchors = (
{
name = bottom;
position = "{256, 0}";
},
{
name = ogonek;
position = "{489, 10}";
},
{
name = top;
position = "{239, 485}";
}
);
background = {
paths = (
{
closed = 1;
nodes = (
"240 -10 OFFCURVE",
"295 23 OFFCURVE",
"351 85 CURVE",
"338 156 LINE",
"307 115 OFFCURVE",
"249 79 OFFCURVE",
"206 79 CURVE SMOOTH",
"175 79 OFFCURVE",
"152 98 OFFCURVE",
"152 134 CURVE SMOOTH",
"152 170 OFFCURVE",
"173 192 OFFCURVE",
"211 198 CURVE SMOOTH",
"337 219 LINE",
"337 291 LINE",
"182 273 LINE SMOOTH",
"85 262 OFFCURVE",
"32 206 OFFCURVE",
"32 124 CURVE SMOOTH",
"32 40 OFFCURVE",
"84 -10 OFFCURVE",
"168 -10 CURVE SMOOTH"
);
},
{
closed = 1;
nodes = (
"501 0 LINE",
"501 74 LINE",
"461 81 LINE SMOOTH",
"446 84 OFFCURVE",
"439 92 OFFCURVE",
"439 109 CURVE SMOOTH",
"439 351 LINE SMOOTH",
"439 448 OFFCURVE",
"355 495 OFFCURVE",
"244 495 CURVE SMOOTH",
"164 495 OFFCURVE",
"101 470 OFFCURVE",
"57 451 CURVE",
"67 330 LINE",
"143 330 LINE",
"156 396 LINE",
"180 407 OFFCURVE",
"206 412 OFFCURVE",
"234 412 CURVE SMOOTH",
"292 412 OFFCURVE",
"321 391 OFFCURVE",
"321 345 CURVE SMOOTH",
"321 105 LINE",
"337 0 LINE"
);
}
);
};
layerId = "D04D9183-DC56-493B-9946-C87D971E5D7D";
paths = (
{
closed = 1;
nodes = (
"240 -10 OFFCURVE",
"295 23 OFFCURVE",
"351 85 CURVE",
"338 156 LINE",
"307 115 OFFCURVE",
"249 79 OFFCURVE",
"206 79 CURVE SMOOTH",
"175 79 OFFCURVE",
"152 98 OFFCURVE",
"152 134 CURVE SMOOTH",
"152 170 OFFCURVE",
"173 192 OFFCURVE",
"211 198 CURVE SMOOTH",
"337 219 LINE",
"337 291 LINE",
"182 273 LINE SMOOTH",
"85 262 OFFCURVE",
"32 206 OFFCURVE",
"32 124 CURVE SMOOTH",
"32 40 OFFCURVE",
"84 -10 OFFCURVE",
"168 -10 CURVE SMOOTH"
);
},
{
closed = 1;
nodes = (
"501 0 LINE",
"501 74 LINE",
"461 81 LINE SMOOTH",
"446 84 OFFCURVE",
"439 92 OFFCURVE",
"439 109 CURVE SMOOTH",
"439 351 LINE SMOOTH",
"439 448 OFFCURVE",
"355 495 OFFCURVE",
"251 495 CURVE SMOOTH",
"180 495 OFFCURVE",
"101 470 OFFCURVE",
"57 451 CURVE",
"67 330 LINE",
"143 330 LINE",
"156 396 LINE",
"180 407 OFFCURVE",
"206 412 OFFCURVE",
"234 412 CURVE SMOOTH",
"292 412 OFFCURVE",
"321 391 OFFCURVE",
"321 345 CURVE SMOOTH",
"321 105 LINE",
"337 0 LINE"
);
}
);
width = 523;
}
);
leftKerningGroup = a.left;
rightKerningGroup = a.right;
unicode = 0061;
},
{
glyphname = ae;
lastChange = "2017-02-22 00:29:16 +0000";
layers = (
{
anchors = (
{
name = top;
position = "{402, 480}";
}
);
background = {
paths = (
{
closed = 1;
nodes = (
"615 -10 OFFCURVE",
"696 16 OFFCURVE",
"735 36 CURVE",
"721 85 LINE",
"665 69 OFFCURVE",
"611 57 OFFCURVE",
"564 57 CURVE SMOOTH",
"469 57 OFFCURVE",
"415 116 OFFCURVE",
"417 236 CURVE",
"404 220 LINE",
"739 241 LINE",
"739 395 OFFCURVE",
"706 490 OFFCURVE",
"554 490 CURVE SMOOTH",
"404 490 OFFCURVE",
"331 376 OFFCURVE",
"331 220 CURVE SMOOTH",
"331 85 OFFCURVE",
"396 -10 OFFCURVE",
"536 -10 CURVE SMOOTH"
);
},
{
closed = 1;
nodes = (
"422 387 OFFCURVE",
"450 424 OFFCURVE",
"545 424 CURVE SMOOTH",
"633 424 OFFCURVE",
"660 374 OFFCURVE",
"660 299 CURVE",
"405 277 LINE",
"416 265 LINE"
);
},
{
closed = 1;
nodes = (
"-487 -10 OFFCURVE",
"-406 16 OFFCURVE",
"-367 36 CURVE",
"-381 85 LINE",
"-437 69 OFFCURVE",
"-491 57 OFFCURVE",
"-538 57 CURVE SMOOTH",
"-633 57 OFFCURVE",
"-687 116 OFFCURVE",
"-685 236 CURVE",
"-698 220 LINE",
"-363 241 LINE",
"-363 395 OFFCURVE",
"-396 490 OFFCURVE",
"-548 490 CURVE SMOOTH",
"-645 490 OFFCURVE",
"-705 438 OFFCURVE",
"-734 354 CURVE",
"-734 90 LINE",
"-708 30 OFFCURVE",
"-655 -10 OFFCURVE",
"-566 -10 CURVE SMOOTH"
);
},
{
closed = 1;
nodes = (
"-680 387 OFFCURVE",
"-652 424 OFFCURVE",
"-559 424 CURVE SMOOTH",
"-471 424 OFFCURVE",
"-444 374 OFFCURVE",
"-444 299 CURVE",
"-699 277 LINE",
"-686 265 LINE"
);
},
{
closed = 1;
nodes = (
"241 -10 OFFCURVE",
"298 32 OFFCURVE",
"361 99 CURVE",
"356 155 LINE",
"293 96 OFFCURVE",
"244 57 OFFCURVE",
"195 57 CURVE SMOOTH",
"154 57 OFFCURVE",
"127 82 OFFCURVE",
"127 127 CURVE SMOOTH",
"127 172 OFFCURVE",
"156 198 OFFCURVE",
"204 206 CURVE SMOOTH",
"351 231 LINE",
"351 285 LINE",
"181 261 LINE SMOOTH",
"93 249 OFFCURVE",
"45 198 OFFCURVE",
"45 120 CURVE SMOOTH",
"45 42 OFFCURVE",
"95 -10 OFFCURVE",
"175 -10 CURVE SMOOTH"
);
},
{
closed = 1;
nodes = (
"492 0 LINE",
"492 54 LINE",
"440 60 LINE SMOOTH",
"420 62 OFFCURVE",
"417 69 OFFCURVE",
"417 98 CURVE SMOOTH",
"417 352 LINE SMOOTH",
"417 442 OFFCURVE",
"355 490 OFFCURVE",
"250 490 CURVE SMOOTH",
"190 490 OFFCURVE",
"132 478 OFFCURVE",
"63 453 CURVE",
"71 338 LINE",
"128 338 LINE",
"140 411 LINE",
"168 424 OFFCURVE",
"199 430 OFFCURVE",
"236 430 CURVE SMOOTH",
"302 430 OFFCURVE",
"338 403 OFFCURVE",
"338 350 CURVE SMOOTH",
"338 117 LINE",
"350 0 LINE"
);
},
{
closed = 1;
nodes = (
"615 -10 OFFCURVE",
"696 16 OFFCURVE",
"735 36 CURVE",
"721 85 LINE",
"665 69 OFFCURVE",
"611 57 OFFCURVE",
"564 57 CURVE SMOOTH",
"473 57 OFFCURVE",
"418 116 OFFCURVE",
"420 236 CURVE",
"408 222 LINE",
"739 241 LINE",
"739 395 OFFCURVE",
"706 490 OFFCURVE",
"554 490 CURVE SMOOTH",
"424 490 OFFCURVE",
"343 379 OFFCURVE",
"343 267 CURVE SMOOTH",
"343 236 LINE SMOOTH",
"343 85 OFFCURVE",
"396 -10 OFFCURVE",
"536 -10 CURVE SMOOTH"
);
}
);
};
guideLines = (
{
angle = 90;
position = "{366, 118}";
}
);
layerId = "93B1D13A-641C-48C6-9569-DADD26056F4A";
paths = (
{
closed = 1;
nodes = (
"247 -10 OFFCURVE",
"319 29 OFFCURVE",
"384 91 CURVE",
"365 145 LINE",
"303 88 OFFCURVE",
"244 57 OFFCURVE",
"195 57 CURVE SMOOTH",
"154 57 OFFCURVE",
"127 82 OFFCURVE",
"127 127 CURVE SMOOTH",
"127 172 OFFCURVE",
"156 200 OFFCURVE",
"218 207 CURVE SMOOTH",
"360 222 LINE",
"360 276 LINE",
"203 263 LINE SMOOTH",
"90 254 OFFCURVE",
"45 198 OFFCURVE",
"45 120 CURVE SMOOTH",
"45 42 OFFCURVE",
"95 -10 OFFCURVE",
"176 -10 CURVE SMOOTH"
);
},
{
closed = 1;
nodes = (
"415 171 LINE",
"415 352 LINE SMOOTH",
"415 441 OFFCURVE",
"350 490 OFFCURVE",
"247 490 CURVE SMOOTH",
"192 490 OFFCURVE",
"133 478 OFFCURVE",
"64 453 CURVE",
"72 338 LINE",
"129 338 LINE",
"141 411 LINE",
"169 424 OFFCURVE",
"200 430 OFFCURVE",
"237 430 CURVE SMOOTH",
"303 430 OFFCURVE",
"343 403 OFFCURVE",
"343 350 CURVE SMOOTH",
"343 246 LINE"
);
},
{
closed = 1;
nodes = (
"615 -10 OFFCURVE",
"696 16 OFFCURVE",
"735 36 CURVE",
"721 85 LINE",
"665 69 OFFCURVE",
"611 57 OFFCURVE",
"564 57 CURVE SMOOTH",
"473 57 OFFCURVE",
"418 116 OFFCURVE",
"420 236 CURVE",
"408 222 LINE",
"739 241 LINE",
"739 395 OFFCURVE",
"706 490 OFFCURVE",
"554 490 CURVE SMOOTH",
"428 490 OFFCURVE",
"343 396 OFFCURVE",
"343 246 CURVE SMOOTH",
"343 85 OFFCURVE",
"396 -10 OFFCURVE",
"536 -10 CURVE SMOOTH"
);
},
{
closed = 1;
nodes = (
"423 384 OFFCURVE",
"450 424 OFFCURVE",
"545 424 CURVE SMOOTH",
"633 424 OFFCURVE",
"660 374 OFFCURVE",
"660 299 CURVE",
"409 279 LINE",
"420 265 LINE"
);
}
);
width = 774;
},
{
anchors = (
{
name = top;
position = "{407, 485}";
}
);
background = {
paths = (
{
closed = 1;
nodes = (
"-621 -10 LINE",
"-559 -10 OFFCURVE",
"-473 38 OFFCURVE",
"-438 88 CURVE",
"-360 101 LINE",
"-360 351 LINE",
"-360 455 OFFCURVE",
"-455 495 OFFCURVE",
"-556 495 CURVE SMOOTH",
"-617 495 OFFCURVE",
"-653 483 OFFCURVE",
"-737 453 CURVE",
"-728 330 LINE",
"-649 330 LINE",
"-637 396 LINE",
"-617 405 OFFCURVE",
"-588 412 OFFCURVE",
"-562 412 CURVE SMOOTH",
"-512 412 OFFCURVE",
"-475 395 OFFCURVE",
"-475 349 CURVE SMOOTH",
"-475 291 LINE",
"-614 273 LINE SMOOTH",
"-713 260 OFFCURVE",
"-764 204 OFFCURVE",
"-764 124 CURVE SMOOTH",
"-764 45 OFFCURVE",
"-719 -10 OFFCURVE",
"-621 -10 CURVE SMOOTH"
);
},
{
closed = 1;
nodes = (
"-475 212 LINE",
"-475 134 LINE",
"-488 117 OFFCURVE",
"-544 80 OFFCURVE",
"-585 80 CURVE SMOOTH",
"-620 80 OFFCURVE",
"-641 98 OFFCURVE",
"-641 130 CURVE SMOOTH",
"-641 167 OFFCURVE",
"-620 188 OFFCURVE",
"-585 194 CURVE SMOOTH"
);
},
{
closed = 1;
nodes = (
"-45 234 LINE",
"-45 394 OFFCURVE",
"-79 495 OFFCURVE",
"-241 495 CURVE SMOOTH",
"-326 495 OFFCURVE",
"-389 460 OFFCURVE",
"-428 404 CURVE",
"-452 95 LINE",
"-419 30 OFFCURVE",
"-356 -10 OFFCURVE",
"-259 -10 CURVE SMOOTH",
"-168 -10 OFFCURVE",
"-101 15 OFFCURVE",
"-47 36 CURVE",
"-66 108 LINE",
"-101 98 OFFCURVE",
"-185 79 OFFCURVE",
"-231 79 CURVE SMOOTH",
"-309 79 OFFCURVE",
"-348 125 OFFCURVE",
"-353 212 CURVE"
);
},
{
closed = 1;
nodes = (
"-355 291 LINE",
"-344 381 OFFCURVE",
"-330 406 OFFCURVE",
"-247 406 CURVE SMOOTH",
"-178 406 OFFCURVE",
"-163 358 OFFCURVE",
"-162 307 CURVE"
);
},
{
closed = 1;
nodes = (
"240 -10 OFFCURVE",
"295 23 OFFCURVE",
"351 85 CURVE",
"338 156 LINE",
"307 115 OFFCURVE",
"249 79 OFFCURVE",
"206 79 CURVE SMOOTH",
"175 79 OFFCURVE",
"152 98 OFFCURVE",
"152 134 CURVE SMOOTH",
"152 170 OFFCURVE",
"173 192 OFFCURVE",
"211 198 CURVE SMOOTH",
"337 219 LINE",
"337 291 LINE",
"182 273 LINE SMOOTH",
"85 262 OFFCURVE",
"32 206 OFFCURVE",
"32 124 CURVE SMOOTH",
"32 40 OFFCURVE",
"84 -10 OFFCURVE",
"168 -10 CURVE SMOOTH"
);
},
{
closed = 1;
nodes = (
"501 0 LINE",
"501 74 LINE",
"461 81 LINE SMOOTH",
"446 84 OFFCURVE",
"439 92 OFFCURVE",
"439 109 CURVE SMOOTH",
"439 351 LINE SMOOTH",
"439 448 OFFCURVE",
"364 495 OFFCURVE",
"262 495 CURVE SMOOTH",
"167 495 OFFCURVE",
"101 470 OFFCURVE",
"57 451 CURVE",
"67 330 LINE",
"143 330 LINE",
"156 396 LINE",
"180 407 OFFCURVE",
"206 412 OFFCURVE",
"234 412 CURVE SMOOTH",
"292 412 OFFCURVE",
"321 391 OFFCURVE",
"321 345 CURVE SMOOTH",
"321 105 LINE",
"337 0 LINE"
);
},
{
closed = 1;
nodes = (
"587 -10 OFFCURVE",
"660 5 OFFCURVE",
"739 36 CURVE",
"720 108 LINE",
"653 89 OFFCURVE",
"601 79 OFFCURVE",
"558 79 CURVE SMOOTH",
"479 79 OFFCURVE",
"434 125 OFFCURVE",
"433 224 CURVE",
"419 211 LINE",
"741 234 LINE",
"741 410 OFFCURVE",
"694 495 OFFCURVE",
"549 495 CURVE SMOOTH",
"395 495 OFFCURVE",
"305 390 OFFCURVE",
"305 227 CURVE SMOOTH",
"305 84 OFFCURVE",
"381 -10 OFFCURVE",
"518 -10 CURVE SMOOTH"
);
},
{
closed = 1;
nodes = (
"437 378 OFFCURVE",
"462 406 OFFCURVE",
"533 406 CURVE SMOOTH",
"594 406 OFFCURVE",
"623 372 OFFCURVE",
"624 306 CURVE",
"418 287 LINE",
"430 278 LINE"
);
},
{
closed = 1;
nodes = (
"587 -10 OFFCURVE",
"660 5 OFFCURVE",
"739 36 CURVE",
"720 108 LINE",
"653 89 OFFCURVE",
"601 79 OFFCURVE",
"558 79 CURVE SMOOTH",
"479 79 OFFCURVE",
"434 125 OFFCURVE",
"433 224 CURVE",
"419 211 LINE",
"741 234 LINE",
"741 410 OFFCURVE",
"694 495 OFFCURVE",
"549 495 CURVE SMOOTH",
"444 495 OFFCURVE",
"374 432 OFFCURVE",
"350 359 CURVE",
"345 85 LINE",
"380 25 OFFCURVE",
"434 -10 OFFCURVE",
"518 -10 CURVE SMOOTH"
);
},
{
closed = 1;
nodes = (
"437 378 OFFCURVE",
"463 406 OFFCURVE",
"534 406 CURVE SMOOTH",
"595 406 OFFCURVE",
"623 372 OFFCURVE",
"624 306 CURVE",
"419 287 LINE",
"430 278 LINE"
);
},
{
closed = 1;
nodes = (
"240 -10 OFFCURVE",
"308 27 OFFCURVE",
"366 77 CURVE",
"357 147 LINE",
"312 117 OFFCURVE",
"249 79 OFFCURVE",
"206 79 CURVE SMOOTH",
"175 79 OFFCURVE",
"151 98 OFFCURVE",
"151 134 CURVE SMOOTH",
"151 170 OFFCURVE",
"173 192 OFFCURVE",
"211 198 CURVE SMOOTH",
"342 219 LINE",
"342 291 LINE",
"182 273 LINE SMOOTH",
"85 262 OFFCURVE",
"32 206 OFFCURVE",
"32 124 CURVE SMOOTH",
"32 40 OFFCURVE",
"84 -10 OFFCURVE",
"168 -10 CURVE SMOOTH"
);
},
{
closed = 1;
nodes = (
"247 -10 OFFCURVE",
"312 32 OFFCURVE",
"368 79 CURVE",
"349 143 LINE",
"303 113 OFFCURVE",
"249 79 OFFCURVE",
"206 79 CURVE SMOOTH",
"175 79 OFFCURVE",
"151 98 OFFCURVE",
"151 134 CURVE SMOOTH",
"151 170 OFFCURVE",
"173 192 OFFCURVE",
"211 198 CURVE SMOOTH",
"342 219 LINE",
"342 291 LINE",
"182 273 LINE SMOOTH",
"85 262 OFFCURVE",
"32 206 OFFCURVE",
"32 124 CURVE SMOOTH",
"32 40 OFFCURVE",
"84 -10 OFFCURVE",
"168 -10 CURVE SMOOTH"
);
}
);
};
guideLines = (
{
angle = 90;
position = "{578, 185}";
}
);
layerId = "D04D9183-DC56-493B-9946-C87D971E5D7D";
paths = (
{
closed = 1;
nodes = (
"247 -10 OFFCURVE",
"313 32 OFFCURVE",
"369 79 CURVE",
"347 143 LINE",
"300 110 OFFCURVE",
"251 79 OFFCURVE",
"206 79 CURVE SMOOTH",
"175 79 OFFCURVE",
"151 98 OFFCURVE",
"151 134 CURVE SMOOTH",
"151 170 OFFCURVE",
"171 193 OFFCURVE",
"224 200 CURVE SMOOTH",
"343 215 LINE",
"343 287 LINE",
"199 275 LINE SMOOTH",
"83 265 OFFCURVE",
"32 206 OFFCURVE",
"32 124 CURVE SMOOTH",
"32 42 OFFCURVE",
"86 -10 OFFCURVE",
"168 -10 CURVE SMOOTH"
);
},
{
closed = 1;
nodes = (
"433 246 LINE",
"433 341 LINE SMOOTH",
"433 439 OFFCURVE",
"352 495 OFFCURVE",
"249 495 CURVE SMOOTH",
"169 495 OFFCURVE",
"96 467 OFFCURVE",
"56 451 CURVE",
"68 330 LINE",
"142 330 LINE",
"155 395 LINE",
"176 405 OFFCURVE",
"201 412 OFFCURVE",
"234 412 CURVE SMOOTH",
"292 412 OFFCURVE",
"321 391 OFFCURVE",
"321 345 CURVE SMOOTH",
"321 242 LINE"
);
},
{
closed = 1;
nodes = (
"587 -10 OFFCURVE",
"660 5 OFFCURVE",
"739 36 CURVE",
"720 108 LINE",
"653 89 OFFCURVE",
"601 79 OFFCURVE",
"558 79 CURVE SMOOTH",
"484 79 OFFCURVE",
"438 125 OFFCURVE",
"437 224 CURVE",
"425 213 LINE",
"741 234 LINE",
"741 410 OFFCURVE",
"694 495 OFFCURVE",
"549 495 CURVE SMOOTH",
"398 495 OFFCURVE",
"321 372 OFFCURVE",
"321 227 CURVE SMOOTH",
"321 84 OFFCURVE",
"381 -10 OFFCURVE",
"518 -10 CURVE SMOOTH"
);
},
{
closed = 1;
nodes = (
"438 377 OFFCURVE",
"463 406 OFFCURVE",
"534 406 CURVE SMOOTH",
"595 406 OFFCURVE",
"623 372 OFFCURVE",
"624 306 CURVE",
"425 288 LINE",
"436 278 LINE"
);
}
);
width = 769;
}
);
leftKerningGroup = a.left;
leftMetricsKey = a;
rightMetricsKey = e;
unicode = 00E6;
},
{
glyphname = b;
lastChange = "2017-03-02 16:17:59 +0000";
layers = (
{
anchors = (
{
name = bottom;
position = "{274, 0}";
},
{
name = top;
position = "{295, 480}";
}
);
background = {
anchors = (
{
name = bottom;
position = "{264, 0}";
},
{
name = top;
position = "{285, 480}";
}
);
paths = (
{
closed = 1;
nodes = (
"416 -10 OFFCURVE",
"500 103 OFFCURVE",
"500 253 CURVE SMOOTH",
"500 403 OFFCURVE",
"422 490 OFFCURVE",
"310 490 CURVE SMOOTH",
"239 490 OFFCURVE",
"183 454 OFFCURVE",
"149 413 CURVE",
"149 346 LINE",
"176 387 OFFCURVE",
"225 424 OFFCURVE",
"280 424 CURVE SMOOTH",
"360 424 OFFCURVE",
"414 366 OFFCURVE",
"414 244 CURVE SMOOTH",
"414 122 OFFCURVE",
"387 56 OFFCURVE",
"287 56 CURVE SMOOTH",
"220 56 OFFCURVE",
"171 79 OFFCURVE",
"138 114 CURVE",
"159 52 LINE",
"159 780 LINE",
"0 780 LINE",
"0 728 LINE",
"55 722 LINE SMOOTH",
"75 721 OFFCURVE",
"80 712 OFFCURVE",
"80 684 CURVE SMOOTH",
"80 35 LINE",
"136 5 OFFCURVE",
"206 -10 OFFCURVE",
"261 -10 CURVE SMOOTH"
);
}
);
};
layerId = "93B1D13A-641C-48C6-9569-DADD26056F4A";
paths = (
{
closed = 1;
nodes = (
"416 -10 OFFCURVE",
"500 103 OFFCURVE",
"500 253 CURVE SMOOTH",
"500 403 OFFCURVE",
"422 490 OFFCURVE",
"310 490 CURVE SMOOTH",
"239 490 OFFCURVE",
"183 454 OFFCURVE",
"149 413 CURVE",
"149 346 LINE",
"176 387 OFFCURVE",
"225 424 OFFCURVE",
"280 424 CURVE SMOOTH",
"360 424 OFFCURVE",
"414 366 OFFCURVE",
"414 244 CURVE SMOOTH",
"414 122 OFFCURVE",
"387 56 OFFCURVE",
"287 56 CURVE SMOOTH",
"220 56 OFFCURVE",
"171 79 OFFCURVE",
"138 114 CURVE",
"159 52 LINE",
"159 780 LINE",
"0 780 LINE",
"0 728 LINE",
"55 722 LINE SMOOTH",
"75 720 OFFCURVE",
"80 712 OFFCURVE",
"80 684 CURVE SMOOTH",
"80 35 LINE",
"136 5 OFFCURVE",
"206 -10 OFFCURVE",
"261 -10 CURVE SMOOTH"
);
}
);
width = 540;
},
{
anchors = (
{
name = bottom;
position = "{286, 0}";
},
{
name = top;
position = "{289, 485}";
}
);
background = {
paths = (
{
closed = 1;
nodes = (
"428 -10 OFFCURVE",
"522 108 OFFCURVE",
"522 258 CURVE SMOOTH",
"522 393 OFFCURVE",
"453 495 OFFCURVE",
"293 495 CURVE SMOOTH",
"123 495 OFFCURVE",
"29 377 OFFCURVE",
"29 227 CURVE SMOOTH",
"29 92 OFFCURVE",
"98 -10 OFFCURVE",
"258 -10 CURVE SMOOTH"
);
},
{
closed = 1;
nodes = (
"200 78 OFFCURVE",
"154 137 OFFCURVE",
"154 247 CURVE SMOOTH",
"154 352 OFFCURVE",
"181 407 OFFCURVE",
"261 407 CURVE SMOOTH",
"351 407 OFFCURVE",
"397 348 OFFCURVE",
"397 238 CURVE SMOOTH",
"397 133 OFFCURVE",
"370 78 OFFCURVE",
"290 78 CURVE SMOOTH"
);
}
);
};
layerId = "D04D9183-DC56-493B-9946-C87D971E5D7D";
paths = (
{
closed = 1;
nodes = (
"427 -10 OFFCURVE",
"522 104 OFFCURVE",
"522 255 CURVE SMOOTH",
"522 406 OFFCURVE",
"435 495 OFFCURVE",
"321 495 CURVE SMOOTH",
"255 495 OFFCURVE",
"208 463 OFFCURVE",
"176 430 CURVE",
"177 355 LINE",
"205 386 OFFCURVE",
"242 405 OFFCURVE",
"285 405 CURVE SMOOTH",
"352 405 OFFCURVE",
"394 356 OFFCURVE",
"394 236 CURVE SMOOTH",
"394 116 OFFCURVE",
"356 79 OFFCURVE",
"283 79 CURVE SMOOTH",
"241 79 OFFCURVE",
"196 100 OFFCURVE",
"175 127 CURVE",
"190 86 LINE",
"190 780 LINE",
"5 780 LINE",
"5 706 LINE",
"48 700 LINE SMOOTH",
"63 698 OFFCURVE",
"70 689 OFFCURVE",
"70 672 CURVE SMOOTH",
"70 36 LINE",
"112 11 OFFCURVE",
"189 -10 OFFCURVE",
"269 -10 CURVE SMOOTH"
);
}
);
width = 549;
}
);
leftKerningGroup = k.left;
rightKerningGroup = o.right;
unicode = 0062;
},
{
glyphname = c;
lastChange = "2017-02-23 03:05:12 +0000";
layers = (
{
anchors = (
{
name = bottom;
position = "{263, 0}";
},
{
name = top;
position = "{264, 480}";
}
);
background = {
anchors = (
{
name = bottom;
position = "{263, 0}";
},
{
name = top;
position = "{264, 480}";
}
);
};
layerId = "93B1D13A-641C-48C6-9569-DADD26056F4A";
paths = (
{
closed = 1;
nodes = (
"318 -10 OFFCURVE",
"383 9 OFFCURVE",
"435 32 CURVE",
"423 83 LINE",
"378 71 OFFCURVE",
"324 56 OFFCURVE",
"270 56 CURVE SMOOTH",
"190 56 OFFCURVE",
"126 110 OFFCURVE",
"126 240 CURVE SMOOTH",
"126 365 OFFCURVE",
"156 424 OFFCURVE",
"246 424 CURVE SMOOTH",
"293 424 OFFCURVE",
"325 414 OFFCURVE",
"345 404 CURVE",
"357 330 LINE",
"414 330 LINE",
"422 453 LINE",
"397 469 OFFCURVE",
"340 490 OFFCURVE",
"270 490 CURVE SMOOTH",
"130 490 OFFCURVE",
"40 385 OFFCURVE",
"40 220 CURVE SMOOTH",
"40 70 OFFCURVE",
"115 -10 OFFCURVE",
"255 -10 CURVE SMOOTH"
);
}
);
width = 454;
},
{
anchors = (
{
name = bottom;
position = "{261, 0}";
},
{
name = top;
position = "{260, 485}";
}
);
layerId = "D04D9183-DC56-493B-9946-C87D971E5D7D";
paths = (
{
closed = 1;
nodes = (
"324 -10 OFFCURVE",
"369 6 OFFCURVE",
"442 35 CURVE",
"426 109 LINE",
"376 93 OFFCURVE",
"327 79 OFFCURVE",
"277 79 CURVE SMOOTH",
"196 79 OFFCURVE",
"151 135 OFFCURVE",
"151 245 CURVE SMOOTH",
"151 355 OFFCURVE",
"177 407 OFFCURVE",
"247 407 CURVE SMOOTH",
"292 407 OFFCURVE",
"319 397 OFFCURVE",
"332 390 CURVE",
"347 318 LINE",
"425 318 LINE",
"435 453 LINE",
"400 476 OFFCURVE",
"333 495 OFFCURVE",
"269 495 CURVE SMOOTH",
"124 495 OFFCURVE",
"26 384 OFFCURVE",
"26 219 CURVE SMOOTH",
"26 69 OFFCURVE",
"105 -10 OFFCURVE",
"244 -10 CURVE SMOOTH"
);
}
);
width = 456;
}
);
leftKerningGroup = o.left;
rightKerningGroup = e.right;
unicode = 0063;
},
{
glyphname = d;
lastChange = "2017-02-22 15:04:59 +0000";
layers = (
{
anchors = (
{
name = bottom;
position = "{242, 0}";
},
{
name = center;
position = "{254, 240}";
},
{
name = top;
position = "{378, 780}";
},
{
name = topright;
position = "{529, 482}";
}
);
background = {
anchors = (
{
name = bottom;
position = "{242, 0}";
},
{
name = center;
position = "{254, 240}";
},
{
name = top;
position = "{378, 780}";
},
{
name = topright;
position = "{510, 480}";
}
);
paths = (
{
closed = 1;
nodes = (
"535 0 LINE",
"535 54 LINE",
"483 60 LINE SMOOTH",
"463 62 OFFCURVE",
"460 69 OFFCURVE",
"460 98 CURVE SMOOTH",
"460 780 LINE",
"296 780 LINE",
"296 728 LINE",
"356 722 LINE SMOOTH",
"376 720 OFFCURVE",
"381 712 OFFCURVE",
"381 684 CURVE SMOOTH",
"381 102 LINE",
"393 0 LINE"
);
},
{
closed = 1;
nodes = (
"321 -10 OFFCURVE",
"371 47 OFFCURVE",
"398 84 CURVE",
"395 154 LINE",
"376 118 OFFCURVE",
"325 56 OFFCURVE",
"255 56 CURVE SMOOTH",
"176 56 OFFCURVE",
"126 118 OFFCURVE",
"126 230 CURVE SMOOTH",
"126 348 OFFCURVE",
"155 425 OFFCURVE",
"247 425 CURVE SMOOTH",
"316 425 OFFCURVE",
"372 399 OFFCURVE",
"400 372 CURVE",
"407 456 LINE",
"389 468 OFFCURVE",
"340 490 OFFCURVE",
"271 490 CURVE SMOOTH",
"127 490 OFFCURVE",
"40 363 OFFCURVE",
"40 220 CURVE SMOOTH",
"40 80 OFFCURVE",
"113 -10 OFFCURVE",
"228 -10 CURVE SMOOTH"
);
}
);
};
layerId = "93B1D13A-641C-48C6-9569-DADD26056F4A";
paths = (
{
closed = 1;
nodes = (
"535 0 LINE",
"535 54 LINE",
"483 60 LINE SMOOTH",
"463 62 OFFCURVE",
"460 69 OFFCURVE",
"460 98 CURVE SMOOTH",
"460 780 LINE",
"296 780 LINE",
"296 728 LINE",
"356 722 LINE SMOOTH",
"376 721 OFFCURVE",
"381 712 OFFCURVE",
"381 684 CURVE SMOOTH",
"381 102 LINE",
"393 0 LINE"
);
},
{
closed = 1;
nodes = (
"321 -10 OFFCURVE",
"371 47 OFFCURVE",
"398 84 CURVE",
"395 154 LINE",
"376 118 OFFCURVE",
"325 56 OFFCURVE",
"255 56 CURVE SMOOTH",
"176 56 OFFCURVE",
"126 118 OFFCURVE",
"126 232 CURVE SMOOTH",
"126 367 OFFCURVE",
"167 424 OFFCURVE",
"247 424 CURVE SMOOTH",
"317 424 OFFCURVE",
"372 398 OFFCURVE",
"400 371 CURVE",
"407 456 LINE",
"389 469 OFFCURVE",
"340 490 OFFCURVE",
"271 490 CURVE SMOOTH",
"139 490 OFFCURVE",
"40 375 OFFCURVE",
"40 222 CURVE SMOOTH",
"40 77 OFFCURVE",
"113 -10 OFFCURVE",
"228 -10 CURVE SMOOTH"
);
}
);
width = 555;
},
{
anchors = (
{
name = bottom;
position = "{235, 0}";
},
{
name = center;
position = "{254, 243}";
},
{
name = top;
position = "{373, 780}";
},
{
name = topright;
position = "{544, 459}";
}
);
background = {
paths = (
{
closed = 1;
nodes = (
"1269 1 LINE",
"1269 75 LINE",
"1229 82 LINE SMOOTH",
"1214 85 OFFCURVE",
"1207 93 OFFCURVE",
"1207 110 CURVE SMOOTH",
"1207 781 LINE",
"1015 781 LINE",
"1015 707 LINE",
"1065 701 LINE SMOOTH",
"1080 699 OFFCURVE",
"1087 690 OFFCURVE",
"1087 673 CURVE SMOOTH",
"1087 104 LINE",
"1101 1 LINE"
);
},
{
closed = 1;
nodes = (
"1037 -9 OFFCURVE",
"1094 57 OFFCURVE",
"1111 82 CURVE",
"1106 165 LINE",
"1088 129 OFFCURVE",
"1035 80 OFFCURVE",
"987 80 CURVE SMOOTH",
"918 80 OFFCURVE",
"884 134 OFFCURVE",
"884 242 CURVE SMOOTH",
"884 357 OFFCURVE",
"910 407 OFFCURVE",
"989 407 CURVE SMOOTH",
"1046 407 OFFCURVE",
"1092 384 OFFCURVE",
"1113 361 CURVE",
"1113 472 LINE",
"1096 483 OFFCURVE",
"1048 496 OFFCURVE",
"1004 496 CURVE SMOOTH",
"856 496 OFFCURVE",
"756 375 OFFCURVE",
"756 228 CURVE SMOOTH",
"756 75 OFFCURVE",
"837 -9 OFFCURVE",
"947 -9 CURVE SMOOTH"
);
},
{
closed = 1;
nodes = (
"-223 -9 OFFCURVE",
"-129 109 OFFCURVE",
"-129 259 CURVE SMOOTH",
"-129 394 OFFCURVE",
"-198 496 OFFCURVE",
"-358 496 CURVE SMOOTH",
"-528 496 OFFCURVE",
"-622 378 OFFCURVE",
"-622 228 CURVE SMOOTH",
"-622 93 OFFCURVE",
"-553 -9 OFFCURVE",
"-393 -9 CURVE SMOOTH"
);
},
{
closed = 1;
nodes = (
"-451 79 OFFCURVE",
"-497 138 OFFCURVE",
"-497 248 CURVE SMOOTH",
"-497 353 OFFCURVE",
"-470 408 OFFCURVE",
"-390 408 CURVE SMOOTH",
"-300 408 OFFCURVE",
"-254 349 OFFCURVE",
"-254 239 CURVE SMOOTH",
"-254 134 OFFCURVE",
"-281 79 OFFCURVE",
"-361 79 CURVE SMOOTH"
);
},
{
closed = 1;
nodes = (
"537 1 LINE",
"537 75 LINE",
"497 82 LINE SMOOTH",
"482 85 OFFCURVE",
"475 93 OFFCURVE",
"475 110 CURVE SMOOTH",
"475 781 LINE",
"283 781 LINE",
"283 707 LINE",
"333 701 LINE SMOOTH",
"348 699 OFFCURVE",
"355 690 OFFCURVE",
"355 673 CURVE SMOOTH",
"355 104 LINE",
"369 1 LINE"
);
},
{
closed = 1;
nodes = (
"305 -9 OFFCURVE",
"362 57 OFFCURVE",
"379 82 CURVE",
"374 165 LINE",
"356 129 OFFCURVE",
"303 80 OFFCURVE",
"255 80 CURVE SMOOTH",
"186 80 OFFCURVE",
"152 134 OFFCURVE",
"152 242 CURVE SMOOTH",
"152 357 OFFCURVE",
"178 407 OFFCURVE",
"257 407 CURVE SMOOTH",
"314 407 OFFCURVE",
"360 384 OFFCURVE",
"381 361 CURVE",
"381 472 LINE",
"364 483 OFFCURVE",
"316 496 OFFCURVE",
"272 496 CURVE SMOOTH",
"124 496 OFFCURVE",
"27 375 OFFCURVE",
"27 228 CURVE SMOOTH",
"27 75 OFFCURVE",
"105 -9 OFFCURVE",
"215 -9 CURVE SMOOTH"
);
}
);
};
layerId = "D04D9183-DC56-493B-9946-C87D971E5D7D";
paths = (
{
closed = 1;
nodes = (
"537 0 LINE",
"537 74 LINE",
"497 81 LINE SMOOTH",
"482 84 OFFCURVE",
"475 92 OFFCURVE",
"475 109 CURVE SMOOTH",
"475 780 LINE",
"283 780 LINE",
"283 706 LINE",
"333 700 LINE SMOOTH",
"348 698 OFFCURVE",
"355 689 OFFCURVE",
"355 672 CURVE SMOOTH",
"355 103 LINE",
"369 0 LINE"
);
},
{
closed = 1;
nodes = (
"315 -10 OFFCURVE",
"380 60 OFFCURVE",
"394 81 CURVE",
"389 164 LINE",
"365 116 OFFCURVE",
"315 79 OFFCURVE",
"265 79 CURVE SMOOTH",
"196 79 OFFCURVE",
"152 127 OFFCURVE",
"152 242 CURVE SMOOTH",
"152 354 OFFCURVE",
"179 406 OFFCURVE",
"257 406 CURVE SMOOTH",
"314 406 OFFCURVE",
"360 383 OFFCURVE",
"381 360 CURVE",
"382 466 LINE",
"365 475 OFFCURVE",
"324 495 OFFCURVE",
"269 495 CURVE SMOOTH",
"129 495 OFFCURVE",
"27 377 OFFCURVE",
"27 227 CURVE SMOOTH",
"27 72 OFFCURVE",
"112 -10 OFFCURVE",
"222 -10 CURVE SMOOTH"
);
}
);
width = 559;
}
);
leftKerningGroup = o.left;
rightKerningGroup = d.right;
unicode = 0064;
},
{
glyphname = eth;
lastChange = "2017-02-21 22:44:59 +0000";
layers = (
{
background = {
paths = (
{
closed = 1;
nodes = (
"398 -10 OFFCURVE",
"487 104 OFFCURVE",
"487 281 CURVE SMOOTH",
"487 480 OFFCURVE",
"403 677 OFFCURVE",
"171 792 CURVE",
"138 741 LINE",
"232 687 OFFCURVE",
"351 595 OFFCURVE",
"389 425 CURVE",
"399 425 LINE",
"374 463 OFFCURVE",
"332 488 OFFCURVE",
"268 488 CURVE SMOOTH",
"137 488 OFFCURVE",
"40 385 OFFCURVE",
"40 240 CURVE SMOOTH",
"40 93 OFFCURVE",
"107 -10 OFFCURVE",
"247 -10 CURVE SMOOTH"
);
},
{
closed = 1;
nodes = (
"179 56 OFFCURVE",
"126 120 OFFCURVE",
"126 241 CURVE SMOOTH",
"126 362 OFFCURVE",
"161 426 OFFCURVE",
"253 426 CURVE SMOOTH",
"354 426 OFFCURVE",
"405 362 OFFCURVE",
"405 241 CURVE SMOOTH",
"405 122 OFFCURVE",
"369 56 OFFCURVE",
"280 56 CURVE SMOOTH"
);
},
{
closed = 1;
nodes = (
"403 738 LINE",
"374 783 LINE",
"122 626 LINE",
"152 580 LINE"
);
}
);
};
layerId = "93B1D13A-641C-48C6-9569-DADD26056F4A";
paths = (
{
closed = 1;
nodes = (
"398 -10 OFFCURVE",
"487 102 OFFCURVE",
"487 290 CURVE SMOOTH",
"487 472 OFFCURVE",
"404 678 OFFCURVE",
"171 792 CURVE",
"138 741 LINE",
"232 687 OFFCURVE",
"351 595 OFFCURVE",
"389 425 CURVE",
"399 425 LINE",
"381 457 OFFCURVE",
"342 488 OFFCURVE",
"258 488 CURVE SMOOTH",
"148 488 OFFCURVE",
"40 394 OFFCURVE",
"40 229 CURVE SMOOTH",
"40 96 OFFCURVE",
"107 -10 OFFCURVE",
"250 -10 CURVE SMOOTH"
);
},
{
closed = 1;
nodes = (
"179 56 OFFCURVE",
"126 119 OFFCURVE",
"126 252 CURVE SMOOTH",
"126 367 OFFCURVE",
"162 426 OFFCURVE",
"253 426 CURVE SMOOTH",
"354 426 OFFCURVE",
"405 363 OFFCURVE",
"405 231 CURVE SMOOTH",
"405 121 OFFCURVE",
"363 56 OFFCURVE",
"273 56 CURVE SMOOTH"
);
},
{
closed = 1;
nodes = (
"403 738 LINE",
"374 783 LINE",
"122 626 LINE",
"152 580 LINE"
);
}
);
width = 525;
},
{
background = {
paths = (
{
closed = 1;
nodes = (
"1159 -10 OFFCURVE",
"1253 108 OFFCURVE",
"1253 258 CURVE SMOOTH",
"1253 393 OFFCURVE",
"1184 495 OFFCURVE",
"1024 495 CURVE SMOOTH",
"854 495 OFFCURVE",
"760 377 OFFCURVE",
"760 227 CURVE SMOOTH",
"760 92 OFFCURVE",
"829 -10 OFFCURVE",
"989 -10 CURVE SMOOTH"
);
},
{
closed = 1;
nodes = (
"931 78 OFFCURVE",
"885 137 OFFCURVE",
"885 247 CURVE SMOOTH",
"885 352 OFFCURVE",
"912 407 OFFCURVE",
"992 407 CURVE SMOOTH",
"1082 407 OFFCURVE",
"1128 348 OFFCURVE",
"1128 238 CURVE SMOOTH",
"1128 133 OFFCURVE",
"1101 78 OFFCURVE",
"1021 78 CURVE SMOOTH"
);
},
{
closed = 1;
nodes = (
"426 -10 OFFCURVE",
"508 110 OFFCURVE",
"508 290 CURVE SMOOTH",
"508 481 OFFCURVE",
"416 684 OFFCURVE",
"166 799 CURVE",
"120 728 LINE",
"233 673 OFFCURVE",
"333 577 OFFCURVE",
"378 426 CURVE",
"397 434 LINE",
"363 474 OFFCURVE",
"320 493 OFFCURVE",
"264 493 CURVE SMOOTH",
"124 493 OFFCURVE",
"27 377 OFFCURVE",
"27 245 CURVE SMOOTH",
"27 93 OFFCURVE",
"100 -10 OFFCURVE",
"244 -10 CURVE SMOOTH"
);
},
{
closed = 1;
nodes = (
"196 78 OFFCURVE",
"152 139 OFFCURVE",
"152 249 CURVE SMOOTH",
"152 354 OFFCURVE",
"177 411 OFFCURVE",
"256 411 CURVE SMOOTH",
"345 411 OFFCURVE",
"389 350 OFFCURVE",
"389 240 CURVE SMOOTH",
"389 136 OFFCURVE",
"363 78 OFFCURVE",
"285 78 CURVE SMOOTH"
);
},
{
closed = 1;
nodes = (
"423 733 LINE",
"379 795 LINE",
"121 623 LINE",
"165 559 LINE"
);
}
);
};
layerId = "D04D9183-DC56-493B-9946-C87D971E5D7D";
paths = (
{
closed = 1;
nodes = (
"416 -10 OFFCURVE",
"508 110 OFFCURVE",
"508 290 CURVE SMOOTH",
"508 481 OFFCURVE",
"416 684 OFFCURVE",
"166 799 CURVE",
"120 728 LINE",
"233 673 OFFCURVE",
"333 577 OFFCURVE",
"378 426 CURVE",
"397 434 LINE",
"363 474 OFFCURVE",
"330 493 OFFCURVE",
"264 493 CURVE SMOOTH",
"128 493 OFFCURVE",
"27 388 OFFCURVE",
"27 232 CURVE SMOOTH",
"27 97 OFFCURVE",
"100 -10 OFFCURVE",
"256 -10 CURVE SMOOTH"
);
},
{
closed = 1;
nodes = (
"192 77 OFFCURVE",
"150 139 OFFCURVE",
"150 249 CURVE SMOOTH",
"150 358 OFFCURVE",
"180 411 OFFCURVE",
"253 411 CURVE SMOOTH",
"342 411 OFFCURVE",
"387 350 OFFCURVE",
"387 247 CURVE SMOOTH",
"387 136 OFFCURVE",
"359 77 OFFCURVE",
"281 77 CURVE SMOOTH"
);
},
{
closed = 1;
nodes = (
"423 733 LINE",
"379 795 LINE",
"121 623 LINE",
"165 559 LINE"
);
}
);
width = 544;
}
);
leftKerningGroup = o.left;
leftMetricsKey = o;
unicode = 00F0;
},
{
glyphname = dcaron;
lastChange = "2017-03-02 16:45:41 +0000";
layers = (
{
background = {
paths = (
{
closed = 1;
nodes = (
"602 566 OFFCURVE",
"646 615 OFFCURVE",
"646 690 CURVE SMOOTH",
"646 729 OFFCURVE",
"623 759 OFFCURVE",
"576 759 CURVE SMOOTH",
"543 759 OFFCURVE",
"517 742 OFFCURVE",
"517 698 CURVE SMOOTH",
"517 667 OFFCURVE",
"536 644 OFFCURVE",
"575 644 CURVE SMOOTH",
"589 644 OFFCURVE",
"603 649 OFFCURVE",
"610 655 CURVE",
"584 655 LINE",
"584 614 OFFCURVE",
"547 575 OFFCURVE",
"520 561 CURVE",
"547 532 LINE"
);
}
);
};
components = (
{
alignment = -1;
name = d;
},
{
name = caron.alt;
transform = "{1, 0, 0, 1, 475, -9}";
}
);
layerId = "93B1D13A-641C-48C6-9569-DADD26056F4A";
width = 567;
},
{
background = {
paths = (
{
closed = 1;
nodes = (
"622 557 OFFCURVE",
"679 617 OFFCURVE",
"679 690 CURVE SMOOTH",
"679 729 OFFCURVE",
"657 763 OFFCURVE",
"600 763 CURVE SMOOTH",
"556 763 OFFCURVE",
"527 747 OFFCURVE",
"527 700 CURVE SMOOTH",
"527 666 OFFCURVE",
"549 636 OFFCURVE",
"594 636 CURVE SMOOTH",
"606 636 OFFCURVE",
"620 638 OFFCURVE",
"633 642 CURVE",
"604 649 LINE",
"602 617 OFFCURVE",
"569 587 OFFCURVE",
"537 568 CURVE",
"570 534 LINE"
);
}
);
};
components = (
{
alignment = -1;
name = d;
},
{
name = caron.alt;
transform = "{1, 0, 0, 1, 487, 6}";
}
);
layerId = "D04D9183-DC56-493B-9946-C87D971E5D7D";
width = 581;
}
);
leftKerningGroup = o.left;
rightKerningGroup = dcaron.right;
unicode = 010F;
},
{
glyphname = dcroat;
lastChange = "2017-02-21 22:44:59 +0000";
layers = (
{
annotations = (
{
position = "{3, 829}";
text = "changed glyph name to the current standard";
type = Text;
width = 214;
}
);
background = {
paths = (
{
closed = 1;
nodes = (
"536 578 LINE",
"536 643 LINE",
"183 643 LINE",
"183 578 LINE"
);
}
);
};
components = (
{
name = d;
}
);
layerId = "93B1D13A-641C-48C6-9569-DADD26056F4A";
paths = (
{
closed = 1;
nodes = (
"536 579 LINE",
"536 635 LINE",
"216 635 LINE",
"216 579 LINE"
);
}
);
width = 563;
},
{
annotations = (
{
position = "{3, 829}";
text = "changed glyph name to the current standard";
type = Text;
width = 214;
}
);
background = {
paths = (
{
closed = 1;
nodes = (
"541 560 LINE",
"541 640 LINE",
"148 640 LINE",
"148 560 LINE"
);
}
);
};
components = (
{
name = d;
}
);
layerId = "D04D9183-DC56-493B-9946-C87D971E5D7D";
paths = (
{
closed = 1;
nodes = (
"541 562 LINE",
"541 632 LINE",
"193 632 LINE",
"193 562 LINE"
);
}
);
width = 572;
}
);
leftKerningGroup = o.left;
unicode = 0111;
},
{
glyphname = e;
lastChange = "2017-03-02 15:43:54 +0000";
layers = (
{
anchors = (
{
name = bottom;
position = "{259, 0}";
},
{
name = ogonek;
position = "{434, 46}";
},
{
name = top;
position = "{259, 480}";
}
);
background = {
anchors = (
{
name = bottom;
position = "{260, 0}";
},
{
name = ogonek;
position = "{435, 46}";
},
{
name = top;
position = "{260, 480}";
}
);
paths = (
{
closed = 1;
nodes = (
"-184 -10 OFFCURVE",
"-103 16 OFFCURVE",
"-64 36 CURVE",
"-78 85 LINE",
"-134 69 OFFCURVE",
"-188 57 OFFCURVE",
"-235 57 CURVE SMOOTH",
"-330 57 OFFCURVE",
"-384 116 OFFCURVE",
"-382 236 CURVE",
"-395 220 LINE",
"-60 241 LINE",
"-60 395 OFFCURVE",
"-93 490 OFFCURVE",
"-245 490 CURVE SMOOTH",
"-395 490 OFFCURVE",
"-468 376 OFFCURVE",
"-468 220 CURVE SMOOTH",
"-468 85 OFFCURVE",
"-403 -10 OFFCURVE",
"-263 -10 CURVE SMOOTH"
);
},
{
closed = 1;
nodes = (
"-377 387 OFFCURVE",
"-349 424 OFFCURVE",
"-254 424 CURVE SMOOTH",
"-166 424 OFFCURVE",
"-139 374 OFFCURVE",
"-139 299 CURVE",
"-394 277 LINE",
"-383 265 LINE"
);
},
{
closed = 1;
nodes = (
"324 -10 OFFCURVE",
"405 16 OFFCURVE",
"444 36 CURVE",
"430 85 LINE",
"374 69 OFFCURVE",
"320 57 OFFCURVE",
"273 57 CURVE SMOOTH",
"178 57 OFFCURVE",
"124 116 OFFCURVE",
"126 236 CURVE",
"113 220 LINE",
"448 241 LINE",
"448 395 OFFCURVE",
"415 490 OFFCURVE",
"263 490 CURVE SMOOTH",
"113 490 OFFCURVE",
"40 376 OFFCURVE",
"40 220 CURVE SMOOTH",
"40 85 OFFCURVE",
"105 -10 OFFCURVE",
"245 -10 CURVE SMOOTH"
);
},
{
closed = 1;
nodes = (
"131 387 OFFCURVE",
"159 424 OFFCURVE",
"254 424 CURVE SMOOTH",
"342 424 OFFCURVE",
"369 374 OFFCURVE",
"369 299 CURVE",
"114 277 LINE",
"125 265 LINE"
);
}
);
};
layerId = "93B1D13A-641C-48C6-9569-DADD26056F4A";
paths = (
{
closed = 1;
nodes = (
"324 -10 OFFCURVE",
"405 16 OFFCURVE",
"444 36 CURVE",
"430 85 LINE",
"374 69 OFFCURVE",
"320 57 OFFCURVE",
"273 57 CURVE SMOOTH",
"178 57 OFFCURVE",
"124 116 OFFCURVE",
"126 236 CURVE",
"113 220 LINE",
"448 241 LINE",
"448 395 OFFCURVE",
"415 490 OFFCURVE",
"263 490 CURVE SMOOTH",
"113 490 OFFCURVE",
"40 376 OFFCURVE",
"40 220 CURVE SMOOTH",
"40 85 OFFCURVE",
"105 -10 OFFCURVE",
"245 -10 CURVE SMOOTH"
);
},
{
closed = 1;
nodes = (
"131 387 OFFCURVE",
"159 424 OFFCURVE",
"250 424 CURVE SMOOTH",
"340 424 OFFCURVE",
"367 374 OFFCURVE",
"367 299 CURVE",
"114 277 LINE",
"125 265 LINE"
);
}
);
width = 483;
},
{
anchors = (
{
name = bottom;
position = "{260, 0}";
},
{
name = ogonek;
position = "{451, 46}";
},
{
name = top;
position = "{265, 485}";
}
);
background = {
paths = (
{
closed = 1;
nodes = (
"309 -10 OFFCURVE",
"382 5 OFFCURVE",
"461 36 CURVE",
"442 108 LINE",
"375 89 OFFCURVE",
"323 79 OFFCURVE",
"280 79 CURVE SMOOTH",
"201 79 OFFCURVE",
"156 125 OFFCURVE",
"155 224 CURVE",
"141 211 LINE",
"463 234 LINE",
"463 410 OFFCURVE",
"416 495 OFFCURVE",
"271 495 CURVE SMOOTH",
"117 495 OFFCURVE",
"27 390 OFFCURVE",
"27 227 CURVE SMOOTH",
"27 84 OFFCURVE",
"103 -10 OFFCURVE",
"240 -10 CURVE SMOOTH"
);
},
{
closed = 1;
nodes = (
"159 378 OFFCURVE",
"184 406 OFFCURVE",
"255 406 CURVE SMOOTH",
"316 406 OFFCURVE",
"345 372 OFFCURVE",
"346 306 CURVE",
"140 287 LINE",
"152 278 LINE"
);
}
);
};
layerId = "D04D9183-DC56-493B-9946-C87D971E5D7D";
paths = (
{
closed = 1;
nodes = (
"309 -10 OFFCURVE",
"382 5 OFFCURVE",
"461 36 CURVE",
"442 108 LINE",
"375 89 OFFCURVE",
"323 79 OFFCURVE",
"280 79 CURVE SMOOTH",
"201 79 OFFCURVE",
"156 125 OFFCURVE",
"155 224 CURVE",
"141 211 LINE",
"463 234 LINE",
"463 410 OFFCURVE",
"416 495 OFFCURVE",
"271 495 CURVE SMOOTH",
"117 495 OFFCURVE",
"27 390 OFFCURVE",
"27 227 CURVE SMOOTH",
"27 84 OFFCURVE",
"103 -10 OFFCURVE",
"240 -10 CURVE SMOOTH"
);
},
{
closed = 1;
nodes = (
"159 378 OFFCURVE",
"184 406 OFFCURVE",
"255 406 CURVE SMOOTH",
"316 406 OFFCURVE",
"345 372 OFFCURVE",
"346 306 CURVE",
"140 287 LINE",
"152 278 LINE"
);
}
);
width = 491;
}
);
leftKerningGroup = o.left;
rightKerningGroup = e.right;
unicode = 0065;
},
{
glyphname = edieresis;
lastChange = "2017-02-23 03:01:09 +0000";
layers = (
{
background = {
paths = (
{
closed = 1;
nodes = (
"198 598 OFFCURVE",
"216 613 OFFCURVE",
"216 657 CURVE SMOOTH",
"216 701 OFFCURVE",
"203 716 OFFCURVE",
"159 716 CURVE SMOOTH",
"115 716 OFFCURVE",
"97 701 OFFCURVE",
"97 657 CURVE SMOOTH",
"97 613 OFFCURVE",
"110 598 OFFCURVE",
"154 598 CURVE SMOOTH"
);
},
{
closed = 1;
nodes = (
"404 598 OFFCURVE",
"422 613 OFFCURVE",
"422 657 CURVE SMOOTH",
"422 701 OFFCURVE",
"409 716 OFFCURVE",
"365 716 CURVE SMOOTH",
"321 716 OFFCURVE",
"303 701 OFFCURVE",
"303 657 CURVE SMOOTH",
"303 613 OFFCURVE",
"316 598 OFFCURVE",
"360 598 CURVE SMOOTH"
);
}
);
};
components = (
{
name = e;
},
{
name = dieresis;
transform = "{1, 0, 0, 1, 45, 0}";
}
);
layerId = "93B1D13A-641C-48C6-9569-DADD26056F4A";
width = 483;
},
{
components = (
{
name = e;
},
{
name = dieresis;
transform = "{1, 0, 0, 1, 40, 0}";
}
);
layerId = "D04D9183-DC56-493B-9946-C87D971E5D7D";
width = 491;
}
);
leftKerningGroup = o.left;
rightKerningGroup = e.right;
unicode = 00EB;
},
{
glyphname = f;
lastChange = "2017-03-02 16:27:48 +0000";
layers = (
{
anchors = (
{
name = bottom;
position = "{161, 0}";
},
{
name = top;
position = "{245, 780}";
}
);
background = {
anchors = (
{
name = bottom;
position = "{161, 0}";
},
{
name = top;
position = "{245, 780}";
}
);
paths = (
{
closed = 1;
nodes = (
"288 0 LINE",
"288 53 LINE",
"216 60 LINE SMOOTH",
"196 62 OFFCURVE",
"193 69 OFFCURVE",
"193 98 CURVE SMOOTH",
"193 646 LINE SMOOTH",
"193 691 OFFCURVE",
"219 720 OFFCURVE",
"271 720 CURVE SMOOTH",
"305 720 OFFCURVE",
"337 711 OFFCURVE",
"375 697 CURVE",
"405 771 LINE",
"371 784 OFFCURVE",
"337 790 OFFCURVE",
"304 790 CURVE SMOOTH",
"188 790 OFFCURVE",
"114 721 OFFCURVE",
"114 590 CURVE SMOOTH",
"114 98 LINE SMOOTH",
"114 69 OFFCURVE",
"111 62 OFFCURVE",
"91 60 CURVE SMOOTH",
"39 54 LINE",
"39 0 LINE"
);
},
{
closed = 1;
nodes = (
"128 428 LINE",
"128 485 LINE",
"36 476 LINE",
"36 428 LINE"
);
},
{
closed = 1;
nodes = (
"318 428 LINE",
"318 495 LINE",
"179 485 LINE",
"179 428 LINE"
);
}
);
};
layerId = "93B1D13A-641C-48C6-9569-DADD26056F4A";
paths = (
{
closed = 1;
nodes = (
"288 0 LINE",
"288 53 LINE",
"216 60 LINE SMOOTH",
"196 61 OFFCURVE",
"193 69 OFFCURVE",
"193 98 CURVE SMOOTH",
"193 646 LINE SMOOTH",
"193 691 OFFCURVE",
"219 720 OFFCURVE",
"271 720 CURVE SMOOTH",
"305 720 OFFCURVE",
"337 711 OFFCURVE",
"375 697 CURVE",
"405 771 LINE",
"371 784 OFFCURVE",
"337 790 OFFCURVE",
"304 790 CURVE SMOOTH",
"188 790 OFFCURVE",
"114 721 OFFCURVE",
"114 590 CURVE SMOOTH",
"114 98 LINE SMOOTH",
"114 69 OFFCURVE",
"111 61 OFFCURVE",
"91 60 CURVE SMOOTH",
"39 54 LINE",
"39 0 LINE"
);
},
{
closed = 1;
nodes = (
"128 428 LINE",
"128 485 LINE",
"36 476 LINE",
"36 428 LINE"
);
},
{
closed = 1;
nodes = (
"318 428 LINE",
"318 495 LINE",
"179 485 LINE",
"179 428 LINE"
);
}
);
width = 332;
},
{
anchors = (
{
name = bottom;
position = "{152, 0}";
},
{
name = top;
position = "{233, 780}";
}
);
background = {
paths = (
{
closed = 1;
nodes = (
"298 0 LINE",
"298 74 LINE",
"239 80 LINE SMOOTH",
"219 82 OFFCURVE",
"212 93 OFFCURVE",
"212 111 CURVE SMOOTH",
"212 635 LINE SMOOTH",
"212 678 OFFCURVE",
"237 699 OFFCURVE",
"274 699 CURVE SMOOTH",
"305 699 OFFCURVE",
"345 687 OFFCURVE",
"377 673 CURVE",
"415 766 LINE",
"383 779 OFFCURVE",
"331 790 OFFCURVE",
"298 790 CURVE SMOOTH",
"171 790 OFFCURVE",
"92 718 OFFCURVE",
"92 586 CURVE SMOOTH",
"92 109 LINE SMOOTH",
"92 92 OFFCURVE",
"85 83 OFFCURVE",
"70 81 CURVE SMOOTH",
"27 74 LINE",
"27 0 LINE"
);
},
{
closed = 1;
nodes = (
"108 404 LINE",
"108 484 LINE",
"26 475 LINE",
"26 404 LINE"
);
},
{
closed = 1;
nodes = (
"331 404 LINE",
"331 497 LINE",
"196 486 LINE",
"196 404 LINE"
);
}
);
};
layerId = "D04D9183-DC56-493B-9946-C87D971E5D7D";
paths = (
{
closed = 1;
nodes = (
"298 0 LINE",
"298 74 LINE",
"239 80 LINE SMOOTH",
"219 82 OFFCURVE",
"212 93 OFFCURVE",
"212 111 CURVE SMOOTH",
"212 635 LINE SMOOTH",
"212 678 OFFCURVE",
"237 699 OFFCURVE",
"274 699 CURVE SMOOTH",
"305 699 OFFCURVE",
"345 687 OFFCURVE",
"377 673 CURVE",
"415 766 LINE",
"383 779 OFFCURVE",
"331 790 OFFCURVE",
"298 790 CURVE SMOOTH",
"171 790 OFFCURVE",
"92 718 OFFCURVE",
"92 586 CURVE SMOOTH",
"92 109 LINE SMOOTH",
"92 92 OFFCURVE",
"85 83 OFFCURVE",
"70 81 CURVE SMOOTH",
"27 74 LINE",
"27 0 LINE"
);
},
{
closed = 1;
nodes = (
"108 404 LINE",
"108 484 LINE",
"26 475 LINE",
"26 404 LINE"
);
},
{
closed = 1;
nodes = (
"331 404 LINE",
"331 497 LINE",
"196 486 LINE",
"196 404 LINE"
);
}
);
width = 343;
}
);
unicode = 0066;
},
{
glyphname = g;
lastChange = "2017-03-02 16:49:44 +0000";
layers = (
{
anchors = (
{
name = bottom;
position = "{252, 0}";
},
{
name = top;
position = "{254, 480}";
}
);
background = {
anchors = (
{
name = bottom;
position = "{252, 0}";
},
{
name = top;
position = "{254, 480}";
}
);
paths = (
{
closed = 1;
nodes = (
"-292 125 OFFCURVE",
"-203 204 OFFCURVE",
"-203 318 CURVE SMOOTH",
"-203 371 OFFCURVE",
"-225 421 OFFCURVE",
"-263 452 CURVE",
"-276 433 LINE",
"-238 427 OFFCURVE",
"-196 436 OFFCURVE",
"-162 458 CURVE",
"-162 512 LINE",
"-242 491 OFFCURVE",
"-276 491 OFFCURVE",
"-390 491 CURVE SMOOTH",
"-520 491 OFFCURVE",
"-604 417 OFFCURVE",
"-604 307 CURVE SMOOTH",
"-604 193 OFFCURVE",
"-532 125 OFFCURVE",
"-413 125 CURVE SMOOTH"
);
},
{
closed = 1;
nodes = (
"-482 183 OFFCURVE",
"-521 230 OFFCURVE",
"-521 308 CURVE SMOOTH",
"-521 393 OFFCURVE",
"-501 435 OFFCURVE",
"-411 435 CURVE SMOOTH",
"-325 435 OFFCURVE",
"-286 388 OFFCURVE",
"-286 310 CURVE SMOOTH",
"-286 228 OFFCURVE",
"-315 183 OFFCURVE",
"-396 183 CURVE SMOOTH"
);
},
{
closed = 1;
nodes = (
"-267 -250 OFFCURVE",
"-172 -171 OFFCURVE",
"-172 -81 CURVE SMOOTH",
"-172 -23 OFFCURVE",
"-208 5 OFFCURVE",
"-275 16 CURVE SMOOTH",
"-330 25 OFFCURVE",
"-391 33 OFFCURVE",
"-457 46 CURVE SMOOTH",
"-467 48 OFFCURVE",
"-475 55 OFFCURVE",
"-475 64 CURVE",
"-439 142 LINE",
"-487 153 LINE",
"-552 51 LINE",
"-552 9 OFFCURVE",
"-532 -16 OFFCURVE",
"-484 -25 CURVE SMOOTH",
"-426 -36 OFFCURVE",
"-376 -43 OFFCURVE",
"-310 -53 CURVE SMOOTH",
"-269 -59 OFFCURVE",
"-250 -73 OFFCURVE",
"-250 -98 CURVE SMOOTH",
"-250 -151 OFFCURVE",
"-296 -184 OFFCURVE",
"-380 -184 CURVE SMOOTH",
"-451 -184 OFFCURVE",
"-510 -166 OFFCURVE",
"-538 -146 CURVE",
"-539 -68 LINE",
"-594 -68 LINE",
"-615 -191 LINE",
"-575 -226 OFFCURVE",
"-496 -250 OFFCURVE",
"-407 -250 CURVE SMOOTH"
);
},
{
closed = 1;
nodes = (
"350 125 OFFCURVE",
"439 204 OFFCURVE",
"439 318 CURVE SMOOTH",
"439 371 OFFCURVE",
"417 421 OFFCURVE",
"379 452 CURVE",
"366 433 LINE",
"404 427 OFFCURVE",
"446 436 OFFCURVE",
"480 458 CURVE",
"480 512 LINE",
"400 491 OFFCURVE",
"366 491 OFFCURVE",
"252 491 CURVE SMOOTH",
"122 491 OFFCURVE",
"38 417 OFFCURVE",
"38 307 CURVE SMOOTH",
"38 193 OFFCURVE",
"110 125 OFFCURVE",
"229 125 CURVE SMOOTH"
);
},
{
closed = 1;
nodes = (
"160 183 OFFCURVE",
"121 230 OFFCURVE",
"121 308 CURVE SMOOTH",
"121 393 OFFCURVE",
"141 435 OFFCURVE",
"231 435 CURVE SMOOTH",
"317 435 OFFCURVE",
"356 388 OFFCURVE",
"356 310 CURVE SMOOTH",
"356 228 OFFCURVE",
"327 183 OFFCURVE",
"246 183 CURVE SMOOTH"
);
},
{
closed = 1;
nodes = (
"375 -250 OFFCURVE",
"470 -171 OFFCURVE",
"470 -81 CURVE SMOOTH",
"470 -23 OFFCURVE",
"434 5 OFFCURVE",
"367 16 CURVE SMOOTH",
"312 26 OFFCURVE",
"251 33 OFFCURVE",
"185 46 CURVE SMOOTH",
"175 48 OFFCURVE",
"167 55 OFFCURVE",
"167 64 CURVE",
"203 142 LINE",
"155 153 LINE",
"90 51 LINE",
"90 9 OFFCURVE",
"110 -16 OFFCURVE",
"158 -25 CURVE SMOOTH",
"216 -36 OFFCURVE",
"266 -43 OFFCURVE",
"332 -53 CURVE SMOOTH",
"373 -59 OFFCURVE",
"392 -73 OFFCURVE",
"392 -98 CURVE SMOOTH",
"392 -151 OFFCURVE",
"346 -184 OFFCURVE",
"262 -184 CURVE SMOOTH",
"191 -184 OFFCURVE",
"132 -166 OFFCURVE",
"104 -146 CURVE",
"103 -68 LINE",
"48 -68 LINE",
"27 -191 LINE",
"67 -226 OFFCURVE",
"146 -250 OFFCURVE",
"235 -250 CURVE SMOOTH"
);
}
);
};
layerId = "93B1D13A-641C-48C6-9569-DADD26056F4A";
paths = (
{
closed = 1;
nodes = (
"350 125 OFFCURVE",
"439 204 OFFCURVE",
"439 318 CURVE SMOOTH",
"439 371 OFFCURVE",
"417 421 OFFCURVE",
"379 452 CURVE",
"366 433 LINE",
"404 427 OFFCURVE",
"446 436 OFFCURVE",
"480 458 CURVE",
"480 512 LINE",
"400 491 OFFCURVE",
"366 491 OFFCURVE",
"252 491 CURVE SMOOTH",
"122 491 OFFCURVE",
"38 417 OFFCURVE",
"38 307 CURVE SMOOTH",
"38 193 OFFCURVE",
"110 125 OFFCURVE",
"229 125 CURVE SMOOTH"
);
},
{
closed = 1;
nodes = (
"160 183 OFFCURVE",
"121 230 OFFCURVE",
"121 308 CURVE SMOOTH",
"121 393 OFFCURVE",
"141 435 OFFCURVE",
"231 435 CURVE SMOOTH",
"317 435 OFFCURVE",
"356 388 OFFCURVE",
"356 310 CURVE SMOOTH",
"356 228 OFFCURVE",
"327 183 OFFCURVE",
"246 183 CURVE SMOOTH"
);
},
{
closed = 1;
nodes = (
"375 -250 OFFCURVE",
"470 -171 OFFCURVE",
"470 -81 CURVE SMOOTH",
"470 -23 OFFCURVE",
"434 5 OFFCURVE",
"367 16 CURVE SMOOTH",
"312 26 OFFCURVE",
"251 33 OFFCURVE",
"185 46 CURVE SMOOTH",
"175 48 OFFCURVE",
"167 55 OFFCURVE",
"167 64 CURVE",
"203 142 LINE",
"155 153 LINE",
"90 51 LINE",
"90 9 OFFCURVE",
"110 -16 OFFCURVE",
"158 -25 CURVE SMOOTH",
"216 -36 OFFCURVE",
"266 -43 OFFCURVE",
"332 -53 CURVE SMOOTH",
"373 -59 OFFCURVE",
"392 -73 OFFCURVE",
"392 -98 CURVE SMOOTH",
"392 -151 OFFCURVE",
"346 -184 OFFCURVE",
"262 -184 CURVE SMOOTH",
"191 -184 OFFCURVE",
"132 -166 OFFCURVE",
"104 -146 CURVE",
"103 -68 LINE",
"48 -68 LINE",
"27 -191 LINE",
"67 -226 OFFCURVE",
"146 -250 OFFCURVE",
"235 -250 CURVE SMOOTH"
);
}
);
width = 495;
},
{
anchors = (
{
name = bottom;
position = "{292, 0}";
},
{
name = top;
position = "{254, 485}";
}
);
background = {
paths = (
{
closed = 1;
nodes = (
"365 124 OFFCURVE",
"461 204 OFFCURVE",
"461 313 CURVE SMOOTH",
"461 355 OFFCURVE",
"446 407 OFFCURVE",
"419 433 CURVE",
"409 414 LINE",
"439 414 OFFCURVE",
"477 430 OFFCURVE",
"494 444 CURVE",
"494 517 LINE",
"416 496 OFFCURVE",
"403 495 OFFCURVE",
"258 495 CURVE SMOOTH",
"102 495 OFFCURVE",
"27 407 OFFCURVE",
"27 307 CURVE SMOOTH",
"27 192 OFFCURVE",
"115 124 OFFCURVE",
"234 124 CURVE SMOOTH"
);
},
{
closed = 1;
nodes = (
"184 205 OFFCURVE",
"153 244 OFFCURVE",
"153 317 CURVE SMOOTH",
"153 389 OFFCURVE",
"174 417 OFFCURVE",
"239 417 CURVE SMOOTH",
"304 417 OFFCURVE",
"335 385 OFFCURVE",
"335 312 CURVE SMOOTH",
"335 241 OFFCURVE",
"314 205 OFFCURVE",
"249 205 CURVE SMOOTH"
);
},
{
closed = 1;
nodes = (
"392 -250 OFFCURVE",
"492 -164 OFFCURVE",
"492 -68 CURVE SMOOTH",
"492 -8 OFFCURVE",
"456 23 OFFCURVE",
"397 35 CURVE SMOOTH",
"365 41 OFFCURVE",
"307 48 OFFCURVE",
"218 62 CURVE SMOOTH",
"193 66 OFFCURVE",
"187 73 OFFCURVE",
"187 85 CURVE",
"214 144 LINE",
"154 160 LINE",
"81 53 LINE",
"81 -1 OFFCURVE",
"109 -27 OFFCURVE",
"157 -36 CURVE SMOOTH",
"211 -46 OFFCURVE",
"282 -58 OFFCURVE",
"349 -68 CURVE SMOOTH",
"374 -72 OFFCURVE",
"385 -84 OFFCURVE",
"385 -102 CURVE SMOOTH",
"385 -135 OFFCURVE",
"348 -159 OFFCURVE",
"279 -159 CURVE SMOOTH",
"209 -159 OFFCURVE",
"159 -146 OFFCURVE",
"124 -127 CURVE",
"124 -61 LINE",
"46 -61 LINE",
"23 -191 LINE",
"67 -226 OFFCURVE",
"147 -250 OFFCURVE",
"241 -250 CURVE SMOOTH"
);
}
);
};
layerId = "D04D9183-DC56-493B-9946-C87D971E5D7D";
paths = (
{
closed = 1;
nodes = (
"366 124 OFFCURVE",
"462 204 OFFCURVE",
"462 313 CURVE SMOOTH",
"462 355 OFFCURVE",
"447 407 OFFCURVE",
"420 433 CURVE",
"410 414 LINE",
"440 414 OFFCURVE",
"478 430 OFFCURVE",
"495 444 CURVE",
"495 517 LINE",
"417 496 OFFCURVE",
"404 495 OFFCURVE",
"259 495 CURVE SMOOTH",
"103 495 OFFCURVE",
"28 407 OFFCURVE",
"28 307 CURVE SMOOTH",
"28 192 OFFCURVE",
"116 124 OFFCURVE",
"235 124 CURVE SMOOTH"
);
},
{
closed = 1;
nodes = (
"185 205 OFFCURVE",
"154 244 OFFCURVE",
"154 317 CURVE SMOOTH",
"154 389 OFFCURVE",
"175 417 OFFCURVE",
"240 417 CURVE SMOOTH",
"305 417 OFFCURVE",
"336 385 OFFCURVE",
"336 312 CURVE SMOOTH",
"336 241 OFFCURVE",
"315 205 OFFCURVE",
"250 205 CURVE SMOOTH"
);
},
{
closed = 1;
nodes = (
"393 -250 OFFCURVE",
"493 -164 OFFCURVE",
"493 -68 CURVE SMOOTH",
"493 -8 OFFCURVE",
"457 24 OFFCURVE",
"398 35 CURVE SMOOTH",
"366 41 OFFCURVE",
"308 48 OFFCURVE",
"219 62 CURVE SMOOTH",
"194 66 OFFCURVE",
"188 73 OFFCURVE",
"188 85 CURVE",
"215 144 LINE",
"155 160 LINE",
"82 53 LINE",
"82 -1 OFFCURVE",
"110 -27 OFFCURVE",
"158 -36 CURVE SMOOTH",
"212 -46 OFFCURVE",
"283 -57 OFFCURVE",
"350 -68 CURVE SMOOTH",
"375 -72 OFFCURVE",
"386 -84 OFFCURVE",
"386 -102 CURVE SMOOTH",
"386 -135 OFFCURVE",
"349 -159 OFFCURVE",
"280 -159 CURVE SMOOTH",
"210 -159 OFFCURVE",
"160 -146 OFFCURVE",
"125 -127 CURVE",
"125 -61 LINE",
"47 -61 LINE",
"24 -191 LINE",
"68 -226 OFFCURVE",
"148 -250 OFFCURVE",
"242 -250 CURVE SMOOTH"
);
}
);
width = 505;
}
);
leftKerningGroup = g.left;
rightKerningGroup = g.right;
unicode = 0067;
},
{
glyphname = h;
lastChange = "2017-02-22 16:25:53 +0000";
layers = (
{
anchors = (
{
name = bottom;
position = "{320, 0}";
},
{
name = center;
position = "{309, 240}";
},
{
name = top;
position = "{307, 732}";
}
);
background = {
anchors = (
{
name = bottom;
position = "{320, 0}";
},
{
name = center;
position = "{309, 240}";
},
{
name = top;
position = "{110, 780}";
}
);
paths = (
{
closed = 1;
nodes = (
"267 0 LINE",
"267 53 LINE",
"212 60 LINE SMOOTH",
"192 63 OFFCURVE",
"189 69 OFFCURVE",
"189 98 CURVE SMOOTH",
"189 780 LINE",
"35 780 LINE",
"35 728 LINE",
"87 722 LINE SMOOTH",
"107 720 OFFCURVE",
"110 712 OFFCURVE",
"110 683 CURVE SMOOTH",
"110 98 LINE SMOOTH",
"110 69 OFFCURVE",
"107 62 OFFCURVE",
"87 60 CURVE SMOOTH",
"35 54 LINE",
"35 0 LINE"
);
},
{
closed = 1;
nodes = (
"582 0 LINE",
"582 54 LINE",
"530 60 LINE SMOOTH",
"510 62 OFFCURVE",
"507 69 OFFCURVE",
"507 98 CURVE SMOOTH",
"507 347 LINE SMOOTH",
"507 428 OFFCURVE",
"455 490 OFFCURVE",
"355 490 CURVE SMOOTH",
"279 490 OFFCURVE",
"213 448 OFFCURVE",
"171 384 CURVE",
"178 318 LINE",
"201 372 OFFCURVE",
"255 416 OFFCURVE",
"324 416 CURVE SMOOTH",
"394 416 OFFCURVE",
"428 380 OFFCURVE",
"428 320 CURVE SMOOTH",
"428 0 LINE"
);
}
);
};
layerId = "93B1D13A-641C-48C6-9569-DADD26056F4A";
paths = (
{
closed = 1;
nodes = (
"267 0 LINE",
"267 53 LINE",
"212 60 LINE SMOOTH",
"192 63 OFFCURVE",
"189 69 OFFCURVE",
"189 98 CURVE SMOOTH",
"189 780 LINE",
"35 780 LINE",
"35 728 LINE",
"87 722 LINE SMOOTH",
"107 720 OFFCURVE",
"110 712 OFFCURVE",
"110 683 CURVE SMOOTH",
"110 98 LINE SMOOTH",
"110 69 OFFCURVE",
"107 62 OFFCURVE",
"87 60 CURVE SMOOTH",
"35 54 LINE",
"35 0 LINE"
);
},
{
closed = 1;
nodes = (
"582 0 LINE",
"582 54 LINE",
"530 60 LINE SMOOTH",
"510 62 OFFCURVE",
"507 69 OFFCURVE",
"507 98 CURVE SMOOTH",
"507 347 LINE SMOOTH",
"507 428 OFFCURVE",
"455 490 OFFCURVE",
"355 490 CURVE SMOOTH",
"279 490 OFFCURVE",
"213 448 OFFCURVE",
"171 384 CURVE",
"178 318 LINE",
"201 372 OFFCURVE",
"255 416 OFFCURVE",
"324 416 CURVE SMOOTH",
"394 416 OFFCURVE",
"428 380 OFFCURVE",
"428 320 CURVE SMOOTH",
"428 0 LINE"
);
}
);
width = 607;
},
{
anchors = (
{
name = bottom;
position = "{314, 0}";
},
{
name = center;
position = "{303, 243}";
},
{
name = top;
position = "{314, 733}";
}
);
background = {
paths = (
{
closed = 1;
nodes = (
"273 0 LINE",
"273 74 LINE",
"230 81 LINE SMOOTH",
"215 83 OFFCURVE",
"208 92 OFFCURVE",
"208 109 CURVE SMOOTH",
"208 780 LINE",
"26 780 LINE",
"26 706 LINE",
"66 700 LINE SMOOTH",
"81 698 OFFCURVE",
"88 689 OFFCURVE",
"88 672 CURVE SMOOTH",
"88 109 LINE SMOOTH",
"88 92 OFFCURVE",
"81 84 OFFCURVE",
"66 81 CURVE SMOOTH",
"26 74 LINE",
"26 0 LINE"
);
},
{
closed = 1;
nodes = (
"579 0 LINE",
"579 74 LINE",
"539 81 LINE SMOOTH",
"524 84 OFFCURVE",
"517 92 OFFCURVE",
"517 109 CURVE SMOOTH",
"517 346 LINE SMOOTH",
"517 430 OFFCURVE",
"465 495 OFFCURVE",
"356 495 CURVE SMOOTH",
"281 495 OFFCURVE",
"218 454 OFFCURVE",
"173 397 CURVE",
"199 340 LINE",
"231 377 OFFCURVE",
"272 398 OFFCURVE",
"316 398 CURVE SMOOTH",
"367 398 OFFCURVE",
"397 370 OFFCURVE",
"397 318 CURVE SMOOTH",
"397 0 LINE"
);
},
{
closed = 1;
nodes = (
"579 0 LINE",
"579 74 LINE",
"539 81 LINE SMOOTH",
"524 84 OFFCURVE",
"517 92 OFFCURVE",
"517 109 CURVE SMOOTH",
"517 346 LINE SMOOTH",
"517 430 OFFCURVE",
"465 495 OFFCURVE",
"356 495 CURVE SMOOTH",
"281 495 OFFCURVE",
"218 454 OFFCURVE",
"173 397 CURVE",
"199 340 LINE",
"231 377 OFFCURVE",
"272 398 OFFCURVE",
"316 398 CURVE SMOOTH",
"367 398 OFFCURVE",
"397 370 OFFCURVE",
"397 318 CURVE SMOOTH",
"397 0 LINE"
);
},
{
closed = 1;
nodes = (
"88 0 LINE",
"518 0 LINE",
"518 780 LINE",
"88 780 LINE"
);
}
);
};
layerId = "D04D9183-DC56-493B-9946-C87D971E5D7D";
paths = (
{
closed = 1;
nodes = (
"273 0 LINE",
"273 74 LINE",
"230 81 LINE SMOOTH",
"215 83 OFFCURVE",
"208 92 OFFCURVE",
"208 109 CURVE SMOOTH",
"208 780 LINE",
"26 780 LINE",
"26 706 LINE",
"66 700 LINE SMOOTH",
"81 698 OFFCURVE",
"88 689 OFFCURVE",
"88 672 CURVE SMOOTH",
"88 109 LINE SMOOTH",
"88 92 OFFCURVE",
"81 84 OFFCURVE",
"66 81 CURVE SMOOTH",
"26 74 LINE",
"26 0 LINE"
);
},
{
closed = 1;
nodes = (
"579 0 LINE",
"579 74 LINE",
"539 81 LINE SMOOTH",
"524 84 OFFCURVE",
"517 92 OFFCURVE",
"517 109 CURVE SMOOTH",
"517 346 LINE SMOOTH",
"517 430 OFFCURVE",
"465 495 OFFCURVE",
"356 495 CURVE SMOOTH",
"281 495 OFFCURVE",
"218 454 OFFCURVE",
"173 397 CURVE",
"200 335 LINE",
"226 375 OFFCURVE",
"267 398 OFFCURVE",
"312 398 CURVE SMOOTH",
"367 398 OFFCURVE",
"397 370 OFFCURVE",
"397 318 CURVE SMOOTH",
"397 0 LINE"
);
}
);
width = 601;
}
);
rightKerningGroup = n.right;
unicode = 0068;
},
{
glyphname = hbar;
lastChange = "2017-02-22 02:57:25 +0000";
layers = (
{
background = {
paths = (
{
closed = 1;
nodes = (
"387 578 LINE",
"387 643 LINE",
"34 643 LINE",
"34 578 LINE"
);
}
);
};
components = (
{
name = h;
}
);
layerId = "93B1D13A-641C-48C6-9569-DADD26056F4A";
paths = (
{
closed = 1;
nodes = (
"364 578 LINE",
"364 634 LINE",
"34 634 LINE",
"34 578 LINE"
);
}
);
width = 620;
},
{
background = {
paths = (
{
closed = 1;
nodes = (
"416 556 LINE",
"416 643 LINE",
"23 643 LINE",
"23 556 LINE"
);
}
);
};
components = (
{
name = h;
}
);
layerId = "D04D9183-DC56-493B-9946-C87D971E5D7D";
paths = (
{
closed = 1;
nodes = (
"363 562 LINE",
"363 632 LINE",
"23 632 LINE",
"23 562 LINE"
);
}
);
width = 623;
}
);
rightKerningGroup = n.right;
unicode = 0127;
},
{
glyphname = hcircumflex;
lastChange = "2017-02-22 02:57:25 +0000";
layers = (
{
background = {
paths = (
{
closed = 1;
nodes = (
"113 1 LINE",
"503 1 LINE",
"503 781 LINE",
"113 781 LINE"
);
},
{
closed = 1;
nodes = (
"113 720 LINE",
"150 720 LINE",
"150 861 LINE",
"113 861 LINE"
);
},
{
closed = 1;
nodes = (
"466 718 LINE",
"503 718 LINE",
"503 859 LINE",
"466 859 LINE"
);
}
);
};
components = (
{
alignment = -1;
name = h;
},
{
name = circumflex.case;
transform = "{1, 0, 0, 1, 165, 52}";
}
);
layerId = "93B1D13A-641C-48C6-9569-DADD26056F4A";
width = 607;
},
{
background = {
paths = (
{
closed = 1;
nodes = (
"84 0 LINE",
"514 0 LINE",
"514 780 LINE",
"84 780 LINE"
);
}
);
};
components = (
{
name = h;
},
{
name = circumflex.case;
transform = "{1, 0, 0, 1, 166, 53}";
}
);
layerId = "D04D9183-DC56-493B-9946-C87D971E5D7D";
width = 601;
}
);
rightKerningGroup = n.right;
unicode = 0125;
},
{
glyphname = i;
lastChange = "2017-03-02 15:27:55 +0000";
layers = (
{
anchors = (
{
name = bottom;
position = "{155, 0}";
},
{
name = ogonek;
position = "{262, 10}";
}
);
layerId = "93B1D13A-641C-48C6-9569-DADD26056F4A";
paths = (
{
closed = 1;
nodes = (
"272 0 LINE",
"272 54 LINE",
"220 60 LINE SMOOTH",
"200 62 OFFCURVE",
"197 69 OFFCURVE",
"197 98 CURVE SMOOTH",
"197 480 LINE",
"43 480 LINE",
"43 428 LINE",
"95 422 LINE SMOOTH",
"115 420 OFFCURVE",
"118 413 OFFCURVE",
"118 384 CURVE SMOOTH",
"118 98 LINE SMOOTH",
"118 69 OFFCURVE",
"115 62 OFFCURVE",
"95 60 CURVE SMOOTH",
"43 54 LINE",
"43 0 LINE"
);
},
{
closed = 1;
nodes = (
"185 597 OFFCURVE",
"203 609 OFFCURVE",
"203 651 CURVE SMOOTH",
"203 693 OFFCURVE",
"192 711 OFFCURVE",
"149 711 CURVE SMOOTH",
"105 711 OFFCURVE",
"89 692 OFFCURVE",
"89 652 CURVE SMOOTH",
"89 613 OFFCURVE",
"101 597 OFFCURVE",
"143 597 CURVE SMOOTH"
);
}
);
width = 298;
},
{
anchors = (
{
name = bottom;
position = "{157, 0}";
},
{
name = ogonek;
position = "{267, 10}";
}
);
background = {
paths = (
{
closed = 1;
nodes = (
"575 577 OFFCURVE",
"595 602 OFFCURVE",
"595 652 CURVE SMOOTH",
"595 699 OFFCURVE",
"574 722 OFFCURVE",
"522 722 CURVE SMOOTH",
"466 722 OFFCURVE",
"443 697 OFFCURVE",
"443 647 CURVE SMOOTH",
"443 597 OFFCURVE",
"467 577 OFFCURVE",
"519 577 CURVE SMOOTH"
);
},
{
closed = 1;
nodes = (
"187 577 OFFCURVE",
"213 598 OFFCURVE",
"213 648 CURVE SMOOTH",
"213 696 OFFCURVE",
"192 720 OFFCURVE",
"144 720 CURVE SMOOTH",
"94 720 OFFCURVE",
"68 698 OFFCURVE",
"68 648 CURVE SMOOTH",
"68 600 OFFCURVE",
"89 577 OFFCURVE",
"137 577 CURVE SMOOTH"
);
}
);
};
layerId = "D04D9183-DC56-493B-9946-C87D971E5D7D";
paths = (
{
closed = 1;
nodes = (
"277 0 LINE",
"277 74 LINE",
"237 81 LINE SMOOTH",
"222 84 OFFCURVE",
"215 92 OFFCURVE",
"215 109 CURVE SMOOTH",
"215 485 LINE",
"33 485 LINE",
"33 411 LINE",
"73 405 LINE SMOOTH",
"88 403 OFFCURVE",
"95 394 OFFCURVE",
"95 377 CURVE SMOOTH",
"95 109 LINE SMOOTH",
"95 92 OFFCURVE",
"88 84 OFFCURVE",
"73 81 CURVE SMOOTH",
"33 74 LINE",
"33 0 LINE"
);
},
{
closed = 1;
nodes = (
"187 576 OFFCURVE",
"213 598 OFFCURVE",
"213 648 CURVE SMOOTH",
"213 696 OFFCURVE",
"192 720 OFFCURVE",
"144 720 CURVE SMOOTH",
"94 720 OFFCURVE",
"68 698 OFFCURVE",
"68 648 CURVE SMOOTH",
"68 600 OFFCURVE",
"89 576 OFFCURVE",
"137 576 CURVE SMOOTH"
);
}
);
width = 299;
}
);
leftKerningGroup = i.left;
rightKerningGroup = i.right;
unicode = 0069;
},
{
glyphname = idotless;
lastChange = "2017-03-02 01:05:00 +0000";
layers = (
{
anchors = (
{
name = bottom;
position = "{158, 0}";
},
{
name = ogonek;
position = "{265, 10}";
},
{
name = top;
position = "{127, 480}";
}
);
annotations = (
{
position = "{3, 829}";
text = "changed glyph name to the current standard";
type = Text;
width = 214;
}
);
layerId = "93B1D13A-641C-48C6-9569-DADD26056F4A";
paths = (
{
closed = 1;
nodes = (
"197 98 LINE SMOOTH",
"197 69 OFFCURVE",
"200 62 OFFCURVE",
"220 60 CURVE SMOOTH",
"275 54 LINE",
"275 0 LINE",
"40 0 LINE",
"40 54 LINE",
"95 60 LINE SMOOTH",
"115 62 OFFCURVE",
"118 69 OFFCURVE",
"118 98 CURVE SMOOTH",
"118 384 LINE SMOOTH",
"118 413 OFFCURVE",
"115 420 OFFCURVE",
"95 422 CURVE SMOOTH",
"40 428 LINE",
"40 480 LINE",
"197 480 LINE"
);
}
);
width = 305;
},
{
anchors = (
{
name = bottom;
position = "{163, 0}";
},
{
name = ogonek;
position = "{287, 10}";
},
{
name = top;
position = "{130, 485}";
}
);
annotations = (
{
position = "{3, 829}";
text = "changed glyph name to the current standard";
type = Text;
width = 214;
}
);
hints = (
{
place = "{86, 141}";
type = Stem;
},
{
horizontal = 1;
place = "{572, 142}";
type = Stem;
}
);
layerId = "D04D9183-DC56-493B-9946-C87D971E5D7D";
paths = (
{
closed = 1;
nodes = (
"221 109 LINE SMOOTH",
"221 91 OFFCURVE",
"225 83 OFFCURVE",
"243 81 CURVE SMOOTH",
"297 74 LINE",
"297 0 LINE",
"25 0 LINE",
"25 74 LINE",
"79 81 LINE SMOOTH",
"97 83 OFFCURVE",
"101 91 OFFCURVE",
"101 109 CURVE SMOOTH",
"101 377 LINE SMOOTH",
"101 395 OFFCURVE",
"97 403 OFFCURVE",
"79 405 CURVE SMOOTH",
"25 411 LINE",
"25 485 LINE",
"221 485 LINE"
);
}
);
width = 317;
}
);
leftKerningGroup = n.left;
rightKerningGroup = i.right;
unicode = 0131;
},
